<svg xmlns="http://www.w3.org/2000/svg" xmlns:xlink="http://www.w3.org/1999/xlink" viewBox="0 0 145 126.35"><defs><style>.cls-1{fill:none;}.cls-2{fill:#fff;}.cls-3{fill:#c33;}.cls-4{clip-path:url(#clip-path);}.cls-5{fill:#333;}</style><clipPath id="clip-path"><rect class="cls-1" x="22" y="8" width="45" height="42"/></clipPath></defs><title>ekt-logo-2</title><g id="Layer_2" data-name="Layer 2"><g id="Layer_1-2" data-name="Layer 1"><path class="cls-2" d="M30.49,60.22A12.82,12.82,0,0,0,17.71,73H43.27A12.82,12.82,0,0,0,30.49,60.22"/><path class="cls-3" d="M30.49,86.26A12.78,12.78,0,1,1,43.27,73.48h0A12.82,12.82,0,0,1,30.49,86.26"/><path class="cls-3" d="M141.83,61l-3.17-19.65L121.55,16H94V42H91V0H12.82A12.91,12.91,0,0,0,0,12.92V73H14.52c-.09-8.26,6.93-15.41,15.66-15.49h.31a15.82,15.82,0,0,1,16,15.66V74h54.31c.07-9.34,7.28-16.44,16.1-16.37S132.66,64.76,132.73,74H145V61ZM103,42V26h16l10.25,16Z"/><path class="cls-3" d="M116.76,60.7A12.78,12.78,0,1,1,104,73.48h0A12.79,12.79,0,0,1,116.76,60.7"/><g class="cls-4"><path class="cls-2" d="M66.62,25.51l-6.36,1.27a6.77,6.77,0,0,1-1.91,5.73,6.89,6.89,0,0,1-8.27,1.27c-1.91-1.27-3.18-3.82-3.82-5.09,5.09-4.45,4.45-9.54,1.91-14C45.63,9.61,39.9,9,39.9,9a26.19,26.19,0,0,0-8.27,4.45l4.46,5.09s1.9-1.91,5.72-1.27,5.09,3.82,5.73,6.36A8.1,8.1,0,0,1,45,29.33c-6.36-1.91-10.81,1.27-13.36,5.72A13.85,13.85,0,0,0,31,45.23a27.81,27.81,0,0,0,7.63,5.09L40.54,44a5.23,5.23,0,0,1-3.82-4.46,6.28,6.28,0,0,1,2.55-7.63c1.9-1.27,5.09-1.27,5.72-.64,1.91,7,6.36,8.91,12.09,8.91A11.62,11.62,0,0,0,66,35.69a18.77,18.77,0,0,0,.64-10.18"/><path class="cls-2" d="M54.82,27.42a6.86,6.86,0,0,0,5.09-2.55c3.18-3.81,1.91-7,1.27-8.27C60.55,14.69,58,13.42,58,13.42V12.15L56.73,8.33l-3.82,2.55,1.27,4.45c7.63,5.09.64,12.09.64,12.09"/><path class="cls-2" d="M39.9,22.33a9.16,9.16,0,0,0-5.09-3.18c-5.09-.64-7,1.91-8.27,3.18-.63,1.27-.63,4.45-.63,4.45l-1.27.64L22.09,30l3.82,2.55,3.81-3.82c0-8.9,10.18-6.36,10.18-6.36"/><path class="cls-2" d="M53.91,43.55C45.64,48,43.1,37.82,43.1,37.82a9.39,9.39,0,0,0,0,6.36c1.9,4.46,5.09,5.09,7,5.09A12.37,12.37,0,0,0,54.55,48h1.27l3.18.64V44.18Z"/></g><path class="cls-5" d="M39.94,111.47a14,14,0,0,1-1.38,6.42,12.9,12.9,0,0,1-3.64,4.44,15.12,15.12,0,0,1-5.1,2.56,20.51,20.51,0,0,1-5.76.82H13.5V97.39H23.74a25.69,25.69,0,0,1,5.92.7,14.89,14.89,0,0,1,5.2,2.32,11.87,11.87,0,0,1,3.68,4.34A14.65,14.65,0,0,1,39.94,111.47Zm-7.12,0a9,9,0,0,0-.78-4A6.72,6.72,0,0,0,30,105a8.5,8.5,0,0,0-3-1.34,15,15,0,0,0-3.42-.4h-3.4v16.56h3.24a14.67,14.67,0,0,0,3.54-.42A8.42,8.42,0,0,0,30,118,6.78,6.78,0,0,0,32,115.43,9,9,0,0,0,32.82,111.47Z"/><path class="cls-5" d="M57,111.19a5.4,5.4,0,0,0-.86-.16c-.28,0-.55,0-.82,0a4.67,4.67,0,0,0-2.22.48,4.57,4.57,0,0,0-1.44,1.16,4.35,4.35,0,0,0-.78,1.47,5,5,0,0,0-.24,1.4v10.21H44.1V105.82h6.32v2.88h.08a6.53,6.53,0,0,1,2.16-2.5,5.51,5.51,0,0,1,3.24-1c.27,0,.53,0,.78,0a3.59,3.59,0,0,1,.62.12Z"/><path class="cls-5" d="M67.06,99.43a3.38,3.38,0,0,1-.3,1.42A3.72,3.72,0,0,1,66,102a3.52,3.52,0,0,1-1.2.76,3.83,3.83,0,0,1-1.46.28A3.66,3.66,0,0,1,60.62,102a3.53,3.53,0,0,1-.8-3.92,3.27,3.27,0,0,1,.8-1.14,4.43,4.43,0,0,1,1.2-.78,3.63,3.63,0,0,1,1.48-.3,4,4,0,0,1,1.46.28,3.67,3.67,0,0,1,1.2.76,3.72,3.72,0,0,1,.8,1.14A3.41,3.41,0,0,1,67.06,99.43Zm-7,26.28V105.79h6.56v19.92Z"/><path class="cls-5" d="M84.1,125.71H77l-7.84-19.92h7.24l4.2,12.92h.12l4.2-12.92h7Z"/><path class="cls-5" d="M114.22,116v.8a6.12,6.12,0,0,1,0,.76H99.74a3.42,3.42,0,0,0,.5,1.52,4.18,4.18,0,0,0,1.08,1.18,4.87,4.87,0,0,0,1.48.78,5.14,5.14,0,0,0,1.7.28,5.48,5.48,0,0,0,2.64-.58,5,5,0,0,0,1.76-1.5l4.56,2.88a9.2,9.2,0,0,1-3.7,3.14,12.13,12.13,0,0,1-5.34,1.1,12.66,12.66,0,0,1-4.24-.7,10.11,10.11,0,0,1-3.5-2,9.34,9.34,0,0,1-2.36-3.3,11.08,11.08,0,0,1-.86-4.48,11.23,11.23,0,0,1,.84-4.42,10,10,0,0,1,2.28-3.36,10.18,10.18,0,0,1,3.4-2.14,11.78,11.78,0,0,1,4.24-.76,10.8,10.8,0,0,1,4,.74,8.89,8.89,0,0,1,3.16,2.14,9.93,9.93,0,0,1,2.06,3.4A13.22,13.22,0,0,1,114.22,116Zm-6-2.52a4,4,0,0,0-1-2.68,3.71,3.71,0,0,0-2.94-1.12,5,5,0,0,0-1.76.3,4.74,4.74,0,0,0-1.4.82,4.18,4.18,0,0,0-1,1.22,3.67,3.67,0,0,0-.4,1.46Z"/><path class="cls-5" d="M131.22,111.19a5.4,5.4,0,0,0-.86-.16c-.28,0-.55,0-.82,0a4.67,4.67,0,0,0-2.22.48,4.57,4.57,0,0,0-1.44,1.16,4.35,4.35,0,0,0-.78,1.47,5,5,0,0,0-.24,1.4v10.21H118.3V105.82h6.32v2.88h.08a6.53,6.53,0,0,1,2.16-2.5,5.51,5.51,0,0,1,3.24-1c.27,0,.53,0,.78,0a3.59,3.59,0,0,1,.62.12Z"/></g></g></svg>