<svg xmlns="http://www.w3.org/2000/svg" xmlns:xlink="http://www.w3.org/1999/xlink" width="54" height="40.464"
    viewBox="0 0 54 40.464">
    <defs>
        <style>
            .driver-class {
                fill: #fff;
            }

            .b {
                fill: #c33;
            }

            .c {
                clip-path: url(#a);
            }

            .d-bold {
                fill: #333;
                font-size: 14px;
                font-family: 'Avenir_Next_Bold';
                font-weight: 700;
            }
        </style>
        <clipPath id="a">
            <rect class="driver-class" width="11.183" height="10.447" />
        </clipPath>
    </defs>
    <g transform="translate(-11 -35.536)">
        <g transform="translate(20.448 35.535)">
            <path class="driver-class" d="M5.88,9.5A3.189,3.189,0,0,0,2.7,12.68H9.06A3.189,3.189,0,0,0,5.88,9.5"
                transform="translate(1.593 5.605)" />
            <path class="b" d="M5.88,15.86a3.18,3.18,0,1,1,3.18-3.18,3.189,3.189,0,0,1-3.18,3.18"
                transform="translate(1.593 5.605)" />
            <path class="b"
                d="M35.3,15.263,34.5,10.335l-4.293-6.36H23.215v6.36h-.638V0H3.18A3.189,3.189,0,0,0,0,3.18v15.1H3.5A3.936,3.936,0,0,1,7.473,14.31a3.936,3.936,0,0,1,3.975,3.975H24.962a3.975,3.975,0,0,1,7.95,0h3.18V15.263Zm-9.858-4.929V6.36h3.975l2.546,3.975Z"
                transform="translate(0 0.001)" />
            <path class="b" d="M19.38,9.5a3.18,3.18,0,1,1-3.18,3.18A3.181,3.181,0,0,1,19.38,9.5"
                transform="translate(9.557 5.605)" />
            <g transform="translate(5.382 2.074)">
                <g class="c" transform="translate(0 0)">
                    <path class="driver-class"
                        d="M10.327,4.215l-1.583.317a1.679,1.679,0,0,1-.475,1.425,1.712,1.712,0,0,1-2.058.317,3.319,3.319,0,0,1-.95-1.266,2.536,2.536,0,0,0,.475-3.482A2.809,2.809,0,0,0,3.679.1,6.48,6.48,0,0,0,1.621,1.208L2.729,2.474a1.656,1.656,0,0,1,1.425-.317A1.833,1.833,0,0,1,5.578,3.741a2.006,2.006,0,0,1-.633,1.425A2.722,2.722,0,0,0,1.621,6.59a3.444,3.444,0,0,0-.158,2.533,6.938,6.938,0,0,0,1.9,1.266l.475-1.583A1.3,1.3,0,0,1,2.888,7.7a1.565,1.565,0,0,1,.633-1.9A1.6,1.6,0,0,1,4.945,5.64,2.731,2.731,0,0,0,7.953,7.856a2.893,2.893,0,0,0,2.216-1.108,4.652,4.652,0,0,0,.158-2.533"
                        transform="translate(0.753 0.058)" />
                    <path class="driver-class"
                        d="M5.375,4.749a1.709,1.709,0,0,0,1.266-.633,1.765,1.765,0,0,0,.317-2.058,1.748,1.748,0,0,0-.791-.791V.95L5.85,0,4.9.633l.317,1.108c1.9,1.266.158,3.007.158,3.007"
                        transform="translate(2.856 0)" />
                    <path class="driver-class"
                        d="M4.432,2.5a2.3,2.3,0,0,0-1.266-.791A2.108,2.108,0,0,0,1.108,2.5,3.565,3.565,0,0,0,.95,3.609l-.317.158L0,4.4l.95.633.95-.95C1.9,1.867,4.432,2.5,4.432,2.5"
                        transform="translate(0 0.982)" />
                    <path class="driver-class"
                        d="M6.043,6.125C3.985,7.233,3.352,4.7,3.352,4.7a2.345,2.345,0,0,0,0,1.583A1.82,1.82,0,0,0,5.093,7.549,3.122,3.122,0,0,0,6.2,7.233h.317l.791.158V6.283Z"
                        transform="translate(1.872 2.739)" />
                </g>
            </g>
        </g><text class="d-bold" transform="translate(11 57)">
            <tspan x="5.825" y="14">Driver</tspan>
        </text>
    </g>
</svg>