<svg xmlns="http://www.w3.org/2000/svg" xmlns:xlink="http://www.w3.org/1999/xlink" width="218" height="143" viewBox="0 0 218 143"><defs><style>.a{fill:#fff;}.b{fill:#c33;}.c{clip-path:url(#a);}.d{fill:#333;font-size:40px;font-family:AvenirNext-Bold, Avenir Next;font-weight:700;}</style><clipPath id="a"><rect class="a" width="44.942" height="41.984"/></clipPath></defs><g transform="translate(-71 -259)"><g transform="translate(109.461 259)"><path class="a" d="M15.48,9.5A12.817,12.817,0,0,0,2.7,22.28H28.259A12.817,12.817,0,0,0,15.48,9.5" transform="translate(14.553 51.204)"/><path class="b" d="M15.48,35.059a12.78,12.78,0,1,1,12.78-12.78,12.817,12.817,0,0,1-12.78,12.78" transform="translate(14.553 51.204)"/><path class="b" d="M141.855,61.343,138.66,41.534,121.407,15.975H93.3V41.534H90.736V0H12.78A12.817,12.817,0,0,0,0,12.78v60.7H14.058A15.819,15.819,0,0,1,30.032,57.509,15.819,15.819,0,0,1,46.007,73.483h54.314a15.975,15.975,0,0,1,31.949,0h12.78V61.343ZM102.238,41.534V25.559h15.975l10.23,15.975Z" transform="translate(0 0)"/><path class="b" d="M28.98,9.5A12.78,12.78,0,1,1,16.2,22.28,12.784,12.784,0,0,1,28.98,9.5" transform="translate(87.316 51.204)"/><g transform="translate(21.63 8.334)"><g class="c" transform="translate(0 0)"><path class="a" d="M37.6,16.639l-6.361,1.272a6.747,6.747,0,0,1-1.908,5.725,6.88,6.88,0,0,1-8.27,1.272c-1.908-1.272-3.181-3.817-3.817-5.089,5.089-4.453,4.453-9.542,1.908-13.995C16.61.736,10.885.1,10.885.1a26.043,26.043,0,0,0-8.27,4.453L7.068,9.642S8.976,7.734,12.793,8.37s5.089,3.817,5.725,6.361a8.063,8.063,0,0,1-2.545,5.725C9.613,18.548,5.16,21.728,2.615,26.181a13.842,13.842,0,0,0-.636,10.178,27.884,27.884,0,0,0,7.634,5.089l1.908-6.361A5.227,5.227,0,0,1,7.7,30.634,6.288,6.288,0,0,1,10.249,23c1.908-1.272,5.089-1.272,5.725-.636,1.908,7,6.361,8.906,12.086,8.906a11.627,11.627,0,0,0,8.906-4.453A18.7,18.7,0,0,0,37.6,16.639" transform="translate(6.927 0.536)"/><path class="a" d="M6.808,19.084A6.869,6.869,0,0,0,11.9,16.539c3.181-3.817,1.908-7,1.272-8.27-.636-1.908-3.181-3.181-3.181-3.181V3.817L8.717,0,4.9,2.545,6.172,7c7.634,5.089.636,12.086.636,12.086" transform="translate(26.27 0)"/><path class="a" d="M17.812,4.965a9.252,9.252,0,0,0-5.089-3.181c-5.089-.636-7,1.908-8.27,3.181-.636,1.272-.636,4.453-.636,4.453l-1.272.636L0,12.6l3.817,2.545,3.817-3.817c0-8.906,10.178-6.361,10.178-6.361" transform="translate(0 9.03)"/><path class="a" d="M14.591,10.425C6.321,14.878,3.777,4.7,3.777,4.7a9.426,9.426,0,0,0,0,6.361c1.908,4.453,5.089,5.089,7,5.089a12.549,12.549,0,0,0,4.453-1.272H16.5l3.181.636V11.061Z" transform="translate(17.216 25.198)"/></g></g></g><text class="d" transform="translate(71 345)"><tspan x="48.5" y="40">Driver</tspan></text></g></svg>