<svg xmlns="http://www.w3.org/2000/svg" xmlns:xlink="http://www.w3.org/1999/xlink" width="127.301" height="105.041" viewBox="0 0 127.301 105.041"><defs><style>.a{fill:none;}.b{clip-path:url(#a);}.c{fill:#29a71a;}</style><clipPath id="a"><rect class="a" width="127.301" height="105.041"/></clipPath></defs><g class="b"><path class="c" d="M92.567,69.019c1.742-5.234,3.264-10.167,5.051-15a6.384,6.384,0,0,0-.349-5.609,33.642,33.642,0,1,1,63.332-20.8c3.282,18.65-9.221,36.416-27.723,39.293a33.07,33.07,0,0,1-20.344-3.125,3.2,3.2,0,0,0-2.665-.229c-5.254,1.735-10.533,3.393-15.805,5.073-.384.122-.78.207-1.5.395m8.719-8.543c3.177-1.011,6.082-1.875,8.94-2.875a3.548,3.548,0,0,1,3.256.355,27.242,27.242,0,0,0,20.77,2.961A28.25,28.25,0,0,0,155.1,28.238C151.518,9.168,128.851-.654,112.512,9.853a28.139,28.139,0,0,0-8.519,39.2,2.646,2.646,0,0,1,.28,2.639c-1.011,2.806-1.927,5.645-2.987,8.787" transform="translate(-63.132 0)"/><path class="c" d="M12.654,260.579c-.889,3.619-1.831,7.226-2.639,10.863-.28,1.258-.78,1.708-2.1,1.659-2.749-.1-2.749-.023-3.476-2.755Q2.3,262.327.166,254.31c-.064-.242-.086-.5-.166-.981,1.366,0,2.618-.061,3.856.047.277.024.636.61.73.992.943,3.828,1.839,7.668,2.843,11.909,1.061-4.078,2.1-7.766,2.948-11.5.28-1.224.829-1.489,1.942-1.474,2.534.036,2.535-.006,3.152,2.441.864,3.42,1.727,6.84,2.7,10.7l2.172-9.043c.062-.256.119-.514.185-.769.918-3.544.918-3.544,4.972-3.191a9.345,9.345,0,0,1-.162,1.237c-1.514,5.7-3.062,11.4-4.547,17.111a1.485,1.485,0,0,1-1.773,1.292c-3.667-.125-2.771.529-3.7-2.849-.878-3.195-1.6-6.433-2.385-9.652l-.282,0" transform="translate(0 -172.752)"/><path class="c" d="M264.147,272.752c-.247.137-.292.182-.34.186-3.845.359-3.843.358-5.244-3.258-.133-.342-.295-.674-.476-1.084-2.068,0-4.13-.04-6.188.036-.381.014-.758.484-1.108.778-.1.085-.1.293-.15.442-1.223,3.531-1.465,3.666-5.5,2.939,1.066-2.874,2.112-5.726,3.182-8.568,1.206-3.2,2.461-6.392,3.637-9.608.352-.963.813-1.546,1.93-1.362a3.878,3.878,0,0,0,1.266,0c1.4-.24,2.019.392,2.488,1.7,1.925,5.353,3.975,10.662,5.966,15.991.217.581.354,1.191.536,1.818m-11.817-7.6h4.652l-2.308-6.674-2.345,6.674" transform="translate(-167.191 -172.685)"/><path class="c" d="M306.8,269.2c1.35.809,3.2-.907,3.929,1.485a5.878,5.878,0,0,1,7.478-.594c2.252,1.433,3.476,4.909,2.954,7.868-.537,3.043-1.84,5.383-5.14,6.03a5.723,5.723,0,0,1-5.164-1.657v6.185H306.8Zm10.3,7.527c.017-2.661-.9-4.19-2.647-4.428a3.057,3.057,0,0,0-3.618,2.684c-.573,3.128.344,5.472,2.3,5.872.1.021.21.023.316.035,2.387.271,3.631-1.148,3.65-4.164" transform="translate(-209.245 -183.474)"/><path class="c" d="M355.391,269.272c1.4.623,3.167-.825,4.051,1.29a5.665,5.665,0,0,1,6.668-.849,6.521,6.521,0,0,1,3.574,6.262,11.669,11.669,0,0,1-.895,4.741c-1.678,3.7-5.311,4.327-9.461,1.746v6h-3.937Zm7.075,2.991a2.482,2.482,0,0,0-2.812,1.869,11.488,11.488,0,0,0-.136,4.316,2.674,2.674,0,0,0,3.1,2.48,2.828,2.828,0,0,0,2.872-2.774,9.936,9.936,0,0,0-.1-3.567,2.745,2.745,0,0,0-2.921-2.323" transform="translate(-242.383 -183.463)"/><path class="c" d="M83.435,253.735h3.773v7.082c1.834-1.947,3.762-2.594,6.05-1.929a3.883,3.883,0,0,1,3.2,3.827c.155,3.167.139,6.343.216,9.514.019.785-.247,1.205-1.095,1.139a5.959,5.959,0,0,0-1.269.006c-1.377.191-1.876-.32-1.8-1.754.115-2.271.043-4.552.018-6.829-.021-1.908-.627-2.724-2.03-2.836-1.83-.146-2.689.49-3.032,2.442a20.131,20.131,0,0,0-.2,3.155c-.029,1.847-.008,3.694-.008,5.676H83.435Z" transform="translate(-56.904 -173.052)"/><path class="c" d="M129.985,273.917a4.4,4.4,0,0,1,2.926-4.178,10.273,10.273,0,0,1,7.731.012,3.239,3.239,0,0,1,2.233,3.294c-.037,3.522-.011,7.044-.011,10.7-1.184-.389-2.918.949-3.933-1.056a7.528,7.528,0,0,1-6.3,1.126,3.935,3.935,0,0,1-3.132-4.028,3.764,3.764,0,0,1,2.988-3.959c1.521-.4,3.134-.439,4.662-.815A2.941,2.941,0,0,0,138.8,273.8c.182-.3-.273-1.436-.509-1.458-1.192-.111-3.165-.41-3.479.143-1.24,2.184-3.009,1.31-4.823,1.434m8.772,3.2c-1.232.227-2.475.393-3.684.7a1.732,1.732,0,0,0-1.465,1.955c.086,1.094.794,1.347,1.73,1.432,2.665.24,3.757-1.027,3.419-4.085" transform="translate(-88.322 -183.456)"/><path class="c" d="M217.2,274.457c-1.01,0-1.9.045-2.778-.021-.359-.026-.906-.2-1.016-.462-.741-1.738-2.193-1.336-3.507-1.19a1.282,1.282,0,0,0-.871.873,1.347,1.347,0,0,0,.624,1.1,17.583,17.583,0,0,0,2.553.774c.711.2,1.43.364,2.137.571,2.189.641,3.178,1.653,3.283,3.336a4.276,4.276,0,0,1-2.911,4.727,9.616,9.616,0,0,1-7.258-.079,4.214,4.214,0,0,1-2.84-4.362h3.453c1.052,2.022,1.97,2.61,3.912,2.116.63-.16,1.108-.917,1.655-1.4-.433-.457-.785-1.134-1.315-1.329-1.426-.525-2.935-.817-4.4-1.25-2.075-.614-3.114-1.788-3.15-3.474a3.862,3.862,0,0,1,3.087-4.079,19.244,19.244,0,0,1,6.214-.026c1.969.316,3.073,2.091,3.124,4.176" transform="translate(-139.551 -184.173)"/><path class="c" d="M183.346,272.689c.159.19.218.227.223.272.377,2.994.337,3.039-2.616,3.015-3.124-.024-4.205-1.033-4.284-4.152-.06-2.379-.012-4.761-.012-7.237l-2.225-.285v-2.64l2.232-.18v-3.989h4.106v3.965l2.627.2c.621,2.538.6,2.566-2.568,2.932,0,2.379-.04,4.793.049,7.2.011.312.642.73,1.061.866a4.463,4.463,0,0,0,1.408.034" transform="translate(-118.965 -175.615)"/><path class="c" d="M175.179,88.4a28.556,28.556,0,0,1-12.89-5.594A36.609,36.609,0,0,1,151.73,70.09c-2.226-4.462-1.528-8.814,1.634-11.8,2.145-2.024,4.93-1.519,6.079,1.121.652,1.5,1.142,3.078,1.913,4.509a2.884,2.884,0,0,1-.54,3.845c-2.373,2.343-1.739,2.533-.215,4.781a22,22,0,0,0,9.31,7.647,2.134,2.134,0,0,0,3.018-.722c.426-.607.94-1.156,1.322-1.787.83-1.372,1.9-1.486,3.241-.805,1.741.883,3.489,1.758,5.278,2.535a2.131,2.131,0,0,1,1.322,2.683c-.681,3.889-3.829,6.363-8.912,6.3" transform="translate(-102.598 -38.91)"/></g></svg>