<svg xmlns="http://www.w3.org/2000/svg" width="24" height="24" viewBox="0 0 24 24"><defs><style>.a{opacity:0.797;}.b{fill:#fff;}</style></defs><g transform="translate(-259.362 -306.348)"><path class="a" d="M533.928,670.913a12,12,0,1,0,12,12A12.012,12.012,0,0,0,533.928,670.913Z" transform="translate(-262.565 -364.565)"/><g transform="translate(262.976 311.078)"><circle class="b" cx="1.928" cy="1.928" r="1.928" transform="translate(6.096 6.096)"/><path class="b" d="M6.217,2l-1.1,1.2H3.2A1.208,1.208,0,0,0,2,4.41v7.229a1.208,1.208,0,0,0,1.2,1.2h9.638a1.208,1.208,0,0,0,1.2-1.2V4.41a1.208,1.208,0,0,0-1.2-1.2h-1.91L9.831,2Zm1.807,9.036a3.012,3.012,0,1,1,3.012-3.012A3.013,3.013,0,0,1,8.024,11.036Z" transform="translate(0 0)"/></g></g></svg>