<svg xmlns="http://www.w3.org/2000/svg" viewBox="0 0 606.18 411.35"><defs><style>.cls-1{fill:#ebebeb;}.cls-2{fill:#263238;}.cls-3{fill:#dbdbdb;}.cls-4{fill:#a6a6a6;}.cls-5{fill:#ad6359;}.cls-6{fill:#37474f;}.cls-7{fill:#ffc727;}.cls-8{opacity:0.1;isolation:isolate;}.cls-9{fill:#455a64;}.cls-10{fill:#ff9abb;}.cls-11{fill:#c7c7c7;}.cls-12{fill:#fff;}</style></defs><title>colaborador3</title><g id="Layer_2" data-name="Layer 2"><g id="Layer_3" data-name="Layer 3"><g id="Layer_2-2" data-name="Layer 2"><g id="Ilustración"><g id="Sombra"><ellipse id="Elipse_592" data-name="Elipse 592" class="cls-1" cx="303.02" cy="380.14" rx="299.21" ry="31.22"/></g><g id="Piso"><path id="Trazado_5371" data-name="Trazado 5371" class="cls-2" d="M0,296.81l75.76-.33,75.78-.12,151.54-.23,151.55.22,75.77.13,75.78.34-75.78.34-75.77.13-151.55.24-151.54-.24-75.78-.13Z"/></g><g id="Personaje_izquierda" data-name="Personaje izquierda"><path id="Trazado_5372" data-name="Trazado 5372" class="cls-3" d="M258,213.37l3.19,19.15,21.64,116.79h3.48L270.59,232.52l-2.31-19.15Z"/><path id="Trazado_5373" data-name="Trazado 5373" class="cls-4" d="M268.29,213.37H258l3.19,19.15h9.38Z"/><path id="Trazado_5374" data-name="Trazado 5374" class="cls-3" d="M190.13,349.31h3.48l21.62-116.79,3.19-19.15H208.17l-2.32,19.15Z"/><path id="Trazado_5375" data-name="Trazado 5375" class="cls-4" d="M208.17,213.37l-2.32,19.15h9.38l3.19-19.15Z"/><path id="Trazado_5376" data-name="Trazado 5376" class="cls-3" d="M125.27,349.31h3.47l21.63-116.79,3.2-19.15H143.26l-2.32,19.15Z"/><path id="Trazado_5377" data-name="Trazado 5377" class="cls-4" d="M141,232.52h9.38l3.2-19.15H143.26Z"/><path id="Trazado_5378" data-name="Trazado 5378" class="cls-3" d="M130.8,222.37H289.23V205.68H229.92L210,89.69H136.83Z"/><path id="Trazado_5379" data-name="Trazado 5379" class="cls-4" d="M130.8,222.37h8.63l5.63-132.68h-8.23Z"/><path id="Trazado_5380" data-name="Trazado 5380" class="cls-2" d="M181.51,43.41c-3.16,12.46-9,26.92-6.23,40,2.28,10.21,9.8,18.36,18.08,24.22,18.22,13,46.09,19.93,64.19,2.91,7.24-6.8,11.6-23.17,3.55-31.14-4.13-4.09-9.68-6-14.77-8.47a23.5,23.5,0,0,1-13-15.75c-3.74-14.24-.56-23.42,1.09-37.64a10.21,10.21,0,0,0-1.9-8,18.24,18.24,0,0,0-7.34-6.23A17.9,17.9,0,0,0,217,.06c-6.32-.62-13.43,3.86-18.95,6.43s-8.59,5.91-10.21,11.92C185.61,26.62,183.63,35,181.51,43.41Z"/><path id="Trazado_5381" data-name="Trazado 5381" class="cls-2" d="M178.72,49c3.64-11.3,7.48-22.43,11.31-33.64h.12c-2.83,9.31-5.56,18.69-8.48,27.92s-6.51,18.22-8.62,27.53c-4.7,20.89,15.13,33.91,33.16,36.5.83.12.54,1.42-.28,1.24-15.78-2.82-33.4-12-34.63-30C170.58,68.75,175.76,58.23,178.72,49Z"/><path id="Trazado_5382" data-name="Trazado 5382" class="cls-2" d="M233.7,16.1a.17.17,0,1,1,.34.08c-1.84,11.65-5.09,25-.58,36.44a29.92,29.92,0,0,0,11.09,13.8c4,2.64,8.47,3.73,12.88,5.57,16.95,7.06,12.25,31.08-2.5,37.74-.31.14-.56-.37-.24-.53,10.53-5.37,16.19-17.88,10.82-29-4.33-9-16.19-8.84-23.46-14.68C227.08,53.44,229.91,32.8,233.7,16.1Z"/><path id="Trazado_5383" data-name="Trazado 5383" class="cls-5" d="M385.32,333.05c-2.92,1.72-93,20.55-96.91,19.11-1.42-.55-5-13.5-8.79-29.29q-1.25-5.13-2.49-10.52c-5.35-23.26-10.46-48-10.46-48l60.27-12.68,8.8,48.42,1.95,10.63s37.72,8.22,41.82,10.26S388.28,331.36,385.32,333.05Z"/><path id="Trazado_5384" data-name="Trazado 5384" class="cls-2" d="M281.09,328.86c3.22,12.95,6,22.79,7.33,23.27,3.89,1.41,94-17.44,96.92-19.09s-1.76-10.18-5.83-12.25c-2.5-1.24-17.86-4.87-29.23-7.47,9.89,2.36,28.47,9.1-9.89,11.87C308.72,327.62,287.83,328.59,281.09,328.86Z"/><path id="Trazado_5385" data-name="Trazado 5385" class="cls-5" d="M304.63,376.36c-3.27.91-95.19-3.85-98.58-6.23-.74-.52.1-12.88,1.15-24,.77-8.27,20.85-65.61,20.85-65.61l61.5,3L264.3,342.45s34.37,17.57,37.81,20.6S307.9,375.42,304.63,376.36Z"/><path id="Trazado_5386" data-name="Trazado 5386" class="cls-2" d="M206.05,370.08c3.39,2.41,95.3,7.15,98.59,6.23s.9-10.29-2.49-13.31c-1.62-1.42-9.89-6-18.38-10.43,10.58,5.94,27.3,19.21-76.76-4.44C206.07,358.67,205.36,369.6,206.05,370.08Z"/><path id="Trazado_5387" data-name="Trazado 5387" class="cls-6" d="M161.42,197.33c18.37,20.42,79.87,4.23,83.55,12.46C248.22,217,206.2,332,206.2,332l67.27,7.25s58-127.06,37.28-163.74c-11.21-19.78-60.56-11.92-90.41-15.54-9-1.09-13.2-19.62-13.2-19.62h-53.2S140.47,174,161.42,197.33Z"/><path id="Trazado_5388" data-name="Trazado 5388" class="cls-2" d="M292.07,164.08l-56.51,43.19c-18.68-.4-59.79,6.1-74.15-9.89-21-23.33-7.48-57.07-7.48-57.07h53.23s4.24,18.54,13.21,19.62C241.22,162.44,271.79,159.31,292.07,164.08Z"/><path id="Trazado_5389" data-name="Trazado 5389" class="cls-2" d="M276,324.19c-1.86-.58-19.28-2.49-23.13-2.95-7.7-.81-31.92-3.09-36.3-3.08a.13.13,0,0,0-.08.15h0s0,.06.08.06c3.81.8,19.28,2.61,23.12,3,7.7.8,34.15,3.37,36.31,3.16a.18.18,0,0,0,.11-.22h0A.2.2,0,0,0,276,324.19Z"/><path id="Trazado_5390" data-name="Trazado 5390" class="cls-2" d="M253.13,203.05c-4.32-2.15-37.09-1.09-60.59-3.29-7.66-.71-15.35-2.36-21.18-7.36a35.06,35.06,0,0,1-10.45-17.24c-2.26-8-2-16.42-1.65-24.64.09-2,.24-4.05.37-6.07a.14.14,0,0,0-.13-.1.11.11,0,0,0-.09.1c-1.78,14.72-3.15,31.14,6.43,44A30.73,30.73,0,0,0,183,199.71c14.13,3.74,67.48,2.83,69.36,4.23,2.25,1.74-32.22,106.64-32.9,108.65-.12.37.53.63.69.25C223.49,304.68,256.89,204.89,253.13,203.05Z"/><path id="Trazado_5391" data-name="Trazado 5391" class="cls-2" d="M313.12,179c-3.16-8-10.4-13.05-21-15-.17,0-.16.24,0,.28,9.28,2.71,15.91,6.45,19.56,14.29,1.7,3.66,2.59,8.72,3,15.68,2.2,34.34-27.78,112.33-28.38,113.68a.11.11,0,0,0,0,.14h.15C290.66,301,326.2,212.2,313.12,179Z"/><path id="Trazado_5392" data-name="Trazado 5392" class="cls-6" d="M337.43,296.85l-50.92,10.84s40.15-119.84,21.29-135.31c-5.23-4.24-16.63-5.78-30.17,0-20.22,8.72-43.6,26.54-65.7,33.06-20.66,6.1-45.2.5-53.69-8.81-17.74-19.52-4.41-56.43-4.41-56.43l73.2-2.68s-1.1.89,2.39,4c0,0,43-9.76,61.73,1.66C324.94,163.76,337.43,296.85,337.43,296.85Z"/><path id="Trazado_5393" data-name="Trazado 5393" class="cls-2" d="M185.54,144.5a.13.13,0,0,0-.1-.13h0a.12.12,0,0,0-.12.13h0a41.09,41.09,0,0,1-.64,8.21,14,14,0,0,1-3.74,6.8c-4,4.07-9.76,5.46-15,7.06-.26.09-.23.59.09.53,5.84-.89,12-2.37,16.19-6.76A14.12,14.12,0,0,0,185.9,153,17.57,17.57,0,0,0,185.54,144.5Z"/><path id="Trazado_5394" data-name="Trazado 5394" class="cls-2" d="M306.57,170.09c-7.82-4.9-20.06-1.18-25.92,1.08-.13,0,0,.24,0,.2,5.39-1.94,18.81-4.88,26,.19,16.56,11.74-5.65,92-20.13,136.14-.24.68.31.51.62-.16,2.39-5.25,21.18-61,26-98C313.92,203.88,317.84,177.16,306.57,170.09Z"/><path id="Trazado_5395" data-name="Trazado 5395" class="cls-2" d="M331.63,283.31c-1.54,0-14.73,2.83-17.65,3.52-5.8,1.31-19.28,4.8-22.42,6-.08,0,0,.2,0,.2,3-.3,10.05-1.85,12.94-2.49,5.81-1.42,25.7-6.13,27.16-6.92a.17.17,0,0,0,.11-.2A.17.17,0,0,0,331.63,283.31Z"/><path id="Trazado_5396" data-name="Trazado 5396" class="cls-2" d="M304.07,168c-5.27-2.83-11.53-3.35-17.44-2.63a60.89,60.89,0,0,0-17.76,5.56c-11.9,5.45-23.25,12.09-35.16,17.51s-24.52,9.59-37.59,10c-11.21.35-25.3-1.61-32.48-11.67-11.07-15.54-4.63-42.16-4.5-43.88,0-.12-.17-.12-.2,0-8.6,32.8,2.49,45.53,9.89,50.85,5.92,4.24,14.43,5.33,20,5.79,13,1.11,26-2.06,38.07-6.87,12.35-4.92,23.93-11.52,35.76-17.59,11.29-5.79,24-11.79,36.92-8.47a34.23,34.23,0,0,1,4.31,1.48S304.14,168,304.07,168Z"/><path id="Trazado_5397" data-name="Trazado 5397" class="cls-5" d="M206.51,74.25c15.23,20.68,36.4,40.56,45.71,40.7,7.47.13,53.56-24.55,56.93-28.48,2.83-3.38-16.86-31.55-21.3-29.89-7.48,2.81-34.56,23-36.74,22.59s-20-9.28-37.77-18.68C196.37,51.42,196,59.89,206.51,74.25Z"/><path id="Trazado_5398" data-name="Trazado 5398" class="cls-5" d="M304.7,89.69c4.1-2.06,26.38-12.92,30.67-17.12s15.82-17.16,13-20.79-6.56-.1-6.56-.1,4-6.23.76-9.63-8.72,2.29-8.72,2.29,3.65-6.71.19-9.89-8.08,3.5-8.08,3.5,3.61-6-.34-7.37c-4.73-1.67-10.14,10.11-15.25,14.39-1.16,1-24.91,18-24.91,18Z"/><path id="Trazado_5399" data-name="Trazado 5399" class="cls-2" d="M326.28,37.37c-4,8.72-7.25,11.76-15.14,16.86-.14.1,0,.34.15.25,8.16-4.23,12.79-7.58,15.41-16.95C326.82,37.13,326.46,37,326.28,37.37Z"/><path id="Trazado_5400" data-name="Trazado 5400" class="cls-2" d="M334.07,43.6c-5,8.63-8.47,12-16.28,18-.12.08,0,.27.14.2,8.2-5.2,12.72-8.59,16.54-17.86C334.64,43.6,334.3,43.25,334.07,43.6Z"/><path id="Trazado_5401" data-name="Trazado 5401" class="cls-2" d="M341.32,52c-5.38,8-9.05,11.89-17.44,16.7a.17.17,0,0,0-.09.19s0,0,0,0A.17.17,0,0,0,324,69c9-4.06,13.63-8.88,17.44-16.81C341.85,51.62,341.71,51.42,341.32,52Z"/><path id="Trazado_5402" data-name="Trazado 5402" class="cls-5" d="M277.79,62.59s4.4-11.12,7.4-15.53,20.32-17,23.24-13.35c3.73,4.63-4.83,13.8-9.61,17.73,0,0,8.72,10.72,3.95,18.69S277.79,62.59,277.79,62.59Z"/><path id="Trazado_5403" data-name="Trazado 5403" class="cls-2" d="M309,35.29c.38,6.69-6.23,11.47-10.6,15.63a.56.56,0,0,0,0,.79h0a.69.69,0,0,0,.13.11c3.35,4.73,6.7,12.37,4.61,18.13a.13.13,0,0,0,.1.16h0a.17.17,0,0,0,.14,0c3.08-5.87.41-13.71-3.59-18.59,4.53-4.23,11-9.29,9.3-16.19C309.14,35.24,309,35.24,309,35.29Z"/><path id="Trazado_5404" data-name="Trazado 5404" class="cls-7" d="M272.36,64.31l26.16,35.78s-37.89,18-47.34,15.77-21-11.21-43.59-39.8c-17.91-22.61-2.82-22.11,8.63-15.55,9.43,5.32,33.4,17.57,35.33,16.81S272.36,64.31,272.36,64.31Z"/><path id="Trazado_5405" data-name="Trazado 5405" class="cls-7" d="M298.47,100.1s-34.27,16.31-45.82,16a9.46,9.46,0,0,1-1.59-.19c-9.52-2.28-21-11.3-43.6-39.86-7.91-10-9.39-15.54-7.59-17.93,2.31-3,9.81-1.24,16.2,2.34,9.4,5.36,33.41,17.62,35.33,16.82s20.9-12.94,20.9-12.94Z"/><path id="Trazado_5406" data-name="Trazado 5406" class="cls-2" d="M266.12,70.75c3.5,5.52,7.28,10.89,11.14,16.2,1.9,2.58,3.8,5.18,5.79,7.68s4.24,5.11,6.37,7.74c.08.11.28,0,.2-.13-2-2.67-3.74-5.5-5.66-8.23s-3.74-5.19-5.64-7.79c-3.88-5.28-7.76-10.55-11.8-15.68a.24.24,0,1,0-.42.24Z"/><path id="Trazado_5407" data-name="Trazado 5407" class="cls-8" d="M282.59,107.13c-10.56,4.37-23.67,9.13-29.9,8.93a8.51,8.51,0,0,1-1.59-.18c-9.52-2.29-21-11.31-43.6-39.86-5.45-6.9-7.85-11.63-8.22-14.71C213.27,69,257.31,93.21,282.59,107.13Z"/><path id="Trazado_5408" data-name="Trazado 5408" class="cls-1" d="M230.1,124.72V143.4S208,144.7,153.62,142c0,0,14.3-57.48,33.75-78.18,9.74-10.37,21-9.47,28.15-2.08,1.82,1.86,17.9,32.1,20.09,43.1C237.49,114.6,230.1,124.72,230.1,124.72Z"/><path id="Trazado_5409" data-name="Trazado 5409" class="cls-2" d="M211.62,67.73c1.65,4.63,3.22,9.29,4.65,14s2.83,9.41,4,14.22c.58,2.4,1.12,4.81,1.52,7.28a20.29,20.29,0,0,1-.19,7.57,37.32,37.32,0,0,1-6.23,13.56l.12-.38c0,3.28-.17,6.58-.23,9.89s-.25,6.57-.45,9.89c-.15-3.32-.28-6.62-.36-9.89s-.19-6.57-.2-9.89v-.18l.13-.18a35.92,35.92,0,0,0,5.89-13.08c1.15-4.7-.18-9.49-1.17-14.29s-2.31-9.51-3.55-14.26Z"/><path id="Trazado_5410" data-name="Trazado 5410" class="cls-2" d="M221.26,86.74a1.23,1.23,0,0,1-1,1.3A1.11,1.11,0,0,1,219.06,87h0a1.25,1.25,0,0,1,1-1.32,1.12,1.12,0,0,1,1.17,1.06Z"/><path id="Trazado_5411" data-name="Trazado 5411" class="cls-2" d="M224.91,100.58a1.25,1.25,0,0,1-1,1.32,1.14,1.14,0,0,1-1.17-1.06h0a1.25,1.25,0,0,1,1-1.25,1.08,1.08,0,0,1,1.17,1h0Z"/><path id="Trazado_5412" data-name="Trazado 5412" class="cls-2" d="M224.23,114.3a1.25,1.25,0,0,1-1,1.25,1.12,1.12,0,0,1-1.17-1h0a1.25,1.25,0,0,1,1-1.32,1.14,1.14,0,0,1,1.17,1.06Z"/><path id="Trazado_5413" data-name="Trazado 5413" class="cls-2" d="M219.38,125.25a1.25,1.25,0,0,1-1,1.25,1.1,1.1,0,0,1-1.17-1h0v-.08a1.24,1.24,0,0,1,1-1.32,1.12,1.12,0,0,1,1.17,1.06Z"/><path id="Trazado_5414" data-name="Trazado 5414" class="cls-2" d="M219.68,137.73a1.24,1.24,0,0,1-1,1.31,1.1,1.1,0,0,1-1.17-1v0h0a1.25,1.25,0,0,1,1-1.32,1.1,1.1,0,0,1,1.16,1v0Z"/><path id="Trazado_5415" data-name="Trazado 5415" class="cls-7" d="M199.43,56.55s7.16,35.84,8,42.9,0,46.29,0,46.29l-56.26-3s12.93-47,26.31-67.46S199.43,56.55,199.43,56.55Z"/><path id="Trazado_5416" data-name="Trazado 5416" class="cls-7" d="M212.58,58.92s11,25.25,12.89,32.14c4.58,17.13,1.7,54.91,1.7,54.91l4.48-.67-.94-20.42s7.33-8.72,5.07-19.17-15.59-37.2-18.63-42S212.58,58.92,212.58,58.92Z"/><path id="Trazado_5417" data-name="Trazado 5417" class="cls-2" d="M225.55,79.91c1.69,3.21,3.26,6.49,4.78,9.78a46.66,46.66,0,0,0-1.24-4.56.12.12,0,0,1,.1-.14h.11a21.42,21.42,0,0,1,1.49,5.73c.5,1.07,1,2.13,1.49,3.22.93,2.14,1.9,4.23,2.64,6.49a22.23,22.23,0,0,1,1.07,6.92.11.11,0,0,1-.21,0,24.61,24.61,0,0,0-1.87-6.94c-.85-2.2-1.8-4.38-2.73-6.54-2-4.58-3.9-9.17-5.71-13.92C225.4,79.9,225.47,79.85,225.55,79.91Z"/><path id="Trazado_5418" data-name="Trazado 5418" class="cls-9" d="M291.32,113.88s-5.64,7.7-.07,11.11,9.88-5.08,9.88-5.08Z"/><rect id="Rectángulo_4164" data-name="Rectángulo 4164" class="cls-6" x="296.22" y="107.87" width="2.67" height="13.4" transform="translate(44.53 308.59) rotate(-58.54)"/><rect id="Rectángulo_4165" data-name="Rectángulo 4165" class="cls-6" x="296.74" y="107.15" width="2.67" height="13.45" transform="translate(44.93 308.12) rotate(-58.41)"/><path id="Trazado_5419" data-name="Trazado 5419" class="cls-6" d="M293.07,109.22l3.73,2.27,10.69-21.94-1.39-.76Z"/><path id="Trazado_5420" data-name="Trazado 5420" class="cls-5" d="M186.35,75.51c2,25.91,12.53,54.59,26.08,60.74s54.36.38,67-1.9c4.85-.86.49-41.8-4.7-40.81-8.81,1.64-47.86,11.82-50.39,10.34-1.57-.94-13.39-16.29-22.71-31.5C189.51,52.65,185.72,67.45,186.35,75.51Z"/><path id="Trazado_5421" data-name="Trazado 5421" class="cls-5" d="M326.59,83.46c1.12,4.81-11,6.58-11,6.58a8.9,8.9,0,0,1,4.7,4c1.7,3.34-2.82,7.47-2.82,7.47a11.14,11.14,0,0,1,4.23,5c1.31,3.37-2.63,8.18-2.63,8.18a9.75,9.75,0,0,1,1,6.8c-1.56,6.11-10.76,9-16.59,11s-24.16,1.91-27.67,2.26L263.21,97.47s23.66-16,30.86-17.31C300.22,79.06,324.87,76.16,326.59,83.46Z"/><path id="Trazado_5422" data-name="Trazado 5422" class="cls-2" d="M315.5,90c-6.71-.4-13.49.82-20,2.06a.1.1,0,0,0-.12.1h0a.1.1,0,0,0,.07.12h0c6.48-1.24,13.48-.91,20-2a.15.15,0,0,0,.16-.15.13.13,0,0,0-.11-.16h0Z"/><path id="Trazado_5423" data-name="Trazado 5423" class="cls-2" d="M317.28,101.11a17,17,0,0,0-4.52.77c-1.57.39-3.14.8-4.71,1.25-3.14.85-6.23,1.79-9.32,2.81a.13.13,0,0,0-.12.12.12.12,0,0,0,.1.12h0c3.11-.87,6.23-1.68,9.39-2.4l4.75-1.06a22.6,22.6,0,0,0,4.43-1.17.26.26,0,0,0,.08-.34A.25.25,0,0,0,317.28,101.11Z"/><path id="Trazado_5424" data-name="Trazado 5424" class="cls-2" d="M319.1,114.8a12.36,12.36,0,0,0-4,.9c-1.42.43-2.83.85-4.24,1.24-2.83.83-5.65,1.65-8.47,2.36a.12.12,0,0,0-.12.11.12.12,0,0,0,.1.12h0l8.72-2.14,4.23-1.12a11.46,11.46,0,0,0,3.74-1.41S319.09,114.83,319.1,114.8Z"/><path id="Trazado_5425" data-name="Trazado 5425" class="cls-2" d="M286.31,83.46a32.11,32.11,0,0,1,6.12-3.2,28.28,28.28,0,0,1,6.8-1.41c2.29-.24,4.59-.41,6.89-.45a47.93,47.93,0,0,1,6.88.28c-2.29.14-4.56.32-6.84.53s-4.55.42-6.82.7a39,39,0,0,0-6.6,1.06A61.88,61.88,0,0,0,286.31,83.46Z"/><path id="Trazado_5426" data-name="Trazado 5426" class="cls-7" d="M262.84,94.42l5.77,44.92s-46.46,5-58.38-2.4S187.58,98.54,186,81.4s3.53-29.89,18.59-7,19.47,28.16,20.78,28.26S262.84,94.42,262.84,94.42Z"/><path id="Trazado_5427" data-name="Trazado 5427" class="cls-2" d="M268.05,139.18c-7,.62-13.93,1.15-20.93,1.25s-24.72-.23-31.6-1.84a17.64,17.64,0,0,1-8.28-5,37.37,37.37,0,0,1-5.78-8c-1.69-2.95-3.21-6-4.72-9-1.71-3.48-3.32-7-4.91-10.5s-3.38-7.48-4.8-11.21c0-.13-.26-.08-.21,0,1.24,3.37,2.34,6.77,3.65,10.12.53,1.42,1.1,2.75,1.67,4.12-.38-.48-.74-1-1.12-1.41-1.42-1.71-3-3.38-4.24-5.16a.12.12,0,0,0-.14-.08h0a.09.09,0,0,0-.07.13h0a.08.08,0,0,0,0,.07c1.41,1.7,2.63,3.55,3.88,5.36.61.88,1.25,1.76,1.9,2.62l.93,1.25.13.17c.4.92.78,1.83,1.24,2.74,1.42,3.25,3,6.47,4.6,9.64a45.39,45.39,0,0,0,5.33,8.47,19.9,19.9,0,0,0,7.59,6.08c6.23,2.49,24.5,2.92,31.73,2.83A182.31,182.31,0,0,0,268.14,140a.41.41,0,0,0,.34-.41.39.39,0,0,0-.29-.45A.33.33,0,0,0,268.05,139.18Z"/><path id="Trazado_5428" data-name="Trazado 5428" class="cls-2" d="M232,101.3c-1.06.18-4.92,1.32-6.06,1.09a4.32,4.32,0,0,1-2.62-2l-2.14-2.82c-.89-1.25-1.81-2.36-2.7-3.53a.38.38,0,0,0-.1-.29,4.25,4.25,0,0,1-.33-.86l-.72-1.69c-.49-1.11-1-2.18-1.53-3.28-.07-.12-.25,0-.2.13.51,1.12.94,2.27,1.42,3.41l.41,1.15c-.16-.19-.3-.39-.44-.56-.72-.93-3-3.74-4.36-5.66a.11.11,0,1,0-.19.11s0,0,0,0c1.24,1.68,3.95,5.65,4.71,6.82,1.4,2.15,2.95,4.24,4.48,6.4,1.16,1.58,2.33,3.57,4.54,3.61a26.8,26.8,0,0,0,6-1.72.21.21,0,0,0,0-.31A.21.21,0,0,0,232,101.3Z"/><path id="Trazado_5429" data-name="Trazado 5429" class="cls-2" d="M258.45,118.05c-.36-3.25-.77-6.5-1.25-9.75s-1.24-6.7-1.54-10.07c0-.13-.24-.1-.21,0,.39,3.35.43,6.74.74,10.11s.63,6.52,1,9.77c.76,6.56,1.41,13.18,2.68,19.67,0,.2.35.17.33,0C260,131.21,259.18,124.57,258.45,118.05Z"/><path id="Trazado_5430" data-name="Trazado 5430" class="cls-5" d="M197.73,58.71c.14,1.42,5.72,11.43,12.18,11.92,2.12.17,3.51-11.3,3.51-11.3l.28-.84L217.84,47,205,36.32l-1.84-1.44s-.94,3.24-2,7.26a3.58,3.58,0,0,1-.16.56,2.92,2.92,0,0,1-.2.66c-.17.6-.35,1.25-.51,1.83s-.25.92-.35,1.41a14.16,14.16,0,0,1-.38,1.42A77.27,77.27,0,0,0,197.73,58.71Z"/><path id="Trazado_5431" data-name="Trazado 5431" class="cls-2" d="M201.14,42.15A24.51,24.51,0,0,0,213.7,58.54L217.84,47,205,36.37l-1.84-1.49S202.25,38.13,201.14,42.15Z"/><path id="Trazado_5432" data-name="Trazado 5432" class="cls-5" d="M236,28.26c1.62,21.4-11,24.8-15.62,25.15-4.23.33-18.51.86-22.34-20.27S203.71,4.49,213.2,3.25,234.39,6.85,236,28.26Z"/><path id="Trazado_5433" data-name="Trazado 5433" class="cls-2" d="M231.93,22.42a8.59,8.59,0,0,1-1.49-.2,2.37,2.37,0,0,1-1.4-.5.75.75,0,0,1-.08-.93,2,2,0,0,1,1.86-.59,2.87,2.87,0,0,1,1.82.87.8.8,0,0,1-.08,1.13l0,0a.8.8,0,0,1-.61.19Z"/><path id="Trazado_5434" data-name="Trazado 5434" class="cls-2" d="M217.74,23.66a11.43,11.43,0,0,0,1.41-.42,2.56,2.56,0,0,0,1.42-.68.8.8,0,0,0-.08-.94,1.87,1.87,0,0,0-1.91-.31,2.71,2.71,0,0,0-1.66,1.12.81.81,0,0,0,.25,1.12h0a.78.78,0,0,0,.56.13Z"/><path id="Trazado_5435" data-name="Trazado 5435" class="cls-2" d="M221.44,28.81s-.11.09-.1.15c.18,1.41.15,3.16-1.12,3.74v.07C221.74,32.47,221.74,30.23,221.44,28.81Z"/><path id="Trazado_5436" data-name="Trazado 5436" class="cls-2" d="M219.91,27.4c-2.37,0-2.11,4.79.09,4.75S221.89,27.4,219.91,27.4Z"/><path id="Trazado_5437" data-name="Trazado 5437" class="cls-2" d="M219,27.76c-.4.29-.79.8-1.25.88a1.9,1.9,0,0,1-1.42-.84h-.07a1.72,1.72,0,0,0,1.42,1.91c1,.08,1.4-.79,1.65-1.7C219.32,27.88,219.15,27.64,219,27.76Z"/><path id="Trazado_5438" data-name="Trazado 5438" class="cls-2" d="M229.48,28a.11.11,0,0,1,.12.11h0c0,1.41.31,3.16,1.67,3.58v.07C229.61,31.64,229.27,29.41,229.48,28Z"/><path id="Trazado_5439" data-name="Trazado 5439" class="cls-2" d="M230.72,26.41c2.35-.29,2.83,4.43.6,4.7S228.74,26.67,230.72,26.41Z"/><path id="Trazado_5440" data-name="Trazado 5440" class="cls-2" d="M231.7,26.63c.39.21.8.63,1.25.62s.83-.55,1.13-1.07h0c.13.91-.11,1.88-1,2.12s-1.41-.5-1.72-1.41C231.47,26.8,231.57,26.55,231.7,26.63Z"/><path id="Trazado_5441" data-name="Trazado 5441" class="cls-2" d="M222.18,40.59c.35.34.71.81,1.25.85A3.63,3.63,0,0,0,225,41s.09,0,0,.09a2,2,0,0,1-1.85.82A1.58,1.58,0,0,1,222,40.71a.13.13,0,0,1,.14-.13Z"/><path id="Trazado_5442" data-name="Trazado 5442" class="cls-2" d="M228,34.88s.45,2.16.53,3.2c0,.1-.25.16-.6.2h0A5,5,0,0,1,223,36.76c-.09-.09,0-.21.14-.16a7.28,7.28,0,0,0,4.58,1c0-.28-.91-3.74-.74-3.74a9.67,9.67,0,0,1,2.38.37c-.83-4.56-2.36-8.93-3.12-13.46a.16.16,0,0,1,.15-.16.14.14,0,0,1,.12.07,74.67,74.67,0,0,1,4,14.39C230.54,35.64,228.38,35,228,34.88Z"/><path id="Trazado_5443" data-name="Trazado 5443" class="cls-2" d="M227.64,38a6,6,0,0,1-2.17,2,2.69,2.69,0,0,1-1.55.27c-1.25-.18-1.34-1.24-1.25-2.15a5.64,5.64,0,0,1,.37-1.41A7.57,7.57,0,0,0,227.64,38Z"/><path id="Trazado_5444" data-name="Trazado 5444" class="cls-10" d="M225.47,40.12a2.73,2.73,0,0,1-1.57.26c-1.18-.18-1.32-1.24-1.24-2.14A2.65,2.65,0,0,1,225.47,40.12Z"/><path id="Trazado_5445" data-name="Trazado 5445" class="cls-2" d="M199.2,31.91c3.46.26,4.24-7,4.24-7s7.06,0,9.36-10.11a15.67,15.67,0,0,1-3.12,8.38s12.46-1.32,17.66-11.71c0,0-2.09,5.29-4.05,7.17A14.55,14.55,0,0,0,231,13s2.17,6,3.84,7.66c0,0-.51-21.72-20.64-19.42,0,0-12.6.85-17.12,10.81S199.2,31.91,199.2,31.91Z"/><path id="Trazado_5446" data-name="Trazado 5446" class="cls-5" d="M201.66,32.58S197,25.83,194,27.48s.36,11.39,3.91,12.7a3.65,3.65,0,0,0,4.84-1.74h0a.38.38,0,0,1,0-.15Z"/><path id="Trazado_5447" data-name="Trazado 5447" class="cls-2" d="M195.05,30.33a9.19,9.19,0,0,1,4.69,5.79,2,2,0,0,0-2.73-.76h0a1.59,1.59,0,0,0-.27.18s0,.16.08.13a2.24,2.24,0,0,1,2.49.81,10.22,10.22,0,0,1,1.16,2c.11.22.52.11.44-.14h0c.07-3.24-2.37-7.72-5.8-8.11Z"/><path id="Trazado_5448" data-name="Trazado 5448" class="cls-1" d="M213.85,58.15l-3.67,9.69-12.2-12-3.3,4S206.79,79,206.79,78.11l3.81-8.35,5.82,5.65-.74-14.49Z"/><path id="Trazado_5449" data-name="Trazado 5449" class="cls-2" d="M216.47,68.21c-.2-2.38-.35-4.78-.66-7.16a.09.09,0,0,0-.08-.08.11.11,0,0,0-.09.08c-.42,2.32.4,11.43.43,13.63h0c-.24-.25-5.4-5-5.45-4.91-.83,1.33-3.62,7.47-3.81,8-1.93-3.07-10-15-12.22-17.86a.09.09,0,0,0-.12,0,.14.14,0,0,0,0,.09c1.69,3.22,12.13,19,12.27,18.94a91.07,91.07,0,0,0,4-8.84,63.23,63.23,0,0,0,6.11,6Q216.85,72.15,216.47,68.21Z"/></g><g id="Mesa"><rect id="Rectángulo_4166" data-name="Rectángulo 4166" class="cls-6" x="57.3" y="141.19" width="399.87" height="14.97"/><rect id="Rectángulo_4167" data-name="Rectángulo 4167" class="cls-9" x="57.3" y="150.32" width="399.87" height="12.34"/><path id="Trazado_5450" data-name="Trazado 5450" class="cls-9" d="M72.68,366.36h-6.1L84.44,162.74h15.73Z"/><path id="Trazado_5451" data-name="Trazado 5451" class="cls-2" d="M100.17,162.75l-1.9,13.61h-15l1.19-13.61Z"/><path id="Trazado_5452" data-name="Trazado 5452" class="cls-9" d="M441.8,366.36H448L430,162.74H414.32Z"/><path id="Trazado_5453" data-name="Trazado 5453" class="cls-2" d="M414.32,162.75l1.84,13.61h15.08l-1.19-13.61Z"/></g><g id="Laptop"><rect id="Rectángulo_4168" data-name="Rectángulo 4168" class="cls-3" x="251.94" y="137.54" width="81.26" height="3.65"/><rect id="Rectángulo_4169" data-name="Rectángulo 4169" class="cls-11" x="292.29" y="137.54" width="40.9" height="3.65"/><path id="Trazado_5454" data-name="Trazado 5454" class="cls-3" d="M296.7,141.19h79.19L386.24,87.4H307.06Z"/><path id="Trazado_5455" data-name="Trazado 5455" class="cls-12" d="M338.07,114.29a4.32,4.32,0,0,0,3.81,4.78h0a2.71,2.71,0,0,0,.57,0,5.31,5.31,0,0,0,5.23-4.8,4.32,4.32,0,0,0-3.79-4.8h0a5.23,5.23,0,0,0-.56,0A5.38,5.38,0,0,0,338.07,114.29Z"/></g></g></g></g></g></svg>