<svg xmlns="http://www.w3.org/2000/svg" viewBox="0 0 577 410.87"><defs><style>.cls-1{fill:#dbdbdb;}.cls-2{fill:#a6a6a6;}.cls-3{fill:#eb9481;}.cls-4{fill:#ebebeb;}.cls-5{fill:#455a64;}.cls-6{fill:#37474f;}.cls-7{fill:#263238;}.cls-8{fill:#fff;}.cls-9{fill:#efefef;}.cls-10{opacity:0.1;isolation:isolate;}.cls-11{fill:#e8e8e8;}.cls-12{fill:#c7c7c7;}.cls-13{fill:none;}</style></defs><title>colaborador4</title><g id="Layer_2" data-name="Layer 2"><g id="Layer_3" data-name="Layer 3"><g id="Layer_2-2" data-name="Layer 2"><g id="Layer_2-2-2" data-name="Layer 2-2"><g id="Personaje_Derecha" data-name="Personaje Derecha"><path id="Trazado_5456" data-name="Trazado 5456" class="cls-1" d="M437.94,237.8l-3.09,19.5-21,119h-3.38l15.27-119L428,237.85Z"/><path id="Trazado_5457" data-name="Trazado 5457" class="cls-2" d="M428,237.8h9.94l-3.09,19.5h-9.11Z"/><path id="Trazado_5458" data-name="Trazado 5458" class="cls-1" d="M503.92,376.3h-3.38l-21-119-3.08-19.49h9.94l2.26,19.5Z"/><path id="Trazado_5459" data-name="Trazado 5459" class="cls-2" d="M486.34,237.8l2.26,19.5h-9.12l-3.08-19.5Z"/><path id="Trazado_5460" data-name="Trazado 5460" class="cls-1" d="M566.81,376.3h-3.39l-21-119-3.11-19.49h9.94l2.26,19.5Z"/><path id="Trazado_5461" data-name="Trazado 5461" class="cls-2" d="M551.57,257.3h-9.1l-3.1-19.5h9.94Z"/><path id="Trazado_5462" data-name="Trazado 5462" class="cls-1" d="M561.46,247H407.65V230h57.58l19.34-118.15h71Z"/><path id="Trazado_5463" data-name="Trazado 5463" class="cls-2" d="M561.46,247h-8.38l-5.45-135.15h8Z"/><path id="Trazado_5464" data-name="Trazado 5464" class="cls-3" d="M411.93,399.43c3.12.32,88.21-20.95,90.88-23.84.34-.32-1.37-8.43-3.8-19.49v-.23c-1.53-7-26.31-63.76-26.31-63.76l-55.17,16.12,25.06,52.66s-10.39,7.87-19.35,15.33h0A124.37,124.37,0,0,0,412,386.3C409.42,389.77,408.8,399.14,411.93,399.43Z"/><path id="Trazado_5465" data-name="Trazado 5465" class="cls-4" d="M411.93,399.43c3.11.32,88.21-20.95,90.89-23.84.34-.33-1.36-8.43-3.81-19.49v-.22c-.55-2.61-4.39-12.15-8.92-23-9.08,2.54-41.61,11.79-53.49,15.63L442.54,361s-10.39,7.87-19.29,15.33h0A124.38,124.38,0,0,0,412,386.36C409.42,389.77,408.8,399.14,411.93,399.43Z"/><path id="Trazado_5466" data-name="Trazado 5466" class="cls-2" d="M411.65,399.86c3.21.29,88.36-21.21,91.11-24.18,1.06-1.13-.83-15.23-5.49-30.23l-54.85,14s-28,23.23-30.72,26.86S408.39,399.57,411.65,399.86Z"/><path id="Trazado_5467" data-name="Trazado 5467" class="cls-5" d="M502.71,375.68c-1.83,2-40.56,12.25-66.94,18.7-13.06,3.22-23.11,5.53-24.19,5.43-3.23-.3-2.65-9.95,0-13.54a129.76,129.76,0,0,1,11-10.15c8.86-7.69,19.77-16.74,19.77-16.74l54.86-13.95C501.93,360.45,503.82,374.56,502.71,375.68Z"/><path id="Trazado_5468" data-name="Trazado 5468" class="cls-6" d="M435.84,394.44c-13.06,3.23-23.11,5.52-24.19,5.42-3.21-.29-2.65-9.93,0-13.54a136.47,136.47,0,0,1,11-10.15Z"/><path id="Trazado_5469" data-name="Trazado 5469" class="cls-7" d="M412,396c14.19-4,71.79-18.6,86.09-21.32.11,0,.13,0,0,.08-14,4.32-71.68,18.4-86.06,21.57C411.8,396.26,411.75,396.07,412,396Z"/><path id="Trazado_5470" data-name="Trazado 5470" class="cls-7" d="M416.41,381.73a11.3,11.3,0,0,1,9.38,1.45,11.88,11.88,0,0,1,5,7.19.09.09,0,0,1-.09.09h0a.09.09,0,0,1-.07-.09,13.56,13.56,0,0,0-14.2-8.5C416.34,381.93,416.3,381.77,416.41,381.73Z"/><path id="Trazado_5471" data-name="Trazado 5471" class="cls-7" d="M438.26,362.07c5.69-1.52,12.79-1.07,17.47,2.88a.23.23,0,0,1-.22.39,77.43,77.43,0,0,0-17.18-2.54.39.39,0,0,1-.25-.48h0A.38.38,0,0,1,438.26,362.07Z"/><path id="Trazado_5472" data-name="Trazado 5472" class="cls-7" d="M434.25,365c5.7-1.52,12.81-1.08,17.49,2.88a.23.23,0,0,1-.23.38,78,78,0,0,0-17.18-2.53.39.39,0,0,1-.26-.47v0a.4.4,0,0,1,.18-.24Z"/><path id="Trazado_5473" data-name="Trazado 5473" class="cls-7" d="M430.26,367.92c5.7-1.52,12.8-1.07,17.48,2.88a.22.22,0,0,1-.22.37,78.53,78.53,0,0,0-17.16-2.54.37.37,0,0,1-.36-.38h0a.39.39,0,0,1,.26-.37Z"/><path id="Trazado_5474" data-name="Trazado 5474" class="cls-7" d="M426.25,370.84c5.7-1.52,12.81-1.09,17.49,2.88a.22.22,0,0,1-.23.37,78.8,78.8,0,0,0-17.19-2.54.39.39,0,0,1-.26-.47A.35.35,0,0,1,426.25,370.84Z"/><path id="Trazado_5475" data-name="Trazado 5475" class="cls-7" d="M440.87,362.25l58.56-16.49s-54.65-120.22-50.51-126.37c2.1-3.09,57-5.69,74-21.78C545,176.7,529,146.32,529,146.32h-61.4s1.11,13.44-1.21,15.55c-1.53,1.43-74.43,10.07-81.71,36.25C375.74,230.2,440.87,362.25,440.87,362.25Z"/><path id="Trazado_5476" data-name="Trazado 5476" class="cls-6" d="M438.06,349.26a35.83,35.83,0,0,1,4.84-1.92c1.71-.62,3.41-1.27,5.1-1.82,3.38-1.16,6.75-2.26,10.15-3.29,6.87-2.07,13.73-4.11,20.56-6,3.63-1,11.29-3.12,11.78-3,.23,0,.29.44.08.5-6.67,2.54-13.44,4.74-20.2,7S456.85,345,450,346.89c-1.9.52-3.81,1-5.72,1.44a44.73,44.73,0,0,1-6,1.44C438.05,349.75,437.86,349.37,438.06,349.26Z"/><path id="Trazado_5477" data-name="Trazado 5477" class="cls-6" d="M438.28,214.42a9.16,9.16,0,0,1,4.6-1.65l26.42-5.5c8.22-1.72,16.53-3.29,24.68-5.22,6.79-1.57,13.72-3.67,19.47-7.74A29.91,29.91,0,0,0,525,177.36a55.65,55.65,0,0,0,1-21.28c-.21-1.71-.56-3.44-.92-5.08,0-.12.17-.17.2,0,2.61,13.12,3.26,28.44-5.87,39.25-4.44,5.27-10.67,8.48-17.06,10.63a192.07,192.07,0,0,1-22.18,5.25l-26.42,5.48c-4.23.87-8.55,1.6-12.75,2.66a4.17,4.17,0,0,0-2.27,1.14,3.7,3.7,0,0,0-.29,3.24c.5,2.17,1.11,4.31,1.78,6.45,5.33,17.18,42.66,98.51,43.68,100.39a.17.17,0,0,1-.3.17c-8.55-15-36.38-77.71-42.21-94A105.54,105.54,0,0,1,437.54,219C437.22,217.37,437,215.62,438.28,214.42Z"/><path id="Trazado_5478" data-name="Trazado 5478" class="cls-3" d="M324.32,406.07c3,1,90.42-2.11,93.6-4.32.38-.24.28-8.55,0-19.91v-.22c-.18-7.2.14-68.77.14-68.77l-54.73,1.27-1.72,60.55s-11.68,5.55-21.77,11h0a121.24,121.24,0,0,0-12.91,7.48C323.73,396.08,321.32,405.15,324.32,406.07Z"/><path id="Trazado_5479" data-name="Trazado 5479" class="cls-4" d="M324.32,406.07c3,1,90.42-2.1,93.6-4.32.38-.24.29-8.54,0-19.89V356.29l-55.78,1.36-.5,17s-11.66,5.55-21.77,11h0A122.24,122.24,0,0,0,327,393.16C323.73,396.08,321.32,405.15,324.32,406.07Z"/><path id="Trazado_5480" data-name="Trazado 5480" class="cls-5" d="M324,406.44c3.11,1,90.64-2.34,93.91-4.67,1.21-.88,2.06-15.1.32-30.71l-56.4,2.17s-31.89,17-35.2,19.93S320.87,405.48,324,406.44Z"/><path id="Trazado_5481" data-name="Trazado 5481" class="cls-7" d="M325.09,402.72c14.66-.94,73.88-3.24,88.42-3,.13,0,.13.08,0,.1-14.51,1.27-73.76,3-88.42,3.12C324.75,403,324.75,402.73,325.09,402.72Z"/><path id="Trazado_5482" data-name="Trazado 5482" class="cls-7" d="M332.08,389.66a11.49,11.49,0,0,1,8.9,3.43,12.24,12.24,0,0,1,3.54,8.11.08.08,0,0,1-.15,0A14,14,0,0,0,332,389.85a.09.09,0,0,1-.09-.09h0a.1.1,0,0,1,.1-.1Z"/><path id="Trazado_5483" data-name="Trazado 5483" class="cls-7" d="M357.2,375c5.87-.32,12.76,1.61,16.59,6.51a.23.23,0,0,1-.29.33,79.39,79.39,0,0,0-16.36-6.08.38.38,0,0,1-.27-.46h0A.41.41,0,0,1,357.2,375Z"/><path id="Trazado_5484" data-name="Trazado 5484" class="cls-7" d="M352.76,377c5.86-.3,12.74,1.63,16.58,6.53a.22.22,0,0,1-.29.31,79.93,79.93,0,0,0-16.36-6.07.42.42,0,0,1-.24-.51A.39.39,0,0,1,352.76,377Z"/><path id="Trazado_5485" data-name="Trazado 5485" class="cls-7" d="M348.26,379c5.87-.31,12.76,1.61,16.58,6.51.16.19-.11.4-.29.32a79.14,79.14,0,0,0-16.36-6.07.4.4,0,0,1-.26-.48A.37.37,0,0,1,348.26,379Z"/><path id="Trazado_5486" data-name="Trazado 5486" class="cls-7" d="M343.79,381c5.87-.3,12.75,1.62,16.58,6.53.15.19-.11.4-.28.31a79,79,0,0,0-16.37-6,.43.43,0,0,1-.36-.44.42.42,0,0,1,.43-.39Z"/><path id="Trazado_5487" data-name="Trazado 5487" class="cls-7" d="M359,373.23l60.2-1.19s-3-118.24,1.67-124.89c6.19-8.88,96.43-11.51,115-40.29,16.67-25.91,1-61.31,1-61.31H468.41a153.85,153.85,0,0,0,7,22.38s-81.87,18.5-104.17,45.68C356.14,232.09,359,373.23,359,373.23Z"/><path id="Trazado_5488" data-name="Trazado 5488" class="cls-6" d="M463.28,163.45a32.51,32.51,0,0,1,5.84,1.78c2,.72,3.93,1.56,5.85,2.46a109.81,109.81,0,0,1,11,6.08.09.09,0,0,1,0,.12l0,0a.08.08,0,0,1-.11,0c-3.76-1.91-7.63-3.58-11.49-5.19l-5.6-2.34A53.69,53.69,0,0,1,463.1,164a.29.29,0,0,1-.1-.4h0a.27.27,0,0,1,.25-.13Z"/><path id="Trazado_5489" data-name="Trazado 5489" class="cls-6" d="M466.81,145.62c.88,3.25,1.64,6.54,2.64,9.75.44,1.43.9,3,1.48,4.4.49,1.27,1.21,2.54,2.57,2.81s1.94-1.15,1.79-2.48-.61-3-.92-4.44c-.36-1.7-.75-3.39-1.09-5.07-.17-.86-.35-1.71-.51-2.54s-.2-1.54-.36-2.3h-.1a.14.14,0,0,1-.09-.08.24.24,0,0,1,.08-.24.1.1,0,0,1,.13,0c.31.17.34.59.45.9l.81,2.47c.48,1.56.93,3.1,1.37,4.68s.83,3.12,1.21,4.69a7.73,7.73,0,0,1,.4,3.63,2.7,2.7,0,0,1-2.42,2.17,1.87,1.87,0,0,1,.15.32,8.33,8.33,0,0,1,.39,1c.12.33.24.67.35,1a2.78,2.78,0,0,1,.11.5v.57a.3.3,0,0,1-.2.33.26.26,0,0,1-.28-.14l-.31-.45a2.32,2.32,0,0,1-.24-.53c-.11-.33-.2-.65-.3-1s-.19-.66-.27-1,0-.39-.07-.6a3.26,3.26,0,0,1-1.81-.66,6.2,6.2,0,0,1-1.95-2.88c-.51-1.35-.92-2.75-1.38-4.13a62.37,62.37,0,0,1-2.28-10.5.32.32,0,0,1,.14-.42.31.31,0,0,1,.13,0,.29.29,0,0,1,.38.18h0Z"/><path id="Trazado_5490" data-name="Trazado 5490" class="cls-6" d="M507.67,152.37c.33,1.62.57,3.25,1,4.85a47.93,47.93,0,0,0,1.38,4.65,16.69,16.69,0,0,0,2,4.16,15.43,15.43,0,0,0,3.12,3.13,25.35,25.35,0,0,0,7.45,4.05,32.49,32.49,0,0,0,4.11,1.14c.72.14,1.45.24,2.17.33a4.48,4.48,0,0,1,1.77.36.41.41,0,0,1,.11.54.26.26,0,0,1-.11.1,5.74,5.74,0,0,1-3.23.21,20.59,20.59,0,0,1-3.49-.54,24.2,24.2,0,0,1-6.62-2.67,20.67,20.67,0,0,1-5.6-4.53,16.57,16.57,0,0,1-3.11-6.64,35,35,0,0,1-1.21-9.11.15.15,0,0,1,.15-.15.15.15,0,0,1,.14.15Z"/><path id="Trazado_5491" data-name="Trazado 5491" class="cls-6" d="M409.09,289.92q.46-15.32,1.55-30.56c.18-2.54.34-5.08.55-7.54a25.55,25.55,0,0,1,1.06-5.76c1.36-3.87,4.29-5.89,7.9-7,4.3-1.27,8.74-2.12,13.11-3s8.95-1.73,13.43-2.54c9.09-1.61,18.14-3.12,27.24-5.08a207.07,207.07,0,0,0,26.61-7.19c8-2.88,16.2-6.23,22.49-12.32,13.55-13.07,13.46-34.26,11.25-52-.32-2.54-.67-5-1-7.47,0-.13.17-.18.19,0,1.37,10,2.95,20,2.28,30.07a50.64,50.64,0,0,1-6.94,23.54c-4.5,7.19-11.35,12-18.79,15.46a147.8,147.8,0,0,1-25.39,8.55c-17.94,4.51-36.28,6.77-54.34,10.58-2.21.48-4.43,1-6.66,1.45a27.73,27.73,0,0,0-6,1.87c-4.11,2.09-5.09,6.35-5.49,10.69-.9,10.15-1.36,20.3-1.82,30.45-.82,20.5-1,41.09-.36,61.6,0,2.53.15,5.07.25,7.61a.17.17,0,0,1-.34,0C408.76,331,408.39,310.48,409.09,289.92Z"/><path id="Trazado_5492" data-name="Trazado 5492" class="cls-6" d="M361,363a33.93,33.93,0,0,1,5.11-.61c1.78-.18,3.63-.33,5.37-.46,3.55-.25,7.07-.47,10.61-.6,7.13-.24,14.24-.45,21.38-.5,3.71,0,11.68-.13,12.09.07.22.09.18.51,0,.52-7.06.76-14.12,1.14-21.2,1.54s-14.15.76-21.22.81h-5.89a44.13,44.13,0,0,1-6.19-.22C360.87,363.46,360.78,363,361,363Z"/><path id="Trazado_5493" data-name="Trazado 5493" class="cls-6" d="M418.06,312.85c-.37-8.46-.49-16.91-.52-25.37s.15-16.91.53-25.38a105.63,105.63,0,0,1,1.37-12.69,10.93,10.93,0,0,1,.44-1.61,3.85,3.85,0,0,1,.41-.87,5.59,5.59,0,0,1,.61-.68,12.08,12.08,0,0,1,2.75-1.61,42.89,42.89,0,0,1,5.84-1.92,182.58,182.58,0,0,1,23.86-4.24c-4,.76-7.93,1.53-11.86,2.4s-7.86,1.76-11.72,2.88a54,54,0,0,0-5.66,1.94,10.6,10.6,0,0,0-2.42,1.44,2,2,0,0,0-.65,1,11.73,11.73,0,0,0-.38,1.44,106.49,106.49,0,0,0-1.21,12.48c-.49,8.43-.64,16.88-.84,25.32Z"/><path id="Trazado_5494" data-name="Trazado 5494" class="cls-6" d="M383.73,202.75a142.58,142.58,0,0,1,21.42-12.17c7.41-3.53,15-6.56,22.66-9.43s15.45-5.29,23.31-7.61,15.73-4.31,23.67-6.07c-3.89,1.27-7.81,2.28-11.7,3.52s-7.79,2.35-11.66,3.59c-7.75,2.54-15.51,5-23.13,7.87s-15.22,5.76-22.69,9.07c-3.74,1.62-7.44,3.36-11.07,5.23S387.3,200.61,383.73,202.75Z"/><path id="Trazado_5495" data-name="Trazado 5495" class="cls-3" d="M475.05,71.23c-6.37,28.31-11.72,50.25-19.21,55.83-6,4.5-44.61,14.73-52.12,15.68-3,.4-5.49.65-7.26.84-4.37.47-12.59-29.57-9.6-33.37.69-.86,3.54-1.63,7.56-2.34,13.56-2.29,41.93-3.73,43.46-5.38s9.82-14.06,21-30.29c7.72-11.2,12.64-14.68,15.45-11.76C475.86,62.08,476.27,65.77,475.05,71.23Z"/><path id="Trazado_5496" data-name="Trazado 5496" class="cls-3" d="M403.67,142.74a112.43,112.43,0,0,1-13.87,6c-3.79,1.16-14.75,4.16-16.37-.09-1.12-2.88,5.14-5.47,9.53-7.38,2.31-1,5.16-3.54,4.48-5.08-1.21-2.73-7.15,0-11.05,2.4-7.57,4.61-17.66,13-22.28,8.88-1.74-1.52.29-4.31,3.26-7-4.84,3.17-9.94,5.76-11.95,4.14a2.74,2.74,0,0,1-.56-3.61,3.27,3.27,0,0,1-3.71-.61c-1.57-1.72-.81-4.31.89-6.86a1.77,1.77,0,0,1-1.36-1c-3.32-5.3,13.3-20.52,19-21.95,16.93-4.2,34.84-2.67,34.84-2.67C401.13,113.44,403.68,142.73,403.67,142.74Z"/><path id="Trazado_5497" data-name="Trazado 5497" class="cls-7" d="M378.84,126.22a26.9,26.9,0,0,0-11.26,4.53c-3.94,2.88-7.06,6.73-10.71,9.94-.1.09,0,.24.15.15,1.7-1.66,3.62-3.15,5.36-4.73s3.44-3.18,5.27-4.58a26.57,26.57,0,0,1,11.21-5.21Z"/><path id="Trazado_5498" data-name="Trazado 5498" class="cls-7" d="M375.74,118.71a66.9,66.9,0,0,0-13.1,4.76c-4.51,2.41-8,6.34-11.5,10.07-2.09,2.27-4.13,4.58-6.11,7-.08.1,0,.25.13.16q5.31-5.88,10.89-11.42A35.56,35.56,0,0,1,368,121.35c2.54-1,5.14-1.83,7.75-2.63C375.74,118.77,375.74,118.71,375.74,118.71Z"/><path id="Trazado_5499" data-name="Trazado 5499" class="cls-7" d="M371,112.14c-4.32.91-8.08,1.71-11.89,4.12a63.13,63.13,0,0,0-11.64,10.53c-1.9,2.12-3.72,4.32-5.49,6.51-.09.09.07.23.14.14a146.48,146.48,0,0,1,13.16-13.66,28.58,28.58,0,0,1,7.35-5.08,48.71,48.71,0,0,1,8.38-2.54S371,112.12,371,112.14Z"/><path id="Trazado_5500" data-name="Trazado 5500" class="cls-8" d="M402.45,106.58l6.16,36.59s40.17-6.7,49.65-15.67S474,82.79,476.47,69.25s-4.67-15.5-14.87-2.57S438.05,101.24,437,102,402.45,106.58,402.45,106.58Z"/><path id="Trazado_5501" data-name="Trazado 5501" class="cls-9" d="M405,146.85l9.79-2-7.39-41.79-9.5,1.27Z"/><path id="Trazado_5502" data-name="Trazado 5502" class="cls-8" d="M423.85,137.82a1.27,1.27,0,0,1-.53.27,1,1,0,0,1-1-.32,1.33,1.33,0,0,0-1.88,0,1.88,1.88,0,0,0-.18.24l-.39.59c.21-.12.39-.26.58-.38a1.27,1.27,0,0,1,.52-.31,1.09,1.09,0,0,1,1,.27,1.31,1.31,0,0,0,1.49.33,1.27,1.27,0,0,0,.59-.51c.13-.2.27-.38.38-.59A6.25,6.25,0,0,0,423.85,137.82ZM439,119.47a1.27,1.27,0,0,1-.53.27,1,1,0,0,1-1-.32,1.33,1.33,0,0,0-1.91,0l-.17.24-.38.59c.19-.12.38-.25.56-.39a1.59,1.59,0,0,1,.54-.3,1,1,0,0,1,1,.27,1.32,1.32,0,0,0,1.93,0h0a.65.65,0,0,0,.15-.18c.12-.2.26-.38.37-.6-.19.12-.37.27-.57.4Zm4-22.33a1.36,1.36,0,0,1-.53.28,1.06,1.06,0,0,1-1-.32,1.3,1.3,0,0,0-.79-.41c-.12.19-.24.36-.36.52a1,1,0,0,1,.77.31,1.31,1.31,0,0,0,1.49.33,1.45,1.45,0,0,0,.59-.51,6.25,6.25,0,0,0,.38-.61A3.73,3.73,0,0,0,443.07,97.14Zm22.72,12.69a1.25,1.25,0,0,1-.52.28,1.07,1.07,0,0,1-1-.32,1.32,1.32,0,0,0-1.52-.29,1.58,1.58,0,0,0-.57.52c-.12.2-.25.39-.36.61.19-.13.38-.26.56-.41a1.66,1.66,0,0,1,.52-.29,1.05,1.05,0,0,1,1,.28,1.28,1.28,0,0,0,1.86.09v0A1,1,0,0,0,466,110c.12-.2.26-.38.38-.6a5.56,5.56,0,0,0-.58.41ZM476.9,65.71V65a1.46,1.46,0,0,0,0,.72Zm-29.2,64a2.71,2.71,0,0,0-.13-.71,5.55,5.55,0,0,0-.13.71,2,2,0,0,1-.18.58,1,1,0,0,1-.88.55,1.35,1.35,0,0,0-1.37,1.35,1.71,1.71,0,0,0,0,.32,4.21,4.21,0,0,0,.12.71,5.57,5.57,0,0,0,.14-.71,1.3,1.3,0,0,1,.2-.58,1,1,0,0,1,.9-.51,1.39,1.39,0,0,0,1.34-1.44,1.53,1.53,0,0,0,0-.3ZM420,118.9c0-.24-.08-.48-.13-.71a4.25,4.25,0,0,1-.14.71,1.39,1.39,0,0,1-.16.58,1,1,0,0,1-.89.55,1.39,1.39,0,0,0-1.28.89,1.47,1.47,0,0,0,0,.78,2.86,2.86,0,0,0,.13.72,4.57,4.57,0,0,0,.14-.72,1.24,1.24,0,0,1,.19-.58,1.07,1.07,0,0,1,.91-.51,1.22,1.22,0,0,0,1.3-1.16v0a1.2,1.2,0,0,0-.07-.53Zm26.38-11.51a3.43,3.43,0,0,0-.14-.71,3.43,3.43,0,0,1-.14.71,1.57,1.57,0,0,1-.16.6,1,1,0,0,1-.88.53,1.35,1.35,0,0,0-1.38,1.31.92.92,0,0,0,0,.33,4.3,4.3,0,0,0,.13.7c.06-.23.11-.47.15-.7a1.23,1.23,0,0,1,.18-.59,1,1,0,0,1,.91-.5,1.36,1.36,0,0,0,1.34-1.36v0a1.82,1.82,0,0,0,0-.33Zm6-23.71a2.87,2.87,0,0,0-.14-.72,6,6,0,0,0-.13.72,1.38,1.38,0,0,1-.17.59,1,1,0,0,1-.88.53,1.38,1.38,0,0,0-1.38,1.35,1.82,1.82,0,0,0,0,.33c0,.23.08.47.13.7a4.15,4.15,0,0,1,.15-.7,1.27,1.27,0,0,1,.17-.58,1.07,1.07,0,0,1,.91-.51,1.41,1.41,0,0,0,1.35-1.45h0a1.31,1.31,0,0,0,0-.28Zm14.3,3.43a5.89,5.89,0,0,0-.13-.71,3.42,3.42,0,0,1-.13.71,1.54,1.54,0,0,1-.17.6,1,1,0,0,1-.88.53,1.37,1.37,0,0,0-1.38,1.37,1.56,1.56,0,0,0,0,.31,3.32,3.32,0,0,0,.13.7,5.83,5.83,0,0,0,.15-.7,1.25,1.25,0,0,1,.19-.59,1,1,0,0,1,.91-.5,1.41,1.41,0,0,0,1.34-1.46v0a1,1,0,0,0,0-.24Zm-54.26,42.53a6.1,6.1,0,0,0-.14-.72,2.87,2.87,0,0,1-.14.72,1.39,1.39,0,0,1-.17.6,1.08,1.08,0,0,1-.87.54,1.36,1.36,0,0,0-1.29.87,1.78,1.78,0,0,0-.07.79,5.57,5.57,0,0,0,.14.71c.06-.23.1-.47.14-.71a1.18,1.18,0,0,1,.19-.58,1.07,1.07,0,0,1,.91-.51,1.42,1.42,0,0,0,1.35-1.47h0a1,1,0,0,0,0-.24Zm5-21.21a1,1,0,0,1-.52.29.92.92,0,0,1-1-.26,1.33,1.33,0,0,0-1.51-.32,1.27,1.27,0,0,0-.59.51c-.13.2-.26.38-.37.58.21-.11.37-.25.57-.38a1.12,1.12,0,0,1,.49-.29,1,1,0,0,1,1,.3,1.29,1.29,0,0,0,1.88,0h0a1.12,1.12,0,0,0,.19-.24c.12-.2.28-.39.39-.61a2.07,2.07,0,0,0-.58.4ZM455,118.51a1.46,1.46,0,0,1-.53.3,1,1,0,0,1-1-.27,1.33,1.33,0,0,0-1.5-.34,1.3,1.3,0,0,0-.58.51c-.12.2-.28.39-.39.61.21-.13.39-.28.58-.41a1.22,1.22,0,0,1,.52-.26,1.06,1.06,0,0,1,1,.31,1.32,1.32,0,0,0,1.93,0,1,1,0,0,0,.15-.19c.12-.2.25-.38.36-.59-.15.17-.32.39-.56.39Zm15.64-46.85a1.22,1.22,0,0,1-.52.29,1,1,0,0,1-1-.27,1.26,1.26,0,0,0-1.84-.1l0,0a1.27,1.27,0,0,0-.21.25,6.17,6.17,0,0,0-.39.6,6,6,0,0,0,.58-.41,1.16,1.16,0,0,1,.52-.26,1,1,0,0,1,1,.31,1.32,1.32,0,0,0,1.52.27,1.18,1.18,0,0,0,.57-.51,6.66,6.66,0,0,0,.39-.59,2.75,2.75,0,0,1-.53.44Zm-9.75,6.9a1,1,0,0,1-.55-.2,1.08,1.08,0,0,1-.49-1,1.43,1.43,0,0,0-.88-1.27,1.2,1.2,0,0,0-.75,0,5.47,5.47,0,0,0-.68.14l.68.15a1.43,1.43,0,0,1,.57.16,1.16,1.16,0,0,1,.51.93,1.26,1.26,0,0,0,1.06,1.41h0a1.29,1.29,0,0,0,.48,0l.69-.14q-.32,0-.63,0ZM455.87,99.8a1,1,0,0,1-.55-.19,1,1,0,0,1-.48-.94,1.43,1.43,0,0,0-1.36-1.47h-.28l-.68.14a5.15,5.15,0,0,0,.68.15,1.37,1.37,0,0,1,.56.18,1.08,1.08,0,0,1,.51.93,1.43,1.43,0,0,0,.85,1.27,1.22,1.22,0,0,0,.73.07,5,5,0,0,0,.69-.14Zm-25,31.52a1.06,1.06,0,0,1-.56-.2,1.13,1.13,0,0,1-.48-1,1.3,1.3,0,0,0-1.21-1.38.79.79,0,0,0-.43,0,3.89,3.89,0,0,0-.68.13l.68.13a1.14,1.14,0,0,1,.56.19,1.06,1.06,0,0,1,.51.92,1.39,1.39,0,0,0,1.33,1.44h.27l.66-.15c-.21-.07-.44-.12-.66-.17Zm0-20.15a1.14,1.14,0,0,1-.56-.19,1.16,1.16,0,0,1-.48-1,1.3,1.3,0,0,0-1.21-1.38,1,1,0,0,0-.43.06l-.68.14.68.15a1.26,1.26,0,0,1,.56.17,1.06,1.06,0,0,1,.51.92,1.38,1.38,0,0,0,1.28,1.45h0a.86.86,0,0,0,.32,0,5.18,5.18,0,0,0,.66-.14,1.7,1.7,0,0,0-.66-.21Z"/><path id="Trazado_5503" data-name="Trazado 5503" class="cls-7" d="M411.52,123.87c-.58-2.86-1.18-5.74-1.79-8.62s-1.11-5.75-1.92-8.63c0-.13-.24-.12-.23,0,.29,2.88.88,5.63,1.36,8.42s1.06,5.9,1.6,8.89c1.08,5.83,2.42,11.61,3.75,17.35,0,.14.22.09.2,0C413.61,135.46,412.68,129.66,411.52,123.87Z"/><path id="Trazado_5504" data-name="Trazado 5504" class="cls-10" d="M476.47,69.22c-2.42,13.55-8.73,49.3-18.14,58.26-4.27,4-14.74,7.61-25,10.34C443,119,468.15,69.51,474.48,58.21,476.7,59.21,477.61,63,476.47,69.22Z"/><path id="Trazado_5505" data-name="Trazado 5505" class="cls-9" d="M456.76,164.23c2.13,1.78,88.91,1,89.27.39S520.47,68,488.44,56.69c-5.05-1.78-18.14-.13-19.55,1.9C457.46,75.47,455.43,163.12,456.76,164.23Z"/><path id="Trazado_5506" data-name="Trazado 5506" class="cls-7" d="M461.22,85.13c-.65,4-1.07,8.06-1.47,12.11,0-1.81-.1-3.62-.16-5.43a.13.13,0,0,0-.12-.09.11.11,0,0,0-.09.09c0,2.66,0,5.32.13,8v.39c-.52,5.22-1,10.43-1.38,15.63-.84,10.35-1.47,20.73-1.67,31.12-.12,5.76,0,11.58,0,17.38a.1.1,0,0,0,.13.08h0a.11.11,0,0,0,.08-.08c.23-5.16.62-10.33.89-15.48s.52-10.32.8-15.47c.56-10.29,1.1-20.59,1.84-30.87.38-5.75,1-11.51,1.21-17.27C461.36,85.07,461.22,85.05,461.22,85.13Z"/><path id="Trazado_5507" data-name="Trazado 5507" class="cls-8" d="M489.21,97.44l.69-.14a1.36,1.36,0,0,1,1.6,1.13v0h0a1.4,1.4,0,0,1,0,.29,1.08,1.08,0,0,0,.49,1,1.18,1.18,0,0,0,.54.2l.69.13a5.27,5.27,0,0,1-.69.14,1.17,1.17,0,0,1-.74,0,1.45,1.45,0,0,1-.84-1.35,1.11,1.11,0,0,0-.51-.92,1.12,1.12,0,0,0-.56-.18C489.65,97.63,489.43,97.54,489.21,97.44Zm13.12,46.8a1.17,1.17,0,0,1,.55.19,1.09,1.09,0,0,1,.52.91,1.38,1.38,0,0,0,1.3,1.45h.3c.22,0,.45-.09.67-.15l-.67-.14a1.17,1.17,0,0,1-.57-.19,1.16,1.16,0,0,1-.48-.95,1.26,1.26,0,0,0-1.11-1.37h-.1a1,1,0,0,0-.42,0l-.67.14a3.84,3.84,0,0,0,.68.09Zm15.46-44.13a1.14,1.14,0,0,1,.56.19,1.1,1.1,0,0,1,.52.91,1.4,1.4,0,0,0,1.34,1.45,1.13,1.13,0,0,0,.26,0l.67-.14a5,5,0,0,0-.67-.14,1.14,1.14,0,0,1-1-1.16,1.32,1.32,0,0,0-1.21-1.38,1.62,1.62,0,0,0-.44,0,1.21,1.21,0,0,0-.67.13,5.16,5.16,0,0,0,.67.1ZM478.24,76.39a1.63,1.63,0,0,1,.57.17,1.18,1.18,0,0,1,.52.92,1.25,1.25,0,0,0,1.06,1.41h0a1.1,1.1,0,0,0,.51,0,1.16,1.16,0,0,0,.68-.15l-.68-.14a1.26,1.26,0,0,1-.56-.2,1.18,1.18,0,0,1-.48-1,1.41,1.41,0,0,0-1.41-1.39h-.22c-.23,0-.46.09-.68.15Zm24.34-.54a1.3,1.3,0,0,1,.58.17,1.15,1.15,0,0,1,.51.93A1.4,1.4,0,0,0,505,78.4h.25l.68-.14a3.16,3.16,0,0,0-.68-.14,1.43,1.43,0,0,1-.55-.21,1.2,1.2,0,0,1-.49-1,1.26,1.26,0,0,0-1.09-1.38H503a1,1,0,0,0-.43,0,3.91,3.91,0,0,0-.68.14,3.84,3.84,0,0,1,.68.09Zm-30.32,41.22a1.63,1.63,0,0,1,.57.17,1.08,1.08,0,0,1,.51.92,1.46,1.46,0,0,0,.83,1.36,1.44,1.44,0,0,0,.77,0,1.9,1.9,0,0,0,.66-.14,5.18,5.18,0,0,0-.66-.14,1.26,1.26,0,0,1-.57-.2,1.2,1.2,0,0,1-.49-1,1.25,1.25,0,0,0-1.09-1.38h-.11a.86.86,0,0,0-.45,0,3.78,3.78,0,0,0-.67.13Zm27.64,42.5a1.1,1.1,0,0,1,.55.19,1,1,0,0,1,.52.91,1.38,1.38,0,0,0,1.3,1.44h0a.76.76,0,0,0,.3,0l.68-.13-.68-.14a1.26,1.26,0,0,1-.56-.2,1.13,1.13,0,0,1-.48-.95,1.33,1.33,0,0,0-1.21-1.39,1.48,1.48,0,0,0-.42,0l-.68.14A3.89,3.89,0,0,0,499.9,159.57ZM465,154.72a1.37,1.37,0,0,1,.55.18,1.07,1.07,0,0,1,.51.93,1.38,1.38,0,0,0,1.32,1.43h0a1.4,1.4,0,0,0,.29,0,5.18,5.18,0,0,0,.66-.14l-.66-.13a1.3,1.3,0,0,1-.57-.2,1.08,1.08,0,0,1-.48-.95,1.25,1.25,0,0,0-1.1-1.38h-.11a1,1,0,0,0-.43,0l-.66.13a3.08,3.08,0,0,0,.66.13Zm20.78-17.88a1.41,1.41,0,0,1,.57.18,1.11,1.11,0,0,1,.52.93,1.26,1.26,0,0,0,1.06,1.4,1.24,1.24,0,0,0,.54-.06,5.18,5.18,0,0,0,.66-.14l-.66-.14a1.48,1.48,0,0,1-.57-.19,1.16,1.16,0,0,1-.48-.95,1.43,1.43,0,0,0-.9-1.27,1.33,1.33,0,0,0-.74,0,5.18,5.18,0,0,0-.66.14,5.53,5.53,0,0,0,.66.2Zm11.14-19.21a1.41,1.41,0,0,1,.57.18,1.08,1.08,0,0,1,.51.91,1.44,1.44,0,0,0,.84,1.36,1.17,1.17,0,0,0,.74,0,5.63,5.63,0,0,0,.69-.14q-.34-.09-.69-.15a1.07,1.07,0,0,1-.54-.19,1.08,1.08,0,0,1-.49-.95,1.44,1.44,0,0,0-.89-1.27,1.17,1.17,0,0,0-.74,0q-.35.06-.69.15Zm30.94,31.44a1.27,1.27,0,0,1,.55.2,1.06,1.06,0,0,1,.51.92,1.47,1.47,0,0,0,.85,1.27,1.14,1.14,0,0,0,.73,0,5,5,0,0,0,.69-.14l-.69-.14A1.35,1.35,0,0,1,530,151a1.08,1.08,0,0,1-.48-1,1.42,1.42,0,0,0-1.35-1.47h-.29l-.67.15c.22.12.44.22.67.32Zm-12.4-19.19a1.14,1.14,0,0,1,1.09,1.1,1.44,1.44,0,0,0,.85,1.35,1.22,1.22,0,0,0,.73.07l.67-.14-.67-.15a1.23,1.23,0,0,1-.55-.18,1.17,1.17,0,0,1-.49-1A1.26,1.26,0,0,0,516,129.6h-.12a1,1,0,0,0-.42,0l-.66.15.72.13Zm26.06,27.91a1.29,1.29,0,0,1,.57.19,1.08,1.08,0,0,1,.51.92,1.45,1.45,0,0,0,.84,1.34,1.29,1.29,0,0,0,.75.08,5.1,5.1,0,0,0,.68-.13c-.22-.06-.45-.11-.68-.15a1.18,1.18,0,0,1-.54-.2,1.12,1.12,0,0,1-.5-.94,1.43,1.43,0,0,0-.88-1.27,1.37,1.37,0,0,0-.75,0l-.68.15a7.46,7.46,0,0,1,.78.13ZM479,89.78a1.36,1.36,0,0,1-.52.3,1,1,0,0,1-1-.28,1.33,1.33,0,0,0-1.48-.33,1.64,1.64,0,0,0-.6.51c-.12.2-.26.4-.37.61a4.57,4.57,0,0,0,.57-.41,1.15,1.15,0,0,1,.53-.26,1,1,0,0,1,1,.32,1.32,1.32,0,0,0,1.9,0,1.44,1.44,0,0,0,.18-.25l.39-.58a2.85,2.85,0,0,1-.49.43Zm-8.35-18.17a1.81,1.81,0,0,1-.52.3,1,1,0,0,1-1-.28,1.32,1.32,0,0,0-1.93,0h0l-.14.18c-.12.2-.25.39-.38.61a5.89,5.89,0,0,0,.57-.41,1.55,1.55,0,0,1,.52-.28,1.08,1.08,0,0,1,1,.32,1.3,1.3,0,0,0,1.9,0l0,0a.94.94,0,0,0,.16-.23l.39-.58a2,2,0,0,1-.48.43Zm44.75,45.68a1.22,1.22,0,0,1-.52.29,1,1,0,0,1-1-.28,1.34,1.34,0,0,0-1.49-.32,1.45,1.45,0,0,0-.59.51l-.38.6a4.49,4.49,0,0,0,.57-.4,1.11,1.11,0,0,1,.52-.26,1,1,0,0,1,1,.32,1.31,1.31,0,0,0,1.91,0l.18-.25c.12-.19.25-.38.37-.59a3.12,3.12,0,0,1-.56.39ZM492.7,66.24a1.36,1.36,0,0,1-.52.3,1,1,0,0,1-1-.27,1.33,1.33,0,0,0-1.5-.33,1.28,1.28,0,0,0-.58.5c-.14.2-.27.4-.39.61.21-.12.39-.28.59-.4a1,1,0,0,1,.52-.27,1,1,0,0,1,1,.32,1.34,1.34,0,0,0,1.53.26,1.17,1.17,0,0,0,.56-.52c.13-.2.27-.38.38-.59Zm-.43,15.14a1.7,1.7,0,0,1-.19.59,1,1,0,0,1-.88.54,1.37,1.37,0,0,0-1.21.89,1.35,1.35,0,0,0-.08.77,2.87,2.87,0,0,0,.13.71c.06-.23.11-.47.15-.71a1.17,1.17,0,0,1,.19-.57,1,1,0,0,1,.89-.51,1.41,1.41,0,0,0,1.41-1.42h0v-.29a4.16,4.16,0,0,0-.12-.72,5.42,5.42,0,0,0-.19.72Zm-5.35,41.45a1.25,1.25,0,0,1-.16.6,1,1,0,0,1-.88.53,1.38,1.38,0,0,0-1.33,1.42,2.28,2.28,0,0,0,0,.26,2.81,2.81,0,0,0,.14.7,5.78,5.78,0,0,0,.14-.7,1.5,1.5,0,0,1,.18-.59,1,1,0,0,1,.91-.5,1.22,1.22,0,0,0,1.31-1.15.49.49,0,0,0,0-.12,1.77,1.77,0,0,0,0-.46c0-.23-.09-.47-.15-.7a3.36,3.36,0,0,1-.08.71Zm51.9,19.22a1.23,1.23,0,0,1-.18.58,1,1,0,0,1-.87.54,1.36,1.36,0,0,0-1.36,1.36h0a.81.81,0,0,0,0,.31,3.42,3.42,0,0,0,.13.71,3.43,3.43,0,0,1,.14-.71,1.68,1.68,0,0,1,.17-.59,1,1,0,0,1,.91-.5,1.23,1.23,0,0,0,1.31-1.15.49.49,0,0,0,0-.12,1.69,1.69,0,0,0,0-.45,2.9,2.9,0,0,0-.15-.71c0,.24-.06.48-.07.73Zm-24-55a1.64,1.64,0,0,1-.17.61,1,1,0,0,1-.88.53,1.39,1.39,0,0,0-1.38,1.4h0a1.31,1.31,0,0,0,0,.28,2.79,2.79,0,0,0,.13.7,4.3,4.3,0,0,0,.13-.7,1.38,1.38,0,0,1,.2-.59,1,1,0,0,1,.9-.5,1.29,1.29,0,0,0,1.32-1.27,1.17,1.17,0,0,0-.06-.45,2.85,2.85,0,0,0-.12-.71,5.94,5.94,0,0,0-.08.71Zm0,66.58a1.4,1.4,0,0,1-.17.58,1,1,0,0,1-.88.55,1.39,1.39,0,0,0-1.38,1.4h0a1.31,1.31,0,0,0,0,.28,2.87,2.87,0,0,0,.13.71,4.42,4.42,0,0,0,.13-.71,1.38,1.38,0,0,1,.2-.6,1.18,1.18,0,0,1,.9-.51,1.38,1.38,0,0,0,1.33-1.44v0h0a.89.89,0,0,0,0-.23A2.85,2.85,0,0,0,515,153a5.57,5.57,0,0,0-.14.71ZM527,115.61a1.6,1.6,0,0,1-.18.61,1,1,0,0,1-.87.54,1.38,1.38,0,0,0-1.38,1.39h0a1.31,1.31,0,0,0,0,.28,3.36,3.36,0,0,0,.15.7,4.3,4.3,0,0,1,.13-.7,1.18,1.18,0,0,1,.19-.58,1,1,0,0,1,.91-.51,1.29,1.29,0,0,0,1.32-1.27,1.61,1.61,0,0,0-.06-.44,1.67,1.67,0,0,0-.12-.7,4.91,4.91,0,0,0-.1.77Zm-61.84,8.72a1.78,1.78,0,0,1-.16.6,1,1,0,0,1-.88.53,1.36,1.36,0,0,0-1.33.86,1.3,1.3,0,0,0-.06.78,4.23,4.23,0,0,0,.13.71,4.23,4.23,0,0,0,.13-.71,1.26,1.26,0,0,1,.2-.57,1,1,0,0,1,.9-.51,1.29,1.29,0,0,0,1.31-1.27,1.55,1.55,0,0,0,0-.43c0-.24-.08-.48-.13-.71a2.9,2.9,0,0,1-.09.72Zm1.21-37.2a1.5,1.5,0,0,1-.18.59,1,1,0,0,1-.88.54,1.35,1.35,0,0,0-1.39,1.26,1.71,1.71,0,0,0,0,.32,4.25,4.25,0,0,0,.14.71,3.42,3.42,0,0,1,.13-.71,1.16,1.16,0,0,1,.18-.57,1,1,0,0,1,.91-.51,1.29,1.29,0,0,0,1.32-1.27,1.62,1.62,0,0,0,0-.44,3.43,3.43,0,0,0-.14-.71,6.36,6.36,0,0,0-.08.75ZM479.3,62.88a1.17,1.17,0,0,1-.18.58,1,1,0,0,1-.88.55,1.35,1.35,0,0,0-1.37,1.35v.37c0,.24.09.47.15.7a2.79,2.79,0,0,1,.13-.7,1.23,1.23,0,0,1,.18-.59,1.05,1.05,0,0,1,.9-.51,1.39,1.39,0,0,0,1.21-.91,1.8,1.8,0,0,0,0-.8,4,4,0,0,0-.15-.7,6.34,6.34,0,0,0-.07.75Zm-3.48,37.41a1.34,1.34,0,0,1-.17.59,1.06,1.06,0,0,1-.88.55,1.38,1.38,0,0,0-1.38,1.39h0a1.31,1.31,0,0,0,0,.28,2.71,2.71,0,0,0,.13.7,4.11,4.11,0,0,0,.13-.7,1.38,1.38,0,0,1,.2-.59,1.07,1.07,0,0,1,.91-.51,1.35,1.35,0,0,0,1.2-.93,1.71,1.71,0,0,0,0-.78,2.86,2.86,0,0,0-.13-.72,6,6,0,0,0-.08.73ZM507,105.36a1.85,1.85,0,0,1-.17.61,1,1,0,0,1-.89.53,1.35,1.35,0,0,0-1.36,1.35.86.86,0,0,0,0,.32,2.85,2.85,0,0,0,.12.71,6.27,6.27,0,0,0,.13-.71,1.47,1.47,0,0,1,.19-.58,1.08,1.08,0,0,1,.91-.52,1.23,1.23,0,0,0,1.29-1.18,1.37,1.37,0,0,0-.08-.53,2.79,2.79,0,0,0-.13-.7,4.31,4.31,0,0,0-.09.71Zm-28.8,42a1.27,1.27,0,0,1-.18.6,1,1,0,0,1-.88.53,1.36,1.36,0,0,0-1.21.89,1.39,1.39,0,0,0-.07.78,5.4,5.4,0,0,0,.13.7,3.34,3.34,0,0,1,.14-.7,1.34,1.34,0,0,1,.17-.58,1,1,0,0,1,.91-.51,1.29,1.29,0,0,0,1.32-1.27,1.62,1.62,0,0,0,0-.44,3.45,3.45,0,0,0-.15-.71c0,.23-.07.47-.09.7Zm-7.94,17.33a2.23,2.23,0,0,0-.1.43h.18c0-.13-.07-.27-.1-.41Zm20.95-.2a4.11,4.11,0,0,0-.13-.7,3.34,3.34,0,0,1-.14.7,1.64,1.64,0,0,1-.17.61,1,1,0,0,1-.21.25h.57a1.45,1.45,0,0,0,.07-.85Zm11.17-72.07a1.15,1.15,0,0,1,.52-.31,1,1,0,0,1,1,.27,1.31,1.31,0,0,0,1.91,0,1.24,1.24,0,0,0,.18-.22,6,6,0,0,0,.36-.6c-.19.13-.38.26-.56.41a1.27,1.27,0,0,1-.53.27,1,1,0,0,1-1-.32,1.31,1.31,0,0,0-1.91,0,1.46,1.46,0,0,0-.17.24l-.38.58c.19-.14.37-.24.56-.36Zm-18.14,17.25a1.12,1.12,0,0,1,.52-.29,1,1,0,0,1,1,.27,1.31,1.31,0,0,0,1.49.33,1.52,1.52,0,0,0,.59-.51c.12-.2.26-.38.37-.6-.2.13-.38.27-.57.4a1.29,1.29,0,0,1-.53.28,1.07,1.07,0,0,1-1-.32,1.3,1.3,0,0,0-1.9,0h0a2.31,2.31,0,0,0-.18.23l-.38.61.56-.38Zm-12.35,25.47a1.08,1.08,0,0,1,1.5,0,1.29,1.29,0,0,0,1.51.32,1.22,1.22,0,0,0,.57-.51c.12-.2.28-.38.39-.58a5.79,5.79,0,0,0-.58.38,1.11,1.11,0,0,1-.52.28,1,1,0,0,1-1-.32,1.37,1.37,0,0,0-1.52-.28,1.4,1.4,0,0,0-.56.52,5.6,5.6,0,0,0-.38.61,2.76,2.76,0,0,0,.58-.38Zm5.32,26.46a1.36,1.36,0,0,1,.52-.3,1,1,0,0,1,1,.27,1.29,1.29,0,0,0,2.08-.18c.12-.2.27-.38.38-.59a5.72,5.72,0,0,0-.57.39,1.3,1.3,0,0,1-.53.28,1,1,0,0,1-1-.32,1.31,1.31,0,0,0-1.91,0l-.18.23-.38.6c.2-.12.4-.23.58-.36Zm23.85-29.09a1.46,1.46,0,0,1,.52-.28,1,1,0,0,1,1,.27,1.32,1.32,0,0,0,2.09-.19l.39-.58a5.79,5.79,0,0,0-.58.38,1.27,1.27,0,0,1-.54.28,1,1,0,0,1-1-.31,1.32,1.32,0,0,0-1.52-.29,1.85,1.85,0,0,0-.56.52c-.12.2-.26.39-.38.61a2.83,2.83,0,0,0,.59-.38Zm16.46,10.56a1.29,1.29,0,0,1,.52-.3,1,1,0,0,1,1,.26,1.3,1.3,0,0,0,1.89.09,2.52,2.52,0,0,0,.21-.25c.12-.21.26-.4.37-.61a5.81,5.81,0,0,0-.57.4,1.3,1.3,0,0,1-.52.27,1.07,1.07,0,0,1-1-.3,1.32,1.32,0,0,0-1.51-.28,1.33,1.33,0,0,0-.56.52,4.45,4.45,0,0,0-.38.58,3.84,3.84,0,0,0,.54-.35Zm-27.61,8a1.17,1.17,0,0,1,.52-.29,1,1,0,0,1,1,.28,1.32,1.32,0,0,0,1.93,0h0a.65.65,0,0,0,.15-.18c.12-.2.26-.39.37-.61-.19.12-.37.26-.57.4a1.09,1.09,0,0,1-1.5,0,1.32,1.32,0,0,0-1.52-.3,1.78,1.78,0,0,0-.57.52c-.12.21-.25.38-.38.6.19-.12.37-.25.55-.39Zm-27.49-6.95a1.53,1.53,0,0,1,.52-.31,1,1,0,0,1,1,.28,1.33,1.33,0,0,0,1.5.33,1.58,1.58,0,0,0,.59-.5c.12-.21.26-.4.37-.61a4.39,4.39,0,0,0-.56.4,1.15,1.15,0,0,1-.54.27,1,1,0,0,1-1-.32,1.31,1.31,0,0,0-1.91,0,1.24,1.24,0,0,0-.17.23l-.39.58a4.62,4.62,0,0,0,.55-.35Zm63.09,17.43a1.22,1.22,0,0,1,.52-.29,1,1,0,0,1,1,.27,1.26,1.26,0,0,0,1.84.1l0,0a.81.81,0,0,0,.21-.24,6.33,6.33,0,0,0,.39-.61,6,6,0,0,0-.58.41,1.3,1.3,0,0,1-.52.27,1,1,0,0,1-1-.32,1.32,1.32,0,0,0-1.52-.27,1.25,1.25,0,0,0-.57.52,6.51,6.51,0,0,0-.38.59,5.6,5.6,0,0,1,.49-.36Zm4-28.47a1.17,1.17,0,0,1,.52-.29,1,1,0,0,1,1,.25,1.33,1.33,0,0,0,1.52.33,1.25,1.25,0,0,0,.58-.51c.13-.19.26-.39.37-.59-.2.12-.37.26-.57.4a1.3,1.3,0,0,1-.52.27,1,1,0,0,1-1-.32,1.33,1.33,0,0,0-1.52-.28,1.47,1.47,0,0,0-.56.52c-.12.21-.27.4-.38.61l.49-.38Zm-72.85,21.19a.92.92,0,0,1-.27.16v.46a1.35,1.35,0,0,0,.46-.43c.11-.19.27-.38.38-.6A5.89,5.89,0,0,0,456.69,154.24Zm5.71-44a1.32,1.32,0,0,1,.52-.28,1,1,0,0,1,1,.27,1.26,1.26,0,0,0,1.84.1l0,0A1.27,1.27,0,0,0,466,110a6.1,6.1,0,0,0,.38-.6,3.81,3.81,0,0,0-.58.41,1.16,1.16,0,0,1-.52.26,1,1,0,0,1-1-.31,1.29,1.29,0,0,0-1.89,0,1.16,1.16,0,0,0-.2.24c-.12.2-.26.39-.38.61a5.56,5.56,0,0,0,.58-.41Z"/><path id="Trazado_5508" data-name="Trazado 5508" class="cls-3" d="M474.05,71.9c4.84.66,12.21-7.8,14.82-14.29.16-.44-.88-4.82-1.92-10.15-.62-3.27-1.21-6.93-1.58-10.29l-19.65,7.32A56.42,56.42,0,0,1,469,57.24a8.66,8.66,0,0,1,0,1.44v.23C468.77,61.51,469.37,71.25,474.05,71.9Z"/><path id="Trazado_5509" data-name="Trazado 5509" class="cls-7" d="M484.78,37.35c-.29,4.31-2.15,19.84-13.71,21.38a14.77,14.77,0,0,1-2.1.1V58.6a4.9,4.9,0,0,0,0-1.43,57,57,0,0,0-3.22-12.69Z"/><path id="Trazado_5510" data-name="Trazado 5510" class="cls-3" d="M486.59,14.35c2.59,7.39,0,29.37-4.83,34.53-7,7.48-19.1,8.88-25.31-.11-6.05-8.72-2.14-37.31,3.33-42.05C467.74-.28,482.66,3.38,486.59,14.35Z"/><path id="Trazado_5511" data-name="Trazado 5511" class="cls-7" d="M465.66,28.68s.1.09.09.15c-.25,1.44-.29,3.18.9,3.81h0C465.12,32.3,465.23,30,465.66,28.68Z"/><path id="Trazado_5512" data-name="Trazado 5512" class="cls-7" d="M467.11,27.35c2.29.15,1.8,4.92-.31,4.76S465.23,27.2,467.11,27.35Z"/><path id="Trazado_5513" data-name="Trazado 5513" class="cls-7" d="M457.7,28.07a.13.13,0,0,0-.12.13c-.09,1.43-.44,3.15-1.78,3.49m0,.09c1.58,0,2-2.29,1.9-3.71Z"/><path id="Trazado_5514" data-name="Trazado 5514" class="cls-7" d="M456.62,26.41c-2.24-.43-2.91,4.31-.83,4.71S458.49,26.75,456.62,26.41Z"/><path id="Trazado_5515" data-name="Trazado 5515" class="cls-7" d="M469.12,25.37c-.59-.24-1.11-.56-1.69-.85a2.92,2.92,0,0,1-1.56-1.21,1,1,0,0,1,.27-1.19,2.34,2.34,0,0,1,2.42,0,3.74,3.74,0,0,1,1.87,1.81,1.14,1.14,0,0,1-.6,1.43A1,1,0,0,1,469.12,25.37Z"/><path id="Trazado_5516" data-name="Trazado 5516" class="cls-7" d="M455,23.81a12.72,12.72,0,0,0,1.85-.29,3,3,0,0,0,1.83-.68,1,1,0,0,0,0-1.27,2.37,2.37,0,0,0-2.32-.72A3.6,3.6,0,0,0,454.12,22a1.13,1.13,0,0,0,.12,1.52h0a1,1,0,0,0,.8.25Z"/><path id="Trazado_5517" data-name="Trazado 5517" class="cls-7" d="M466.13,42.23c-.32.38-.6.89-1.11,1a3.48,3.48,0,0,1-1.56-.24m0,.09a1.85,1.85,0,0,0,1.87.63,1.54,1.54,0,0,0,1-1.43c0-.11-.14-.14-.19,0Z"/><path id="Trazado_5518" data-name="Trazado 5518" class="cls-7" d="M464.78,37.75a4.75,4.75,0,0,1-3.41,1.88,5.91,5.91,0,0,1-1.73-.11,4.85,4.85,0,0,1-.63-.16.36.36,0,0,1-.24-.36h0l.41-3.14c-.41.17-2.53.89-2.42.31a79.9,79.9,0,0,1,3.37-15c0-.14.29-.07.27,0-.58,4.72-1.92,9.3-2.56,14a8,8,0,0,1,2.32-.45c.08,0-.61,3.8-.58,3.87a6.45,6.45,0,0,0,5.1-1.07C464.78,37.5,464.87,37.65,464.78,37.75Z"/><path id="Trazado_5519" data-name="Trazado 5519" class="cls-7" d="M486,32.42c-5.24,0-6.35-9.92-6.35-9.92s-9-1.45-10.38-8.55c0,0-8.46,5.75-15.22,3.32S448.17,6,448.92,4.32c1.71-3.9,7.34,1,7.34,1s8.47-5.47,18-4.57c7.83.72,11.82,8.4,11.82,8.4s4.21.89,5.59,4S489.34,32.42,486,32.42Z"/><path id="Trazado_5520" data-name="Trazado 5520" class="cls-7" d="M481.79,22.55c-6.94,1-11.61-3.8-12.68-10.73,0-.09-.15-.09-.12,0,.25,6.52,6.13,13.71,12.88,11.05a.17.17,0,0,0,.1-.19.15.15,0,0,0-.16-.13Z"/><path id="Trazado_5521" data-name="Trazado 5521" class="cls-7" d="M485.91,9.14h-.08m.06.08h0c2,.92,4.2,1.61,5.59,3.45,1.67,2.23,1.37,5.2.75,7.76-.92,4-2.75,9.14-6.17,11.51a.19.19,0,0,0,.21.31c4-2.54,6.32-9.24,6.85-14,.51-5.19-2.61-8.14-7.21-9.15Z"/><path id="Trazado_5522" data-name="Trazado 5522" class="cls-7" d="M461.67,15.93a9.2,9.2,0,0,1-10.62-.17c-3.7-2.88-3-7.72-1.47-11.76,0-.18-.18-.41-.31-.22-2.11,3.54-2.2,8.89.84,12s8.46,3,11.86.67a.29.29,0,0,0,0-.41A.25.25,0,0,0,461.67,15.93Z"/><path id="Trazado_5523" data-name="Trazado 5523" class="cls-3" d="M481.72,33.11s4.44-7.2,7.56-5.58,0,12-3.63,13.51a3.55,3.55,0,0,1-4.84-1.69h0l-.07-.16Z"/><path id="Trazado_5524" data-name="Trazado 5524" class="cls-7" d="M488.29,30.47c.07,0,.08.09,0,.1-2.42,1.17-3.7,3.66-4.54,6.22a2,2,0,0,1,2.76-.85h0l.24.15s0,.17-.07.15a2.19,2.19,0,0,0-2.42.92,12,12,0,0,0-1.11,2.13c-.11.24-.52.13-.44-.14h0C482.56,35.74,484.88,30.94,488.29,30.47Z"/><path id="Trazado_5525" data-name="Trazado 5525" class="cls-11" d="M469,58.07l5.12,12.21L488.2,54.14l4.36,4.93S479,84.45,478.84,83.29l-5.15-10.55-6.78,7.61V61.69Z"/><path id="Trazado_5526" data-name="Trazado 5526" class="cls-7" d="M466.43,71.24c.11-3.08.13-6.19.37-9.25a.08.08,0,0,1,.07-.1h0a.09.09,0,0,1,.1.1h0c.68,2.87.24,14.71.34,17.52h0c.29-.33,6.31-6.73,6.36-6.65,1.11,1.67,4.91,9.32,5.18,10.08,2.15-4,11.29-19.91,13.86-23.73a.09.09,0,0,1,.13,0h0a.11.11,0,0,1,0,.13h0C491,63.54,479.14,84.45,479,84.45a120.25,120.25,0,0,1-5.49-11.09c-1,1.43-7.06,8.63-7.09,8.13Q466.17,76.38,466.43,71.24Z"/><polygon id="Rect치ngulo_4170" data-name="Rect치ngulo 4170" class="cls-12" points="407.95 100.59 463.7 98.19 466.68 174.33 410.93 176.74 407.95 100.59"/><polygon id="Rect치ngulo_4171" data-name="Rect치ngulo 4171" class="cls-7" points="422.72 95.98 449.16 94.88 449.48 103.27 423.04 104.38 422.72 95.98"/><path id="Trazado_5527" data-name="Trazado 5527" class="cls-7" d="M443.14,95.17l-3.25.13-.16-3.81-7.91.33.16,3.81-3.25.13-.28-7.06L443,88.1Z"/><path id="Trazado_5528" data-name="Trazado 5528" class="cls-3" d="M505.13,77.38c16.56,31.05,24,75.88,16.81,87-5.14,8.06-49.85,7.85-75.86,7-4.84-.15,1.37-41.34,6.54-40.82,9.16.91,39.31-1.36,39.91-1.35,1.37,0-2.16-28.53-3-47.09C488.38,58.47,497.7,63.51,505.13,77.38Z"/><path id="Trazado_5529" data-name="Trazado 5529" class="cls-3" d="M404.3,129.71a6.4,6.4,0,0,0,1.55,6.94,9.31,9.31,0,0,0-3.53,5.08c-.84,3.72,4.37,6.72,4.37,6.72a11.94,11.94,0,0,0-2.9,6c-.45,3.66,4.39,7.46,4.39,7.46a10.6,10.6,0,0,0,.63,7c2.9,5.76,12.28,6.34,18.24,6.82s23.31-4,26.6-4.5l3.29-40.06s-26-10-33.15-9.59C417.76,122,406.11,125.23,404.3,129.71Z"/><path id="Trazado_5530" data-name="Trazado 5530" class="cls-7" d="M405.85,136.47c6.24-2,12.71-2,19.2-2.34a.11.11,0,0,1,.1.12h0a.13.13,0,0,1-.1.11c-6.43.27-12.73,1.9-19.13,2.44a.17.17,0,0,1-.15-.19A.17.17,0,0,1,405.85,136.47Z"/><path id="Trazado_5531" data-name="Trazado 5531" class="cls-7" d="M406.61,148.38a16.57,16.57,0,0,1,4.44-.36c1.57,0,3.15,0,4.74.08q4.72.15,9.44.54a.11.11,0,0,1,.12.1h0a.09.09,0,0,1-.07.12h0c-3.15-.07-6.29-.12-9.44-.07-1.57,0-3.15,0-4.72.11a19.65,19.65,0,0,1-4.47-.09.24.24,0,0,1-.15-.28.2.2,0,0,1,.15-.16Z"/><path id="Trazado_5532" data-name="Trazado 5532" class="cls-7" d="M408.23,162a11.37,11.37,0,0,1,4-.08l4.31.2c2.87.12,5.75.25,8.63.25.14,0,.15.25,0,.25H412.11a10.88,10.88,0,0,1-3.89-.42.09.09,0,0,1-.07-.11A.09.09,0,0,1,408.23,162Z"/><path id="Trazado_5533" data-name="Trazado 5533" class="cls-9" d="M456.42,129.84l.62,43s57,1.18,64.95-6.34,1.68-53.09-13.71-84.9c-8.47-17.4-20.43-27.92-19.35,3.26s3,42.68,2.84,43S456.42,129.84,456.42,129.84Z"/><path id="Trazado_5534" data-name="Trazado 5534" class="cls-8" d="M493.23,100l-.66.13A1.34,1.34,0,0,1,491,99a1.82,1.82,0,0,1,0-.32,1.13,1.13,0,0,0-.52-.92,1.18,1.18,0,0,0-.58-.19l-.49-.1v-.09l.49-.09a1.38,1.38,0,0,1,1.62,1.12h0a1.71,1.71,0,0,1,0,.32,1.17,1.17,0,0,0,.48,1,1.26,1.26,0,0,0,.56.2A3.83,3.83,0,0,1,493.23,100Zm9.1,44.26a1.17,1.17,0,0,1,.55.19,1.09,1.09,0,0,1,.52.91,1.38,1.38,0,0,0,1.3,1.45h.3c.22,0,.45-.09.67-.15l-.67-.14a1.1,1.1,0,0,1-1.05-1.14,1.44,1.44,0,0,0-.88-1.27,1.2,1.2,0,0,0-.75,0l-.67.14a3.84,3.84,0,0,0,.68.09Zm.25-68.39a1.08,1.08,0,0,1,.58.19,1.1,1.1,0,0,1,.51.91A1.4,1.4,0,0,0,505,78.4h.25l.68-.16-.68-.14a1,1,0,0,1-.55-.2,1.2,1.2,0,0,1-.49-1,1.26,1.26,0,0,0-1.09-1.38H503a1,1,0,0,0-.43,0,5.47,5.47,0,0,0-.68.14,3.84,3.84,0,0,1,.68.09ZM459,168.41a1.07,1.07,0,0,1-.55-.19,1.11,1.11,0,0,1-.48-.95,1.44,1.44,0,0,0-.88-1.27h-.14v.51a1.16,1.16,0,0,1,.46.86,1.39,1.39,0,0,0,1.34,1.46H459l.69-.14Zm40.94-8.8a1.16,1.16,0,0,1,1.07,1.11,1.38,1.38,0,0,0,1.3,1.44h.3l.66-.13c-.21-.06-.44-.11-.66-.15a1.29,1.29,0,0,1-.57-.19,1.17,1.17,0,0,1-.48-.95,1.45,1.45,0,0,0-.89-1.27,1.37,1.37,0,0,0-.75,0l-.66.15c.22,0,.45.06.68.08ZM465,154.76a1.14,1.14,0,0,1,.57.19,1.06,1.06,0,0,1,.51.91,1.39,1.39,0,0,0,1.32,1.45h.28c.22,0,.45-.09.67-.15l-.67-.13a1.26,1.26,0,0,1-.56-.2,1.08,1.08,0,0,1-.48-1,1.45,1.45,0,0,0-.9-1.27,1.33,1.33,0,0,0-.74,0l-.67.14a3.83,3.83,0,0,0,.69.09Zm20.8-17.87a1.41,1.41,0,0,1,.57.18,1.09,1.09,0,0,1,.52.91,1.26,1.26,0,0,0,1.05,1.42,1,1,0,0,0,.55-.06l.66-.14-.66-.15a1.08,1.08,0,0,1-1.05-1.13,1.46,1.46,0,0,0-.9-1.27,1.33,1.33,0,0,0-.74,0q-.33.06-.66.15A3.74,3.74,0,0,0,485.78,136.89Zm-29.25-2.22v.22l.51-.12Zm55.63,31.52a1.3,1.3,0,0,1,.57.17,1.12,1.12,0,0,1,.52.92,1.36,1.36,0,0,0,1.21,1.45.86.86,0,0,0,.32,0,3.8,3.8,0,0,0,.67-.14l-.67-.14a1.38,1.38,0,0,1-.56-.19,1.21,1.21,0,0,1-.49-.95,1.25,1.25,0,0,0-1.09-1.38h-.12a1.14,1.14,0,0,0-.45,0l-.66.14Zm-15.29-48.51a1.26,1.26,0,0,1,.57.17,1.06,1.06,0,0,1,.51.92,1.43,1.43,0,0,0,.85,1.35,1,1,0,0,0,.73,0,5,5,0,0,0,.69-.14,3.83,3.83,0,0,0-.69-.14,1.18,1.18,0,0,1-.54-.2,1.06,1.06,0,0,1-.48-1,1.45,1.45,0,0,0-.9-1.26,1.17,1.17,0,0,0-.74,0,3.38,3.38,0,0,0-.69.14Zm18.65,12.25a1.26,1.26,0,0,1,.57.17,1.08,1.08,0,0,1,.51.92,1.45,1.45,0,0,0,.84,1.36,1.17,1.17,0,0,0,.74,0,5.12,5.12,0,0,0,.68-.14l-.68-.14a1.52,1.52,0,0,1-.54-.19,1.12,1.12,0,0,1-.49-1,1.31,1.31,0,0,0-1.21-1.38,1.48,1.48,0,0,0-.42,0l-.68.14.69.09Zm-.1-12.6a1.12,1.12,0,0,1-.52.29,1,1,0,0,1-1-.27,1.32,1.32,0,0,0-1.5-.32,1.25,1.25,0,0,0-.58.51l-.38.59.56-.38a1.11,1.11,0,0,1,.52-.28,1.07,1.07,0,0,1,1,.31,1.3,1.3,0,0,0,1.91,0l.17-.22c.12-.21.26-.4.38-.61a6.25,6.25,0,0,1-.6.4ZM492.75,66.24a1.36,1.36,0,0,1-.52.3,1,1,0,0,1-.75-.1,2.27,2.27,0,0,0-.3.46,1.15,1.15,0,0,0,1.21,0,1.49,1.49,0,0,0,.55-.51c.11-.2.25-.39.38-.59a4.81,4.81,0,0,0-.57.44Zm-.45,15.14a1.5,1.5,0,0,1-.18.59,1,1,0,0,1-.88.54,1.36,1.36,0,0,0-1.21.89,1.44,1.44,0,0,0-.09.77,2.88,2.88,0,0,0,.14.71,5.57,5.57,0,0,0,.14-.71,1.19,1.19,0,0,1,.2-.57,1,1,0,0,1,.89-.51,1.4,1.4,0,0,0,1.4-1.42h0a1.41,1.41,0,0,0,0-.29,2.85,2.85,0,0,0-.12-.72,5.44,5.44,0,0,0-.2.72Zm22.5,72.33a1.7,1.7,0,0,1-.19.59,1,1,0,0,1-.88.55,1.38,1.38,0,0,0-1.38,1.39h0v.27a3.43,3.43,0,0,0,.14.71,5.57,5.57,0,0,0,.14-.71,1.14,1.14,0,0,1,1.09-1.09,1.41,1.41,0,0,0,1.33-1.47v0h0a.81.81,0,0,0,0-.22,2.85,2.85,0,0,0-.12-.71c-.06.23-.11.47-.15.71ZM507,105.37a1.73,1.73,0,0,1-.17.6,1,1,0,0,1-.89.53,1.36,1.36,0,0,0-1.36,1.36h0a1.71,1.71,0,0,0,0,.32,2.85,2.85,0,0,0,.12.7,4.3,4.3,0,0,0,.13-.7,1.52,1.52,0,0,1,.19-.59,1,1,0,0,1,.91-.5,1.4,1.4,0,0,0,1.21-.93,1.51,1.51,0,0,0,0-.79,2.87,2.87,0,0,0-.13-.71,6,6,0,0,1-.09.71Zm-28.81,42a1.19,1.19,0,0,1-.17.61,1.06,1.06,0,0,1-.88.53,1.36,1.36,0,0,0-1.21.89,1.27,1.27,0,0,0-.07.77,4.11,4.11,0,0,0,.13.7,4.3,4.3,0,0,1,.13-.7,2,2,0,0,1,.18-.58,1,1,0,0,1,.91-.51,1.22,1.22,0,0,0,1.31-1.15.49.49,0,0,0,0-.12,1.62,1.62,0,0,0,0-.44,3.32,3.32,0,0,0-.13-.7,5.16,5.16,0,0,0-.1.67Zm-8.07,18a1.39,1.39,0,0,1-.17.6,1.11,1.11,0,0,1-.88.55,1.38,1.38,0,0,0-1.38,1.39h0v.27a3.43,3.43,0,0,0,.14.71,5.55,5.55,0,0,0,.13-.71,1.52,1.52,0,0,1,.19-.59,1.11,1.11,0,0,1,.91-.5,1.41,1.41,0,0,0,1.33-1.47v0h0a.88.88,0,0,0,0-.23,5.89,5.89,0,0,0-.13-.71,1.44,1.44,0,0,0-.12.71Zm20.83-.9a1.54,1.54,0,0,1-.17.6,1,1,0,0,1-.87.53,1.41,1.41,0,0,0-1.3.89,1.51,1.51,0,0,0,0,.79q.06.34.15.69a5.58,5.58,0,0,1,.13-.69,1.26,1.26,0,0,1,.2-.59,1,1,0,0,1,.9-.5,1.31,1.31,0,0,0,1.31-1.27,1.67,1.67,0,0,0-.06-.44,4.63,4.63,0,0,0-.13-.71,3.55,3.55,0,0,0-.19.71Zm11.44-72.08a1.39,1.39,0,0,1,.52-.31,1,1,0,0,1,1,.28,1.31,1.31,0,0,0,1.49.33,1.52,1.52,0,0,0,.59-.51,6.18,6.18,0,0,0,.37-.61c-.19.13-.38.26-.56.41a1.38,1.38,0,0,1-.54.27,1,1,0,0,1-1-.31,1.3,1.3,0,0,0-1.9,0h0a.83.83,0,0,0-.19.23l-.38.58c.18-.14.36-.26.55-.38Zm-30.5,42.73a1.22,1.22,0,0,1,.52-.29,1,1,0,0,1,1,.28,1.31,1.31,0,0,0,1.5.32,1.25,1.25,0,0,0,.58-.51c.12-.2.28-.39.39-.6l-.58.4a1.32,1.32,0,0,1-.52.28,1.07,1.07,0,0,1-1-.32,1.32,1.32,0,0,0-1.51-.28,1.25,1.25,0,0,0-.55.52,6.17,6.17,0,0,0-.39.6c.19-.12.36-.27.55-.4Zm5.32,26.47a1.36,1.36,0,0,1,.52-.3,1.07,1.07,0,0,1,1,.26,1.28,1.28,0,0,0,1.49.33,1.31,1.31,0,0,0,.59-.5c.14-.2.26-.39.38-.6a4.57,4.57,0,0,0-.57.41,1.54,1.54,0,0,1-.53.26,1,1,0,0,1-1-.31,1.3,1.3,0,0,0-1.91,0,1,1,0,0,0-.18.22l-.39.6c.18-.11.36-.29.56-.39Zm23.84-29.08a1.12,1.12,0,0,1,.52-.29,1,1,0,0,1,1,.26,1.28,1.28,0,0,0,1.48.32,1.08,1.08,0,0,0,.6-.51l.38-.58c-.2.11-.38.25-.58.38a1.05,1.05,0,0,1-.53.28,1,1,0,0,1-1-.31,1.33,1.33,0,0,0-1.52-.29,1.67,1.67,0,0,0-.57.52c-.12.21-.25.4-.37.61.17-.11.35-.28.54-.4Zm16.45,10.54a1.36,1.36,0,0,1,.52-.3,1,1,0,0,1,1,.28,1.29,1.29,0,0,0,1.88.07,1.69,1.69,0,0,0,.2-.25,6.17,6.17,0,0,0,.39-.6,4.6,4.6,0,0,0-.58.4,1.32,1.32,0,0,1-.52.28,1.08,1.08,0,0,1-1-.32,1.33,1.33,0,0,0-1.5-.28,1.25,1.25,0,0,0-.57.52,6.17,6.17,0,0,0-.39.6l.51-.4Zm-27.6,8a1.08,1.08,0,0,1,.52-.27,1.07,1.07,0,0,1,1,.26,1.32,1.32,0,0,0,1.93,0h0l.15-.18c.12-.2.25-.39.36-.6l-.56.39a1.06,1.06,0,0,1-1.51,0,1.3,1.3,0,0,0-1.52-.29,1.63,1.63,0,0,0-.56.52c-.12.2-.26.39-.38.61l.5-.44Zm-27.43-7a1.39,1.39,0,0,1,.52-.31,1,1,0,0,1,1,.28,1.31,1.31,0,0,0,1.49.33,1.58,1.58,0,0,0,.59-.5c.12-.21.25-.4.37-.61-.19.12-.38.26-.56.4a1.27,1.27,0,0,1-.54.28,1.07,1.07,0,0,1-1-.32,1.29,1.29,0,0,0-1.88,0h0a1.37,1.37,0,0,0-.19.23l-.38.6a5.77,5.77,0,0,1,.51-.39Zm-5.71,10.15v.39l.12-.15c.12-.2.27-.38.38-.6-.2.12-.38.24-.56.37Z"/><path id="Trazado_5535" data-name="Trazado 5535" class="cls-9" d="M452.81,174.69l10-.48-1.63-47-9.58-.24Z"/><path id="Trazado_5536" data-name="Trazado 5536" class="cls-7" d="M462.42,150.71c-.17-3.25-.36-6.51-.58-9.76s-.31-6.52-.73-9.73c0-.14-.24-.15-.24,0-.11,3.14.1,6.35.2,9.45s.24,6.65.37,10c.25,6.57.75,13.12,1.37,19.67,0,.16.2.11.2,0C462.93,163.74,462.81,157.22,462.42,150.71Z"/><path id="Trazado_5537" data-name="Trazado 5537" class="cls-7" d="M525,136a164.85,164.85,0,0,0-7.1-30.72l-.17-.5c-.19-1.27-.38-2.54-.59-3.8-.35-2-.82-4-1.37-6,0-.09-.13,0-.13,0,.25,2,.51,4,.88,6,.08.29.12.58.2.86-1.55-4.53-3.23-9-5.11-13.43,0-.09-.15,0-.13,0,3.33,9.8,6.51,19.63,8.89,29.75a160.12,160.12,0,0,1,4.11,30.46c.11,2.88.15,5.76,0,8.55a18.54,18.54,0,0,1-1.64,8.12.11.11,0,0,0,.07.16.11.11,0,0,0,.13,0,20,20,0,0,0,2.18-6.49,55.85,55.85,0,0,0,.52-7.42A110.35,110.35,0,0,0,525,136Z"/><path id="Trazado_5538" data-name="Trazado 5538" class="cls-7" d="M494.73,127.92c-.89-.11-1.81-.19-2.73-.24a144.1,144.1,0,0,0-1-16.08c-.54-5.48-1.12-11-1.79-16.49m-.09,0c.12,3.46.3,6.93.49,10.4-.35-1.68-.65-3.38-.94-5.07,0-.12-.18-.08-.18,0a32,32,0,0,0,.71,4.68c.15.65.33,1.27.51,1.93.07,1.56.17,3.11.27,4.68a138.12,138.12,0,0,0,1.63,15.86,123,123,0,0,0-13.71.31,146.93,146.93,0,0,0-16.62,1.58,9.6,9.6,0,0,0,.11-2.88c-.28-.39-8-.33-10.39-.09a29.55,29.55,0,0,0,.45,3.51.11.11,0,0,0,.13.08h0a.14.14,0,0,0,.08-.07c0-1.07-.09-1.65-.11-2.88h9.14a16.45,16.45,0,0,0,.31,2.61s11.33-.58,16.93-.84c2.75-.15,5.49-.24,8.23-.32s5.66-.11,8.46-.39a.16.16,0,0,0,.23-.23.14.14,0,0,0-.09,0Z"/></g></g></g><rect class="cls-13" width="577" height="410.87"/></g></g></svg>