<svg xmlns="http://www.w3.org/2000/svg" width="44.563" height="63.662" viewBox="0 0 44.563 63.662"><defs><style>.a{fill:#ea4236;}.b{fill:#fff;}</style></defs><g transform="translate(-319.242 -20.548)"><path class="a" d="M442.334,42.871a22.281,22.281,0,0,0-22.282,22.282c0,16.711,22.282,41.38,22.282,41.38s22.282-24.669,22.282-41.38A22.281,22.281,0,0,0,442.334,42.871Z" transform="translate(-100.81 -22.323)"/><path class="b" d="M458.952,74.535a1.4,1.4,0,0,1-.75,1.244l-11.174,6.285a1.406,1.406,0,0,1-1.613,0l-11.175-6.285a1.4,1.4,0,0,1-.75-1.244V61.8a1.4,1.4,0,0,1,.75-1.245l11.176-6.281a1.4,1.4,0,0,1,1.613,0L458.2,60.557a1.4,1.4,0,0,1,.749,1.245V74.535M446.221,57.063l-2.674,1.514,8.333,4.8,2.772-1.57-8.431-4.739m-8.43,4.739,8.43,4.743,2.772-1.556-8.318-4.813L437.791,61.8m-1.473,11.9,8.488,4.781V68.989l-8.488-4.768V73.7m19.8,0V64.221l-8.487,4.768v9.492Z" transform="translate(-104.445 -25.341)"/></g></svg>