<svg xmlns="http://www.w3.org/2000/svg" width="477.743" height="284.12" viewBox="0 0 477.743 284.12"><defs><style>.a{fill:#ebebeb;}.b{fill:#fff;}.c{fill:#263238;}.d{fill:#c7c7c7;}.e{fill:#ffc727;}.f,.j{opacity:0.1;}.f,.i{isolation:isolate;}.g{fill:#dd6a57;}.h{fill:#455a64;}.i{opacity:0.2;}.k{opacity:0.5;}.l{fill:#dbdbdb;}.m{fill:#a6a6a6;}.n{opacity:0.384;}.o{fill:#37474f;}.p{fill:#f7a9a0;}.q{fill:#f392b9;}</style></defs><g transform="translate(-47.51 -32.729)"><g transform="translate(69.027 32.729)"><path class="a" d="M77.01,126.092h37.717v45.8h9.7v-25.93h47.958v41.058h6.346V90.673H220.41v26.448h21.364v32.9h6.47V129.331h37.885v61.751h11.087v-50.2H331.87V102.752h23.56V81.03h27.258v96.317h9.161v-40.19h44.895v57.528h6.214V147.726h45.529V105.421h23.231V267.946H77.01Z" transform="translate(-77.01 -68.947)"/><rect class="b" width="6.382" height="8.753" transform="translate(4.624 62.908)"/><rect class="b" width="6.382" height="8.753" transform="translate(15.689 62.908)"/><rect class="b" width="6.382" height="8.753" transform="translate(26.747 62.908)"/><rect class="b" width="6.382" height="8.753" transform="translate(4.624 76.081)"/><rect class="b" width="6.382" height="8.753" transform="translate(15.689 76.081)"/><rect class="b" width="6.382" height="8.753" transform="translate(26.747 76.081)"/><rect class="b" width="6.382" height="8.753" transform="translate(4.624 89.254)"/><rect class="b" width="6.382" height="8.753" transform="translate(15.689 89.254)"/><rect class="b" width="6.382" height="8.753" transform="translate(26.747 89.254)"/><rect class="b" width="6.382" height="8.753" transform="translate(4.624 102.427)"/><rect class="b" width="6.382" height="8.753" transform="translate(15.689 102.427)"/><rect class="b" width="6.382" height="8.753" transform="translate(26.747 102.427)"/><rect class="b" width="6.382" height="7.301" transform="translate(225.531 78.189)"/><rect class="b" width="6.382" height="7.301" transform="translate(236.588 78.189)"/><rect class="b" width="6.382" height="7.301" transform="translate(247.646 78.189)"/><rect class="b" width="6.382" height="7.301" transform="translate(225.531 89.181)"/><rect class="b" width="6.382" height="7.301" transform="translate(236.588 89.181)"/><rect class="b" width="6.382" height="7.301" transform="translate(247.646 89.181)"/><rect class="b" width="6.382" height="7.301" transform="translate(225.531 100.173)"/><rect class="b" width="6.382" height="7.301" transform="translate(236.588 100.173)"/><rect class="b" width="6.382" height="7.301" transform="translate(247.646 100.173)"/><rect class="b" width="6.382" height="7.301" transform="translate(225.531 111.158)"/><rect class="b" width="6.382" height="7.301" transform="translate(236.588 111.158)"/><rect class="b" width="6.382" height="7.301" transform="translate(247.646 111.158)"/><rect class="b" width="6.382" height="7.301" transform="translate(225.531 122.427)"/><rect class="b" width="6.382" height="7.301" transform="translate(236.588 122.427)"/><rect class="b" width="6.382" height="7.301" transform="translate(247.646 122.427)"/><rect class="b" width="6.382" height="7.301" transform="translate(225.531 133.689)"/><rect class="b" width="6.382" height="7.301" transform="translate(236.588 133.689)"/><rect class="b" width="6.382" height="7.301" transform="translate(247.646 133.689)"/><rect class="b" width="6.382" height="7.301" transform="translate(225.531 144.951)"/><rect class="b" width="6.382" height="7.301" transform="translate(236.588 144.951)"/><rect class="b" width="6.382" height="7.301" transform="translate(247.646 144.951)"/><rect class="b" width="6.382" height="7.301" transform="translate(225.531 156.213)"/><rect class="b" width="6.382" height="7.301" transform="translate(236.588 156.213)"/><rect class="b" width="6.382" height="7.301" transform="translate(247.646 156.213)"/><rect class="b" width="36.733" height="5.478" transform="translate(52.867 82.631)"/><rect class="b" width="36.733" height="5.478" transform="translate(52.867 93.258)"/><rect class="b" width="36.733" height="5.478" transform="translate(52.867 103.886)"/><rect class="b" width="36.733" height="5.478" transform="translate(52.867 114.506)"/><rect class="b" width="36.733" height="5.478" transform="translate(52.867 125.133)"/><rect class="b" width="36.733" height="5.478" transform="translate(52.867 135.76)"/><rect class="b" width="36.733" height="5.478" transform="translate(52.867 146.388)"/><rect class="b" width="36.733" height="5.478" transform="translate(52.867 157.008)"/><rect class="b" width="33.771" height="5.478" transform="translate(320.265 73.316)"/><rect class="b" width="33.771" height="5.478" transform="translate(320.265 83.944)"/><rect class="b" width="33.771" height="5.478" transform="translate(320.265 94.564)"/><rect class="b" width="33.771" height="5.478" transform="translate(320.265 105.191)"/><rect class="b" width="33.771" height="5.478" transform="translate(320.265 115.819)"/><rect class="b" width="33.771" height="5.478" transform="translate(320.265 126.439)"/><rect class="b" width="33.771" height="5.478" transform="translate(320.265 137.066)"/><rect class="b" width="33.771" height="5.478" transform="translate(320.265 147.693)"/><rect class="b" width="33.771" height="5.478" transform="translate(320.265 157.788)"/><rect class="b" width="33.771" height="5.478" transform="translate(320.265 167.883)"/><rect class="b" width="33.771" height="5.478" transform="translate(320.265 177.978)"/><rect class="b" width="33.771" height="5.478" transform="translate(320.265 188.08)"/><rect class="b" width="35.675" height="5.478" transform="translate(372.972 86.147)"/><rect class="b" width="35.675" height="5.478" transform="translate(372.972 96.774)"/><rect class="b" width="35.675" height="5.478" transform="translate(372.972 107.401)"/><rect class="b" width="35.675" height="5.478" transform="translate(372.972 118.029)"/><rect class="b" width="35.675" height="5.478" transform="translate(372.972 128.649)"/><rect class="b" width="35.675" height="5.478" transform="translate(372.972 139.276)"/><rect class="b" width="35.675" height="5.478" transform="translate(372.972 149.903)"/><rect class="b" width="35.675" height="5.478" transform="translate(372.972 160.524)"/><rect class="b" width="35.675" height="5.478" transform="translate(372.972 170.035)"/><rect class="b" width="35.675" height="5.478" transform="translate(372.972 179.546)"/><rect class="b" width="35.675" height="5.478" transform="translate(372.972 189.058)"/><rect class="b" width="11.342" height="5.288" transform="translate(182.321 65.337)"/><rect class="b" width="11.342" height="5.288" transform="translate(182.321 75.599)"/><rect class="b" width="11.342" height="5.288" transform="translate(182.321 85.862)"/><rect class="b" width="11.342" height="5.288" transform="translate(182.321 96.125)"/><rect class="b" width="11.342" height="5.288" transform="translate(182.321 106.38)"/><rect class="b" width="11.342" height="5.288" transform="translate(182.321 116.643)"/><rect class="b" width="11.342" height="5.288" transform="translate(182.321 126.905)"/><rect class="b" width="11.342" height="5.288" transform="translate(182.321 137.168)"/><rect class="b" width="11.342" height="5.288" transform="translate(197.755 65.337)"/><rect class="b" width="11.342" height="5.288" transform="translate(197.755 75.599)"/><rect class="b" width="11.342" height="5.288" transform="translate(197.755 85.862)"/><rect class="b" width="11.342" height="5.288" transform="translate(197.755 96.125)"/><rect class="b" width="11.342" height="5.288" transform="translate(197.755 106.38)"/><rect class="b" width="11.342" height="5.288" transform="translate(197.755 116.643)"/><rect class="b" width="11.342" height="5.288" transform="translate(197.755 126.905)"/><rect class="b" width="11.342" height="5.288" transform="translate(197.755 137.168)"/><rect class="b" width="11.816" height="8.337" transform="translate(108.046 27.269)"/><rect class="b" width="11.816" height="8.337" transform="translate(125.661 27.269)"/><rect class="b" width="11.816" height="8.337" transform="translate(108.046 39.523)"/><rect class="b" width="11.816" height="8.337" transform="translate(125.661 39.523)"/><rect class="b" width="11.816" height="8.337" transform="translate(108.046 51.77)"/><rect class="b" width="11.816" height="8.337" transform="translate(125.661 51.77)"/><rect class="b" width="11.816" height="8.337" transform="translate(108.046 64.024)"/><rect class="b" width="11.816" height="8.337" transform="translate(125.661 64.024)"/><rect class="b" width="11.816" height="8.337" transform="translate(108.046 76.278)"/><rect class="b" width="11.816" height="8.337" transform="translate(125.661 76.278)"/><rect class="b" width="11.816" height="8.337" transform="translate(108.046 88.524)"/><rect class="b" width="11.816" height="8.337" transform="translate(125.661 88.524)"/><rect class="b" width="11.816" height="8.337" transform="translate(108.046 100.778)"/><rect class="b" width="11.816" height="8.337" transform="translate(125.661 100.778)"/><rect class="b" width="11.816" height="8.337" transform="translate(108.046 113.025)"/><rect class="b" width="11.816" height="8.337" transform="translate(125.661 113.025)"/><rect class="b" width="11.816" height="8.337" transform="translate(147.499 51.77)"/><rect class="b" width="11.816" height="8.337" transform="translate(147.499 64.024)"/><rect class="b" width="11.816" height="8.337" transform="translate(147.499 76.278)"/><rect class="b" width="11.816" height="8.337" transform="translate(147.499 88.524)"/><rect class="b" width="11.816" height="8.337" transform="translate(147.499 100.778)"/><rect class="b" width="11.816" height="8.337" transform="translate(147.499 113.025)"/><rect class="b" width="11.816" height="8.337" transform="translate(108.046 125.133)"/><rect class="b" width="11.816" height="8.337" transform="translate(125.661 125.133)"/><rect class="b" width="11.816" height="8.337" transform="translate(147.499 125.133)"/><rect class="b" width="11.816" height="8.337" transform="translate(108.046 137.241)"/><rect class="b" width="11.816" height="8.337" transform="translate(125.661 137.241)"/><rect class="b" width="11.816" height="8.337" transform="translate(147.499 137.241)"/><rect class="b" width="11.816" height="8.337" transform="translate(108.046 149.342)"/><rect class="b" width="11.816" height="8.337" transform="translate(125.661 149.342)"/><rect class="b" width="11.816" height="8.337" transform="translate(147.499 149.342)"/><rect class="b" width="11.816" height="8.337" transform="translate(108.046 161.45)"/><rect class="b" width="11.816" height="8.337" transform="translate(125.661 161.45)"/><rect class="b" width="11.816" height="8.337" transform="translate(147.499 161.45)"/><rect class="b" width="11.816" height="8.337" transform="translate(108.046 173.551)"/><rect class="b" width="11.816" height="8.337" transform="translate(125.661 173.551)"/><rect class="b" width="11.816" height="8.337" transform="translate(147.499 173.551)"/><rect class="b" width="6.382" height="7.301" transform="translate(259.674 39.173)"/><rect class="b" width="6.382" height="7.301" transform="translate(270.732 39.173)"/><rect class="b" width="6.382" height="7.301" transform="translate(259.674 50.165)"/><rect class="b" width="6.382" height="7.301" transform="translate(270.732 50.165)"/><rect class="b" width="6.382" height="7.301" transform="translate(259.674 61.157)"/><rect class="b" width="6.382" height="7.301" transform="translate(270.732 61.157)"/><rect class="b" width="6.382" height="7.301" transform="translate(259.674 72.149)"/><rect class="b" width="6.382" height="7.301" transform="translate(270.732 72.149)"/><rect class="b" width="6.382" height="7.301" transform="translate(259.674 83.411)"/><rect class="b" width="6.382" height="7.301" transform="translate(270.732 83.411)"/><rect class="b" width="6.382" height="7.301" transform="translate(259.674 94.673)"/><rect class="b" width="6.382" height="7.301" transform="translate(270.732 94.673)"/><rect class="b" width="6.382" height="7.301" transform="translate(259.674 105.935)"/><rect class="b" width="6.382" height="7.301" transform="translate(270.732 105.935)"/><rect class="b" width="6.382" height="7.301" transform="translate(259.674 117.197)"/><rect class="b" width="6.382" height="7.301" transform="translate(270.732 117.197)"/><rect class="b" width="6.382" height="7.301" transform="translate(259.674 128.583)"/><rect class="b" width="6.382" height="7.301" transform="translate(270.732 128.583)"/><rect class="b" width="6.382" height="7.301" transform="translate(259.674 139.969)"/><rect class="b" width="6.382" height="7.301" transform="translate(270.732 139.969)"/><rect class="b" width="6.382" height="7.301" transform="translate(259.674 151.348)"/><rect class="b" width="6.382" height="7.301" transform="translate(270.732 151.348)"/><rect class="b" width="6.382" height="7.301" transform="translate(259.674 162.734)"/><rect class="b" width="6.382" height="7.301" transform="translate(270.732 162.734)"/><rect class="b" width="6.382" height="8.607" transform="translate(415.474 40.362)"/><rect class="b" width="6.382" height="8.607" transform="translate(426.532 40.362)"/><rect class="b" width="6.382" height="8.607" transform="translate(415.474 53.309)"/><rect class="b" width="6.382" height="8.607" transform="translate(426.532 53.309)"/><rect class="b" width="6.382" height="8.607" transform="translate(415.474 66.263)"/><rect class="b" width="6.382" height="8.607" transform="translate(426.532 66.263)"/><rect class="b" width="6.382" height="8.607" transform="translate(415.474 79.21)"/><rect class="b" width="6.382" height="8.607" transform="translate(426.532 79.21)"/><rect class="b" width="6.382" height="8.607" transform="translate(415.474 92.478)"/><rect class="b" width="6.382" height="8.607" transform="translate(426.532 92.478)"/><rect class="b" width="6.382" height="8.607" transform="translate(415.474 105.746)"/><rect class="b" width="6.382" height="8.607" transform="translate(426.532 105.746)"/><rect class="b" width="6.382" height="8.607" transform="translate(415.474 119.013)"/><rect class="b" width="6.382" height="8.607" transform="translate(426.532 119.013)"/><rect class="b" width="6.382" height="8.607" transform="translate(415.474 132.288)"/><rect class="b" width="6.382" height="8.607" transform="translate(426.532 132.288)"/><rect class="b" width="6.382" height="8.607" transform="translate(415.474 145.695)"/><rect class="b" width="6.382" height="8.607" transform="translate(426.532 145.695)"/><rect class="b" width="6.382" height="8.607" transform="translate(415.474 159.109)"/><rect class="b" width="6.382" height="8.607" transform="translate(426.532 159.109)"/><rect class="b" width="6.382" height="8.607" transform="translate(415.474 172.515)"/><rect class="b" width="6.382" height="8.607" transform="translate(426.532 172.515)"/><rect class="b" width="6.382" height="8.607" transform="translate(415.474 185.929)"/><rect class="b" width="6.382" height="8.607" transform="translate(426.532 185.929)"/><rect class="b" width="6.382" height="7.301" transform="translate(283.321 39.173)"/><rect class="b" width="6.382" height="7.301" transform="translate(294.379 39.173)"/><rect class="b" width="6.382" height="7.301" transform="translate(283.321 27.904)"/><rect class="b" width="6.382" height="7.301" transform="translate(294.379 27.904)"/><rect class="b" width="6.382" height="7.301" transform="translate(283.321 16.635)"/><rect class="b" width="6.382" height="7.301" transform="translate(294.379 16.635)"/><rect class="b" width="6.382" height="7.301" transform="translate(283.321 50.165)"/><rect class="b" width="6.382" height="7.301" transform="translate(294.379 50.165)"/><rect class="b" width="6.382" height="7.301" transform="translate(283.321 61.157)"/><rect class="b" width="6.382" height="7.301" transform="translate(294.379 61.157)"/><rect class="b" width="6.382" height="7.301" transform="translate(283.321 72.149)"/><rect class="b" width="6.382" height="7.301" transform="translate(294.379 72.149)"/><rect class="b" width="6.382" height="7.301" transform="translate(283.321 83.411)"/><rect class="b" width="6.382" height="7.301" transform="translate(294.379 83.411)"/><rect class="b" width="6.382" height="7.301" transform="translate(283.321 94.673)"/><rect class="b" width="6.382" height="7.301" transform="translate(294.379 94.673)"/><rect class="b" width="6.382" height="7.301" transform="translate(283.321 105.935)"/><rect class="b" width="6.382" height="7.301" transform="translate(294.379 105.935)"/><rect class="b" width="6.382" height="7.301" transform="translate(283.321 117.197)"/><rect class="b" width="6.382" height="7.301" transform="translate(294.379 117.197)"/><rect class="b" width="6.382" height="7.301" transform="translate(283.321 128.583)"/><rect class="b" width="6.382" height="7.301" transform="translate(294.379 128.583)"/><rect class="b" width="6.382" height="7.301" transform="translate(283.321 139.969)"/><rect class="b" width="6.382" height="7.301" transform="translate(294.379 139.969)"/><rect class="b" width="6.382" height="7.301" transform="translate(283.321 151.348)"/><rect class="b" width="6.382" height="7.301" transform="translate(294.379 151.348)"/><rect class="b" width="6.382" height="7.301" transform="translate(283.321 162.734)"/><rect class="b" width="6.382" height="7.301" transform="translate(294.379 162.734)"/><path class="a" d="M160.076,122.934l-63.9-.095s3.18-4.136,6.681-4.646c0,0,6.842-20.27,18.235-20.423,10.605-.117,14.836,12.495,14.836,12.495s4.923-5.646,9.613-3.049,7.33,10,7.33,10S158.172,120.089,160.076,122.934Z" transform="translate(-82.197 -73.476)"/><path class="a" d="M558.08,90.384l80.81.124s0-5.164-11.123-6.193c0,0-10.131-22.611-25.653-19.57-9.665,1.838-14.624,15.1-14.624,15.1S580.2,69.392,574.36,71.405s-9.336,13.129-9.336,13.129S559,87.466,558.08,90.384Z" transform="translate(-207.187 -64.464)"/><path class="a" d="M289.3,88.612l54.953.08s-5.179-4.836-7.484-4.836-9.03-16.215-17.608-15.544-13.173,12.735-13.173,12.735S295.551,77.758,289.3,88.612Z" transform="translate(-134.456 -65.5)"/><path class="a" d="M499.75,133.435l46.988.073s-2.334-3.049-4.909-3.428c0,0-4.982-14.924-13.37-15.04-7.8-.109-10.941,9.154-10.941,9.154s-3.6-4.165-7.053-2.268-5.427,7.338-5.427,7.338S501.158,131.349,499.75,133.435Z" transform="translate(-191.403 -78.15)"/></g><g transform="translate(82.995 258.205)"><ellipse class="a" cx="200.468" cy="16.944" rx="200.468" ry="16.944" transform="translate(0)"/><ellipse class="a" cx="99.381" cy="13.297" rx="99.381" ry="13.297" transform="translate(180.468 32.05)"/></g><g transform="translate(47.51 227.373)"><path class="c" d="M47.51,341.755l59.716-.175,59.716-.066,119.439-.124,119.439.124,59.716.066,59.716.175-59.716.182L405.821,342l-119.439.117L166.942,342l-59.716-.066Z" transform="translate(-47.51 -334.045)"/><rect class="d" width="477.743" height="7.717"/><path class="c" d="M81.074,331.32a20.545,20.545,0,0,1,0,7.71,17.69,17.69,0,0,1-.365-3.851A18.131,18.131,0,0,1,81.074,331.32Z" transform="translate(-56.493 -331.32)"/><path class="c" d="M120.244,331.32a18.13,18.13,0,0,1,.365,3.859,17.69,17.69,0,0,1-.365,3.851,18.112,18.112,0,0,1-.365-3.851A18.622,18.622,0,0,1,120.244,331.32Z" transform="translate(-67.093 -331.32)"/><path class="c" d="M159.415,331.32a20.545,20.545,0,0,1,0,7.71A20.545,20.545,0,0,1,159.415,331.32Z" transform="translate(-77.693 -331.32)"/><path class="c" d="M198.595,331.32a20.979,20.979,0,0,1,0,7.71A20.545,20.545,0,0,1,198.595,331.32Z" transform="translate(-88.295 -331.32)"/><path class="c" d="M237.765,331.32a20.544,20.544,0,0,1,0,7.71A20.547,20.547,0,0,1,237.765,331.32Z" transform="translate(-98.894 -331.32)"/><path class="c" d="M276.934,331.32a18.622,18.622,0,0,1,.365,3.859,18.112,18.112,0,0,1-.365,3.851,17.69,17.69,0,0,1-.365-3.851A18.62,18.62,0,0,1,276.934,331.32Z" transform="translate(-109.493 -331.32)"/><path class="c" d="M316.1,331.32a18.128,18.128,0,0,1,.365,3.859,17.69,17.69,0,0,1-.365,3.851A20.545,20.545,0,0,1,316.1,331.32Z" transform="translate(-120.093 -331.32)"/><path class="c" d="M355.275,331.32a20.547,20.547,0,0,1,0,7.71A20.545,20.545,0,0,1,355.275,331.32Z" transform="translate(-130.692 -331.32)"/><path class="c" d="M394.455,331.32a20.545,20.545,0,0,1,0,7.71A20.545,20.545,0,0,1,394.455,331.32Z" transform="translate(-141.294 -331.32)"/><path class="c" d="M433.624,331.32a20.547,20.547,0,0,1,0,7.71,17.69,17.69,0,0,1-.365-3.851A18.128,18.128,0,0,1,433.624,331.32Z" transform="translate(-151.893 -331.32)"/><path class="c" d="M472.794,331.32a18.622,18.622,0,0,1,.365,3.859,17.69,17.69,0,0,1-.365,3.851,18.11,18.11,0,0,1-.365-3.851A18.62,18.62,0,0,1,472.794,331.32Z" transform="translate(-162.492 -331.32)"/><path class="c" d="M511.965,331.32a20.544,20.544,0,0,1,0,7.71A20.545,20.545,0,0,1,511.965,331.32Z" transform="translate(-173.092 -331.32)"/><path class="c" d="M551.145,331.32a20.98,20.98,0,0,1,0,7.71A20.543,20.543,0,0,1,551.145,331.32Z" transform="translate(-183.694 -331.32)"/><path class="c" d="M590.315,331.32a20.545,20.545,0,0,1,0,7.71A20.545,20.545,0,0,1,590.315,331.32Z" transform="translate(-194.294 -331.32)"/><path class="c" d="M629.484,331.32a18.624,18.624,0,0,1,.365,3.859,18.112,18.112,0,0,1-.365,3.851,17.69,17.69,0,0,1-.365-3.851A18.132,18.132,0,0,1,629.484,331.32Z" transform="translate(-204.892 -331.32)"/><path class="c" d="M668.655,331.32a18.124,18.124,0,0,1,.365,3.859,17.682,17.682,0,0,1-.365,3.851A20.545,20.545,0,0,1,668.655,331.32Z" transform="translate(-215.492 -331.32)"/></g><g transform="translate(491.874 114.601)"><path class="e" d="M674.587,286.647h-3.3l.839-70.373.073-5.864h1.473l.073,5.864Z" transform="translate(-660.668 -185.829)"/><path class="c" d="M674.059,216.274H672.44l.073-5.864h1.473Z" transform="translate(-660.979 -185.829)"/><path class="e" d="M662.28,180.641l1.291,22.969,1.517.241,1.379.219v-24.8l-2.932.963Z" transform="translate(-658.23 -177.403)"/><path class="e" d="M662.207,184.83s-5.594.051-5.478.365,2.363.941,2.568,1.087,2.334,4.223,2.918,4.223S662.207,184.83,662.207,184.83Z" transform="translate(-656.728 -178.907)"/><path class="e" d="M662.767,193.74s-5.587.058-5.478.372,2.37.941,2.568,1.087,2.341,4.216,2.918,4.216S662.767,193.74,662.767,193.74Z" transform="translate(-656.879 -181.318)"/><path class="e" d="M663.337,202.66s-5.594.058-5.478.372,2.363.941,2.568,1.079,2.334,4.223,2.918,4.223S663.337,202.66,663.337,202.66Z" transform="translate(-657.033 -183.732)"/><path class="f" d="M664,180.233l1.554,23.618,1.379.219v-24.8Z" transform="translate(-658.695 -177.403)"/><path class="e" d="M683.267,180.641l-1.291,22.969-1.517.241-1.379.219v-24.8l2.932.963Z" transform="translate(-662.776 -177.403)"/><path class="e" d="M682.77,184.83s5.587.051,5.47.365-2.363.941-2.568,1.087-2.334,4.223-2.918,4.223S682.77,184.83,682.77,184.83Z" transform="translate(-663.701 -178.907)"/><path class="e" d="M682.2,193.74s5.594.058,5.478.372-2.371.941-2.568,1.087-2.341,4.216-2.918,4.216S682.2,193.74,682.2,193.74Z" transform="translate(-663.55 -181.318)"/><path class="e" d="M681.64,202.66s5.587.058,5.47.372-2.363.941-2.568,1.079-2.334,4.223-2.918,4.223S681.64,202.66,681.64,202.66Z" transform="translate(-663.396 -183.732)"/><path class="f" d="M682.012,180.233l-1.554,23.618-1.379.219v-24.8Z" transform="translate(-662.776 -177.403)"/><path class="e" d="M676.853,176.71l-.46,27.229H666.81l-.46-27.229Z" transform="translate(-659.331 -176.71)"/><path class="g" d="M675.7,182.064a3.414,3.414,0,1,1-3.414-3.414h0A3.413,3.413,0,0,1,675.7,182.064Z" transform="translate(-660.013 -177.235)"/><path class="b" d="M675.7,205.734a3.414,3.414,0,1,1-3.414-3.414h0A3.413,3.413,0,0,1,675.7,205.734Z" transform="translate(-660.013 -183.64)"/><path class="b" d="M675.7,194a3.417,3.417,0,1,1,0-.007Z" transform="translate(-660.013 -180.463)"/><path class="e" d="M675.211,324.6H669.93l.452-13.829.139-4.3h3.99l.168,4.3Z" transform="translate(-660.3 -211.823)"/><path class="h" d="M674.846,310.766h-4.3l.139-4.3h3.99Z" transform="translate(-660.468 -211.823)"/></g><g transform="translate(86.427 127.912)"><path class="e" d="M140,340.247h86.8S217.316,299.7,183.407,299.7,141.459,331.2,140,340.247Z" transform="translate(-111.455 -223.303)"/><path class="i" d="M140,340.247h86.8S217.316,299.7,183.407,299.7,141.459,331.2,140,340.247Z" transform="translate(-111.455 -223.303)"/><path class="e" d="M485.3,346.247h86.8S562.616,305.7,528.707,305.7,486.8,337.2,485.3,346.247Z" transform="translate(-204.893 -224.926)"/><path class="i" d="M485.3,346.247h86.8S562.616,305.7,528.707,305.7,486.8,337.2,485.3,346.247Z" transform="translate(-204.893 -224.926)"/><path class="e" d="M109.548,237.951c-1.86,2.918-5.106,35.515-5.317,36.652s-2.918,6.127-2.918,7.075-.729,15.624-.328,16.572a41.485,41.485,0,0,0,2.991,4.989c.474.569,12.772,11.153,14.15,11.3s14.1.233,14.34,0,1.707-39.388,40.307-39.388,38.177,41.576,38.892,41.736,173.5,4.085,173.5,4.085c0-6.368.5-44.253,38.359-44.253,24.668,0,37.134,20.328,37.564,35.325.175,6.244-.868,13.129-.525,13.129,1.138,0,5.033.284,5.7,0s8.753-5.609,9.4-5.8,5.317-.284,6.455-.569,9.118-7.294,9.263-7.549.379-3.034.423-3.275,8.125-10.117,8.5-11.2.518-10.117.518-11.021-14.668-24.69-18.089-27.25-27.776-11.109-34.9-12.4-46.3-7.126-47.717-8.118-68.308-39.351-79.942-42.2c-9.4-2.276-118.229.853-123.925,1.138s-21.466,3.136-22.983,3.136-18.964-.095-20.037.379,0,4.654,1.327,5.412S112.78,232.823,109.548,237.951Z" transform="translate(-100.865 -194.96)"/><path class="h" d="M116.186,239.5c.408.379,7.214.547,7.929.263s43.574-28.8,43.6-29.628c0-.416-8.023-.306-9.015-.263S115.4,238.786,116.186,239.5Z" transform="translate(-105.008 -198.983)"/><path class="c" d="M181.6,237.386c1.86,5.485,226.975,15.74,228.208,13.085.912-1.969-19.227-18.14-28.629-23.414s-36.324-20.511-49.6-22.079-40.117-1.459-63.531-.992c-23.224.423-50.569.992-60.256,5.106C199.325,212.74,180.127,233.024,181.6,237.386Z" transform="translate(-122.69 -197.32)"/><path class="h" d="M190.235,235.159c.562,2.064,50.278,7.411,108.542,10.117s87.032,3.129,87.747,2.845-2-15.806-2.991-17.09-42.736-22.648-49.286-23.224-41.955-.642-59.811-.357-55.121,2.422-61.467,4.982C207.376,214.692,189.659,233.095,190.235,235.159Z" transform="translate(-125.045 -198.295)"/><g class="j" transform="translate(66.496 9.015)"><path class="b" d="M277.534,207.76l-33.37,33.37c-5.952-.525-11.459-1.05-16.4-1.554l30.919-30.912C265.273,208.241,271.845,207.935,277.534,207.76Z" transform="translate(-201.699 -207.439)"/><path class="b" d="M451.408,253.445l-3.363,3.363q-5.106,0-17.615-.336l17.36-17.352a4.732,4.732,0,0,1,.729.518C449.241,240.557,450.831,248.741,451.408,253.445Z" transform="translate(-256.541 -215.925)"/><path class="b" d="M313.834,207.32l-35.485,35.507c-2.845-.2-5.638-.4-8.359-.613l34.822-34.829C307.671,207.342,310.712,207.32,313.834,207.32Z" transform="translate(-213.126 -207.32)"/><path class="b" d="M422.3,227.536l-24.318,24.333-8.651-.321,26.988-26.988C418.367,225.559,420.381,226.559,422.3,227.536Z" transform="translate(-245.419 -211.985)"/><path class="b" d="M250.015,209.46,220,239.489h0l-2.29-.255,29.584-29.584Z" transform="translate(-198.979 -207.899)"/><path class="b" d="M432.587,231.948l-21.882,21.926-2.465-.088,22.7-22.706Z" transform="translate(-250.536 -213.749)"/><path class="b" d="M384.484,211.347,349.291,246.54l-2.451-.1L382.7,210.61Z" transform="translate(-233.921 -208.21)"/><path class="b" d="M219.215,212.6l-25.121,25.091c-.839-.168-1.532-.328-2.064-.489l24.07-24.07C217.012,212.957,218.048,212.775,219.215,212.6Z" transform="translate(-192.03 -208.749)"/></g><path class="c" d="M227.915,211.666c.233,0,.343.306.139.853-1.167,3.231-10.277,21.532-12.553,25.806a2.014,2.014,0,0,1-1.291.9l16.047,1.714a1.306,1.306,0,0,1-.8-1.459c.16-1.014,6.12-22.524,8.023-27.812a2.254,2.254,0,0,1,1.072-1.123c.321,0-2.735.044-5.638.343C230.337,211.17,227.915,211.666,227.915,211.666Z" transform="translate(-131.536 -199.179)"/><path class="c" d="M262,209.4s.292.16.306.729c.1,5.062.671,30.409.182,31.795a.546.546,0,0,1-.233.336l3.034.241a1.463,1.463,0,0,1-.277-.729c-.343-4.282-.649-27.52-.591-31.816a1.31,1.31,0,0,1,.284-.729Z" transform="translate(-144.468 -198.819)"/><path class="c" d="M329.994,208.358c.357,1.123.948,34.216.948,35.281s-1.218,1.32-1.218,1.32l18.811.875s-1.218-.343-1.459-.912-6.127-36.251-6.091-36.718.963-.9.963-.9H328.82A2,2,0,0,1,329.994,208.358Z" transform="translate(-162.549 -198.299)"/><path class="b" d="M113.936,260.272c-2.312.292-7.506,5.7-7.885,6.834s-1.8,8.833-1.043,9.971,3.516,3.99,5.886,4.085,13.961-5.412,15-6.36,1.8-6.732.569-8.592S116.876,259.892,113.936,260.272Z" transform="translate(-101.927 -212.627)"/><path class="a" d="M126.294,275.145c-1.043.948-12.633,6.455-15,6.36-1.809-.073-3.844-1.751-5.04-3.049a7.689,7.689,0,0,0,4.639,1.459c1.276-.117,12.13-4.785,13.523-6.061s1.459-6.083,1.269-6.951-7.192-5.383-7.192-5.383c3.465,1.335,7.542,3.771,8.374,5.026C128.1,268.435,127.337,274.19,126.294,275.145Z" transform="translate(-102.322 -212.971)"/><path class="b" d="M103.958,319.023c-.642.642-.861,5.463-.19,5.886s4.559.379,5.317,0,2.706-3.99,2.56-5.223S104.716,318.265,103.958,319.023Z" transform="translate(-101.54 -228.41)"/><path class="b" d="M579.282,280.04c2.05,3.319,17.1,9.19,22.721,10.117,3.545.584,15.813,1.357,16.528.729s-5.2-8.833-8.264-10.832-18.374-7.119-23.005-6.907S577.218,276.685,579.282,280.04Z" transform="translate(-230.202 -216.116)"/><path class="a" d="M618.533,290.858c-.729.642-12.983-.131-16.528-.729-5.624-.926-20.671-6.8-22.721-10.117s3.348-6.689,7.98-6.907a9.179,9.179,0,0,1,1.08,0c-4.311,1.59-5.193,4.96-2.568,6.886s11.043,6.426,14.406,7.367c3.239.912,15.317,2.794,16.368,1.969a2.1,2.1,0,0,0,.459-1.736C618.117,289.289,618.8,290.617,618.533,290.858Z" transform="translate(-230.204 -216.102)"/><g class="k" transform="translate(1.82 44.566)"><path d="M177.46,278.653a7.687,7.687,0,0,1-2.188,5.427A7.781,7.781,0,0,1,164.1,273.245c.056-.058.114-.115.172-.172a7.768,7.768,0,0,1,10.985.145l.015.015A7.675,7.675,0,0,1,177.46,278.653Zm0,0a7.6,7.6,0,0,0-2.268-5.354,7.46,7.46,0,1,0,0,10.715A7.632,7.632,0,0,0,177.46,278.653Z" transform="translate(-119.203 -260.067)"/><path d="M137.107,305.423c-.773-1.721-1.459-3.457-2.188-5.208s-1.342-3.5-2.013-5.259-1.276-3.53-1.875-5.31-1.2-3.567-1.721-5.376c.78,1.721,1.459,3.457,2.188,5.2s1.342,3.508,2.02,5.266,1.276,3.53,1.875,5.31S136.568,303.614,137.107,305.423Z" transform="translate(-110.382 -263.694)"/><path d="M103.36,313.248c3.742-.073,7.476-.066,11.218-.051l11.211.117,11.211.27c3.735.117,7.469.241,11.2.438-3.735.073-7.476.066-11.211.058l-11.218-.124-11.211-.27C110.829,313.568,107.095,313.444,103.36,313.248Z" transform="translate(-103.36 -271.518)"/><path d="M345.34,263.4l1.284,9.11.554,4.566c.088.766.168,1.524.226,2.3s0,1.532,0,2.3l-.124,18.4-.146,9.205-.08,4.6-.036,2.3-.175,2.29-.729,9.176-.773,9.132.467-9.183.525-9.176.131-2.3v-2.3l.044-4.6.095-9.183.314-18.381c0-.766.066-1.539,0-2.29s-.109-1.524-.182-2.283l-.46-4.573Z" transform="translate(-168.84 -258.046)"/><path d="M413.231,265.593l1.583,9.154.729,4.61.19,1.145a6.2,6.2,0,0,1,.139,1.16v2.327c-.051,6.193-.2,12.4-.394,18.571q-.073,2.319-.2,4.639a17.159,17.159,0,0,1-.89,4.581c-.846,2.983-1.816,5.923-2.881,8.84a67.919,67.919,0,0,1-3.705,8.534l-.576,1.021c-.2.336-.423.656-.635.985a8.843,8.843,0,0,1-.729.941l-.379.46a1.466,1.466,0,0,1-.678.2c-1.568.16-3.107.182-4.661.233-12.4.255-24.763.146-37.148.058s-24.763-.27-37.148-.5-24.756-.569-37.134-1.021c-6.185-.255-12.4-.46-18.556-1.014a14.276,14.276,0,0,1-2.349-.372c-.438-.168-.693-.372-1.065-.532s-.686-.336-1.036-.5c-1.408-.635-2.852-1.2-4.252-1.9a16.326,16.326,0,0,1-3.9-2.6,37.053,37.053,0,0,1-2.815-3.749c-3.487-5.106-6.82-10.343-10.146-15.558s-6.623-10.467-9.9-15.719-6.506-10.54-9.7-15.843l-1.182-2-.284-.525-.139-.263a1.354,1.354,0,0,1-.036-.292l-.117-1.152c-.131-1.546-.248-3.093-.306-4.639v-1.167a6.9,6.9,0,0,1,.248-1.138c.212-.729.467-1.459.729-2.188.518-1.459,1.072-2.918,1.648-4.34q-.846,2.188-1.612,4.376c-.248.729-.5,1.459-.729,2.188a6.961,6.961,0,0,0-.241,1.131v1.16c.066,1.539.2,3.085.343,4.624l.124,1.152a1.787,1.787,0,0,0,.044.284l.139.248c.095.16.175.321.277.489l1.2,1.991c3.231,5.274,6.565,10.518,9.832,15.755,6.565,10.467,13.18,20.963,20.131,31.2a36.692,36.692,0,0,0,2.757,3.647,16.127,16.127,0,0,0,3.807,2.516c1.379.678,2.815,1.233,4.238,1.875.357.16.729.321,1.058.5a9.436,9.436,0,0,0,1.014.511,14.968,14.968,0,0,0,2.232.336c6.149.54,12.349.729,18.534.956,12.4.423,24.749.693,37.126.919s24.756.467,37.141.605,24.8.27,37.134.051c1.539-.044,3.1-.066,4.617-.219a1.778,1.778,0,0,0,.43-.08l.365-.438a7.658,7.658,0,0,0,.686-.912c.2-.321.43-.635.627-.963l.569-1a66.812,66.812,0,0,0,3.771-8.5q1.612-4.376,2.918-8.8a17.23,17.23,0,0,0,.89-4.5l.212-4.639c.248-6.185.452-12.4.554-18.563V281.64a6.876,6.876,0,0,0-.131-1.152l-.182-1.145-.729-4.581Z" transform="translate(-135.716 -256.06)"/><path d="M585.079,290.71a42.277,42.277,0,0,1-5.106,3.683c-1.772,1.145-3.581,2.225-5.376,3.326s-3.647,2.123-5.478,3.144-3.691,2.02-5.58,2.961c1.758-1.167,3.545-2.283,5.332-3.392l5.4-3.268,5.441-3.187,2.728-1.59A25.865,25.865,0,0,0,585.079,290.71Z" transform="translate(-227.884 -265.436)"/><path d="M235.74,315.54l24.114.635,24.121.729,48.235,1.473,48.228,1.685,24.114.846,24.107.948-24.121-.635-24.114-.729-48.235-1.473-48.228-1.685-24.114-.853Z" transform="translate(-139.182 -272.155)"/><path d="M233.15,268.09l-.948.051h-.233c-.051,0-.058.044-.088.117a3.174,3.174,0,0,0-.088.452,12.181,12.181,0,0,0-.036,1.86,7.6,7.6,0,0,0,.08.919,1.77,1.77,0,0,0,.1.4h.248c.613.058,1.247.073,1.867.095,2.509.08,5.026.16,7.535.2l3.764.109h2.684a1.415,1.415,0,0,0,.1-.233,3.6,3.6,0,0,0,.088-.43,10.255,10.255,0,0,0,.08-1.838,7.476,7.476,0,0,0-.08-.912,1.43,1.43,0,0,0-.1-.35,1.069,1.069,0,0,0-.35-.1c-1.218-.212-2.487-.284-3.735-.408a34.685,34.685,0,0,1,3.786.1,1.015,1.015,0,0,1,.532.16,1.137,1.137,0,0,1,.219.525,7.252,7.252,0,0,1,.139.963,11.318,11.318,0,0,1,0,1.926,4.206,4.206,0,0,1-.08.5.882.882,0,0,1-.343.576.3.3,0,0,1-.182.058h-2.764l-3.778-.051c-2.509-.095-5.026-.168-7.535-.35-.635-.058-1.255-.095-1.9-.19a.927.927,0,0,1-.277-.058.466.466,0,0,1-.16-.058.371.371,0,0,1-.117-.168,1.756,1.756,0,0,1-.117-.511,7.2,7.2,0,0,1-.036-.963,11.818,11.818,0,0,1,.182-1.9,2.81,2.81,0,0,1,.131-.467A.438.438,0,0,1,231.8,268a.183.183,0,0,1,.153-.073h.233Z" transform="translate(-138.014 -259.272)"/><path d="M359.688,271.223l-.941.051h-.233c-.051,0-.066.044-.095.117a2.323,2.323,0,0,0-.08.452,12.187,12.187,0,0,0-.044,1.86,6.331,6.331,0,0,0,.08.919,1.738,1.738,0,0,0,.109.4h.248c.613.058,1.247.073,1.867.095,2.509.08,5.018.16,7.527.2l3.771.109h2.648a.8.8,0,0,0,.095-.226,3.777,3.777,0,0,0,.095-.43,10.974,10.974,0,0,0,.08-1.838,7.631,7.631,0,0,0-.088-.912,1.573,1.573,0,0,0-.095-.35,1.069,1.069,0,0,0-.35-.1c-1.225-.212-2.487-.284-3.735-.408a36.473,36.473,0,0,1,3.778.095,1,1,0,0,1,.532.168,1.161,1.161,0,0,1,.226.525c.066.321.1.642.139.963a11.321,11.321,0,0,1,0,1.926,4.215,4.215,0,0,1-.08.5c-.073.168-.044.35-.343.576a.315.315,0,0,1-.19.058h-2.764l-3.771-.051c-2.516-.095-5.026-.168-7.542-.357-.627-.051-1.247-.095-1.889-.182a1.03,1.03,0,0,1-.284-.058.764.764,0,0,1-.153-.058.54.54,0,0,1-.124-.168,1.78,1.78,0,0,1-.109-.511,8.491,8.491,0,0,1-.044-.963,12.822,12.822,0,0,1,.19-1.9,2.788,2.788,0,0,1,.124-.467.592.592,0,0,1,.066-.117.175.175,0,0,1,.153-.073h.233Z" transform="translate(-172.246 -260.122)"/></g><circle class="c" cx="35.894" cy="35.894" r="35.894" transform="translate(35.277 82.956)"/><circle class="l" cx="26.207" cy="26.207" r="26.207" transform="translate(44.963 92.643)"/><circle class="m" cx="24.165" cy="24.165" r="24.165" transform="translate(47.006 94.691)"/><path class="l" d="M198.463,342.943H190.87c2.56-3.705-6.36-16.616-6.36-16.616l4-1.328c2.655,4.559,3.983,5.894,6.171,5.894s3.508-1.335,6.171-5.894l3.99,1.335S195.9,339.238,198.463,342.943Z" transform="translate(-123.499 -230.149)"/><path class="l" d="M184.9,346.079l-2.341,7.221c-2.728-3.581-17.768.919-17.768.919V350.01c5.157-1.116,6.834-1.969,7.513-4.048s-.19-3.749-3.7-7.7l2.5-3.377S180.589,347.37,184.9,346.079Z" transform="translate(-118.163 -232.825)"/><path class="l" d="M183.938,361.15l6.142,4.464c-4.252,1.459-4.617,17.177-4.617,17.177l-4.012-1.262c.525-5.252.241-7.112-1.532-8.4s-3.647-.985-8.461,1.138L169,370.851S183.836,365.65,183.938,361.15Z" transform="translate(-119.302 -239.931)"/><path class="l" d="M199,365.614l6.142-4.464c.1,4.5,14.916,9.7,14.916,9.7l-2.443,3.428c-4.829-2.13-6.689-2.429-8.454-1.145s-2.057,3.144-1.532,8.4l-4.012,1.262S203.231,367.1,199,365.614Z" transform="translate(-127.42 -239.931)"/><path class="l" d="M206.859,353.3l-2.349-7.221c4.311,1.291,13.859-11.189,13.859-11.189l2.509,3.384c-3.516,3.931-4.376,5.609-3.705,7.688s2.363,2.918,7.52,4.055l-.044,4.2S209.587,349.719,206.859,353.3Z" transform="translate(-128.911 -232.825)"/><circle class="l" cx="7.017" cy="7.017" r="7.017" transform="translate(64.155 111.664)"/><circle class="c" cx="35.879" cy="35.879" r="35.879" transform="matrix(0.983, -0.185, 0.185, 0.983, 280.77, 88.05)"/><circle class="l" cx="26.207" cy="26.207" r="26.207" transform="translate(296.141 92.663)"/><circle class="m" cx="24.165" cy="24.165" r="24.165" transform="translate(298.168 94.691)"/><path class="l" d="M542.818,342.941H535.21c2.568-3.705-6.36-16.616-6.36-16.616l3.99-1.335c2.655,4.559,3.983,5.894,6.171,5.894s3.508-1.335,6.178-5.894l3.983,1.335S540.243,339.235,542.818,342.941Z" transform="translate(-216.677 -230.146)"/><path class="l" d="M529.226,346.079l-2.341,7.221c-2.728-3.581-17.768.919-17.768.919l-.036-4.209c5.157-1.116,6.835-1.969,7.513-4.048s-.19-3.749-3.7-7.7l2.5-3.377S524.915,347.37,529.226,346.079Z" transform="translate(-211.328 -232.825)"/><path class="l" d="M528.286,361.15l6.142,4.464c-4.245,1.459-4.617,17.177-4.617,17.177l-4.012-1.262c.533-5.252.241-7.112-1.524-8.4s-3.647-.985-8.461,1.138l-2.443-3.421S528.184,365.65,528.286,361.15Z" transform="translate(-212.488 -239.931)"/><path class="l" d="M543.32,365.614l6.142-4.464c.1,4.5,14.909,9.7,14.909,9.7l-2.443,3.428c-4.829-2.13-6.689-2.429-8.454-1.145s-2.057,3.144-1.532,8.4l-4.012,1.262S547.565,367.1,543.32,365.614Z" transform="translate(-220.593 -239.931)"/><path class="l" d="M551.2,353.3l-2.349-7.221c4.311,1.291,13.859-11.189,13.859-11.189l2.5,3.384c-3.516,3.931-4.376,5.609-3.7,7.688s2.356,2.918,7.513,4.055l-.044,4.2S553.927,349.719,551.2,353.3Z" transform="translate(-222.089 -232.825)"/><circle class="l" cx="7.017" cy="7.017" r="7.017" transform="translate(315.316 111.664)"/><path class="e" d="M447.692,244.688c-1.306,1.313-1.189,13.013-.241,13.961s13.961,1.809,15-5.456S449.734,242.646,447.692,244.688Z" transform="translate(-194.454 -208.255)"/><path class="h" d="M484.973,240.529H474.39c-27.542-18.169-65.34-36.149-65.34-36.149l6.273-1.51c22.881,11.072,67,36.4,68.163,37.2A6.56,6.56,0,0,0,484.973,240.529Z" transform="translate(-184.26 -197.101)"/><g class="k" transform="translate(28.545 3.245)"><path class="b" d="M140,317.047a46.275,46.275,0,0,1,8.023-9.876,50.718,50.718,0,0,1,10.343-7.527,50.13,50.13,0,0,1,24.668-6.076l3.209.146,1.6.08c.532.058,1.065.146,1.6.219l3.18.452c1.05.219,2.086.5,3.129.729a39.532,39.532,0,0,1,11.773,5.047,41.131,41.131,0,0,1,9.526,8.519,57.224,57.224,0,0,1,6.732,10.839,59.7,59.7,0,0,0-7.053-10.569,40.765,40.765,0,0,0-9.555-8.235c-7.192-4.486-15.733-6.309-24.143-6.39a51.524,51.524,0,0,0-12.553,1.349,50.041,50.041,0,0,0-11.816,4.449,50.586,50.586,0,0,0-10.372,7.258A48.3,48.3,0,0,0,140,317.047Z" transform="translate(-140 -224.887)"/><path class="b" d="M484.78,317.047a46.274,46.274,0,0,1,8.023-9.876,50.749,50.749,0,0,1,10.372-7.527,50.129,50.129,0,0,1,24.683-6.076l3.209.146,1.6.08c.532.058,1.065.146,1.59.219l3.187.452c1.043.219,2.086.5,3.129.729a39.53,39.53,0,0,1,11.773,5.047,41.129,41.129,0,0,1,9.526,8.519A57.22,57.22,0,0,1,568.61,319.6a60.083,60.083,0,0,0-7.053-10.569A41.051,41.051,0,0,0,552,300.8c-7.192-4.486-15.733-6.309-24.15-6.39a51.5,51.5,0,0,0-12.546,1.349,50.516,50.516,0,0,0-22.188,11.707A48.086,48.086,0,0,0,484.78,317.047Z" transform="translate(-233.297 -224.887)"/><path class="b" d="M147.1,232q8.392-6.565,16.98-12.881c5.711-4.223,11.488-8.374,17.433-12.3.729-.474,1.5-.956,2.283-1.4.387-.233.78-.452,1.2-.656a7.305,7.305,0,0,1,1.306-.489c1.721-.5,3.443-.941,5.164-1.371,3.457-.853,6.915-1.67,10.409-2.349a61.389,61.389,0,0,1,10.635-1.094c3.559-.073,7.112-.066,10.664.1q-5.328,0-10.642.321a61.052,61.052,0,0,0-10.518,1.313c-3.457.78-6.922,1.576-10.35,2.458-1.721.445-3.443.89-5.106,1.4a6.114,6.114,0,0,0-1.182.452c-.379.2-.766.408-1.138.635-.729.445-1.5.919-2.247,1.4-5.945,3.851-11.67,8.023-17.506,12.115Z" transform="translate(-141.921 -199.41)"/></g><path class="f" d="M446.417,308.54c-27.5,6.287-27.9,37.433-27.9,43.144,0,0-172.8-3.939-173.5-4.085-.576-.124-.4-27.389-20.8-37.783,9.161,4.53,20.9,15.5,25.339,31.517.481,1.707,25.646,4.376,68.658,5.755s80.4.511,87.528-.489S421.136,308.431,446.417,308.54Z" transform="translate(-134.245 -225.695)"/><path class="f" d="M626.485,328.55c-.379,1.094-8.461,10.941-8.5,11.2s-.284,2.991-.43,3.282-8.125,7.294-9.263,7.542-5.791.379-6.448.569-8.753,5.507-9.409,5.791-4.559,0-5.7,0c-.343,0,.729-6.864.525-13.129A37.657,37.657,0,0,0,567.25,312.54c7.083,1.51,18.9,11.182,23.669,21.153s3.545,10.708,4.661,11.911,4.814-1.225,6.521-1.656,7.294-.569,9.409-.992,2.48-4.274,3.946-5.106S624.369,331.067,626.485,328.55Z" transform="translate(-227.068 -226.777)"/></g><g transform="translate(327.864 84.21)"><path class="g" d="M434.354,424.379c1.459.46,41.992-.066,43.523-1.072.591-.372.853-6.287.977-13.443v-.226c0-1.459.044-2.99.051-4.53v-.635l-1.948-21.043-27.141.27,2.677,20.846.036.824.16,4.318v.445s-15.434,7.141-17,8.425S432.932,423.963,434.354,424.379Z" transform="translate(-432.371 -202.258)"/><path class="a" d="M434.352,432.185c1.459.46,41.992-.066,43.523-1.072.591-.372.853-6.287.977-13.443v-.226c0-1.459.044-2.991.051-4.53v-.635l-26.434.073.036.824.16,4.318v.445s-15.434,7.141-17,8.425S432.93,431.77,434.352,432.185Z" transform="translate(-432.369 -210.065)"/><path class="e" d="M434.352,434.1c.729.241,11.751.212,22.524,0,2.188-.044,4.318-.088,6.375-.146,7.681-.212,14.034-.525,14.588-.912s.853-6.12.97-13.129v-.525h0l-26.149.044v.452s-15.441,7.141-17,8.417S432.93,433.65,434.352,434.1Z" transform="translate(-432.369 -211.989)"/><path class="c" d="M435.152,437.227c6.842-.255,34.435-.642,41.211-.379.058,0,.058.036,0,.044-6.769.4-34.369.569-41.2.452C435.013,437.336,435.013,437.234,435.152,437.227Z" transform="translate(-432.732 -216.689)"/><path class="c" d="M455.663,419.5c2.684-.532,5.981-.168,8.023,1.729.08.073,0,.182-.109.16a37.747,37.747,0,0,0-7.936-1.546.175.175,0,0,1,.022-.343Z" transform="translate(-438.269 -211.958)"/><path class="c" d="M453.031,421.137c2.684-.532,5.981-.168,8.06,1.721.08.08,0,.19-.109.16a37.7,37.7,0,0,0-7.936-1.539.175.175,0,0,1-.015-.343Z" transform="translate(-437.562 -212.401)"/><path class="c" d="M450.382,422.776c2.684-.54,5.981-.168,8.067,1.721.08.073,0,.19-.117.16a37.53,37.53,0,0,0-7.929-1.539.175.175,0,0,1-.022-.343Z" transform="translate(-436.845 -212.844)"/><path class="n" d="M465.47,434.092c2.188-.044,4.318-.088,6.375-.146,7.681-.212,14.034-.525,14.588-.912s.853-6.12.97-13.129v-.525h0C483.836,421.875,471.21,430.277,465.47,434.092Z" transform="translate(-440.964 -211.986)"/><path class="h" d="M455.893,366.421h29.22s-5.886-68.235-5.653-69.432c.292-1.524,2.013-8.432,4.311-17.455l2.3-8.993c2.188-8.483,4.581-17.761,6.674-25.835,3.144-12.1,5.595-21.5,5.595-21.5h-24.8s-2.918,9.147-6.521,21.051c-5.93,19.344-13.859,45.952-14.632,52.444C451.159,307.149,455.893,366.421,455.893,366.421Z" transform="translate(-437.368 -158.903)"/><path class="c" d="M458.986,412.643c4.464-.095,3.18-.131,7.644-.175,2.188,0,16.536-.146,18.578.19.044,0,.044.088,0,.095-2.042.336-16.39.212-18.578.19-4.464-.044-3.18-.08-7.644-.168C458.935,412.767,458.935,412.643,458.986,412.643Z" transform="translate(-439.199 -210.107)"/><path class="c" d="M481.74,295.126c.956-4.223,2.385-8.366,3.647-12.509q3.8-12.64,7.644-25.259,1.918-6.31,3.851-12.619c.656-2.123,1.306-4.245,1.977-6.36s1.386-4.128,1.977-6.222c.233-.853.365-.387.058.729-.613,2.188-1.225,4.376-1.86,6.565q-1.882,6.455-3.8,12.91-3.793,12.837-7.659,25.66L483.7,290.874a53.87,53.87,0,0,0-1.576,6.222,28.206,28.206,0,0,0-.255,6.652c.277,4.471.8,8.935,1.211,13.4s.824,8.935,1.24,13.406q1.225,13.334,2.443,26.681c.1,1.123.2,2.254.292,3.384,0,.372-.547.343-.584,0-.963-8.8-1.7-17.622-2.531-26.426s-1.641-17.506-2.458-26.295c-.2-2.188-.438-4.376-.445-6.616A27.407,27.407,0,0,1,481.74,295.126Z" transform="translate(-445.177 -161.205)"/><path class="c" d="M485.36,223.21c1.721,13.3,5,38.235,7.389,56.324,5.587-21.918,14.588-56.324,14.588-56.324Z" transform="translate(-446.346 -158.903)"/><path class="g" d="M476.768,424.968c1.415.467,41.984.088,43.523-.912.591-.365.875-6.28,1.021-13.436v-.226c0-1.459.058-2.991.066-4.53v-.635c.095-10.328-.649-21.051-.649-21.051l-26.521.175L495,405.2v.824l.153,4.318v.438s-15.463,7.1-17.039,8.366S475.368,424.509,476.768,424.968Z" transform="translate(-443.852 -202.461)"/><path class="a" d="M476.768,432.767c1.415.467,41.984.088,43.523-.912.591-.365.875-6.28,1.021-13.436v-.226c0-1.459.058-2.991.066-4.53v-.635L495,413v.824l.153,4.318v.438s-15.463,7.1-17.039,8.366S475.368,432.307,476.768,432.767Z" transform="translate(-443.852 -210.26)"/><path class="e" d="M476.767,434.677c1.415.467,41.984.088,43.523-.912.591-.365.875-6.28,1.021-13.436V420.1l-26.171-.044v.438s-15.463,7.1-17.039,8.366S475.366,434.218,476.767,434.677Z" transform="translate(-443.851 -212.17)"/><path class="c" d="M477.6,437.809c6.834-.233,34.435-.518,41.211-.233.051,0,.051.044,0,.044-6.776.379-34.377.445-41.211.3C477.454,437.919,477.454,437.853,477.6,437.809Z" transform="translate(-444.216 -216.878)"/><path class="c" d="M498.154,420.119c2.692-.532,5.981-.146,8.023,1.751.08.073,0,.182-.117.16a37.514,37.514,0,0,0-7.929-1.576.168.168,0,0,1,.022-.336Z" transform="translate(-449.759 -212.127)"/><path class="c" d="M495.515,421.749c2.684-.532,5.981-.146,8.023,1.751.08.073,0,.182-.109.16a37.612,37.612,0,0,0-7.929-1.576.168.168,0,0,1,.015-.336Z" transform="translate(-449.046 -212.568)"/><path class="c" d="M492.884,423.371c2.684-.525,5.981-.139,8.023,1.758.08.073,0,.182-.109.16a37.627,37.627,0,0,0-7.863-1.575.175.175,0,0,1-.051-.343Z" transform="translate(-448.348 -213.008)"/><path class="h" d="M482.61,223.2s.569,11.853,3.282,21.233c.219.773.452,1.539.729,2.268a44.437,44.437,0,0,1,7.134,3.647s.284,9.533.569,20.161c.321,11.889.649,25.142.583,27.951-.248,10.518,1.313,68.359,1.313,68.359l29.176.117s-5.281-64.588-5.244-68.44c.051-6.193-1.415-33.552-2.553-53.531-.729-12.3-1.262-21.787-1.262-21.787Z" transform="translate(-445.602 -158.895)"/><path class="c" d="M502.584,412.944c4.464-.08,3.18-.117,7.644-.146,2.188,0,16.536-.073,18.578.277a.044.044,0,0,1,0,.088c-2.042.328-16.4.146-18.578.109-4.464-.058-3.18-.088-7.644-.2a.064.064,0,0,1-.07-.062.07.07,0,0,1,.07-.07Z" transform="translate(-450.988 -210.203)"/><path class="c" d="M525.419,228.961c.54,16.295,1.109,32.59,1.838,48.87s1.714,32.684,3.085,48.987c.729,9.11,1.459,21.926,2.465,31.014a.048.048,0,1,1-.095,0c-2.13-16.164-3.311-36.156-4.376-52.422s-1.751-32.56-2.3-48.87c-.314-9.22-.554-18.432-.832-27.652C525.215,228.829,525.411,228.844,525.419,228.961Z" transform="translate(-457.127 -160.43)"/><path class="c" d="M486.308,254.463a53.816,53.816,0,0,1,8.352,4.376.1.1,0,1,1-.088.175h0c-2.815-1.371-5.7-2.691-8.432-4.209a.191.191,0,0,1,.168-.343Z" transform="translate(-446.528 -167.354)"/><path class="c" d="M483.951,236.481c.233,1.255.532,2.495.8,3.735s.445,2.363.729,3.516a6.005,6.005,0,0,0,1.634,2.918c.46.423.963.8,1.459,1.189l.824.627c-.036-.168-.066-.336-.095-.5l-.241-1.422c-.182-1.058-.35-2.115-.511-3.173-.314-2.079-.605-4.179-1.043-6.236a.066.066,0,0,1,.131,0c.518,2.035,1.087,4.055,1.539,6.112.219,1.007,1.007,5.981,1.043,6.338s.066.729.08,1.094a4.082,4.082,0,0,1,0,1.116c0,.088-.131.073-.168,0h0a4.625,4.625,0,0,1-.314-1.087,10.756,10.756,0,0,1-.233-1.072l-.066-.4c-.489-.3-.941-.693-1.4-1.021s-1-.729-1.459-1.1a5.6,5.6,0,0,1-1.787-2.794,19.709,19.709,0,0,1-.584-3.581c-.16-1.408-.277-2.83-.474-4.245C483.82,236.43,483.951,236.393,483.951,236.481Z" transform="translate(-445.929 -162.48)"/><path class="o" d="M452.164,146.366l3.516,19.059c.168.569-.139,1-.678.963l-9.679-.62a1.589,1.589,0,0,1-1.284-1.087l-3.516-19.067c-.168-.562.139-.992.678-.956l9.679.62A1.576,1.576,0,0,1,452.164,146.366Z" transform="translate(-434.201 -137.646)"/><path class="h" d="M450.6,146.2l3.523,19.088c.168.562-.139.992-.678.956l-9.686-.62a1.568,1.568,0,0,1-1.276-1.087l-3.494-19.081c-.168-.569.139-.992.678-.963l9.686.627A1.56,1.56,0,0,1,450.6,146.2Z" transform="translate(-433.784 -137.601)"/><path class="c" d="M451.21,147.477a.824.824,0,1,0,.859-.788h-.006a.817.817,0,0,0-.853.779Z" transform="translate(-437.105 -138.196)"/><path class="p" d="M479.435,185.217c-6.127,11.371-19.278,25.85-24.369,25.631-2.422-.1-6.783.241-9.81-2.721-6.6-6.455-11.758-18.4-12.568-25.113-.292-2.385,11.5-6.878,13.093-4.858,3.727,4.734,7.87,13.859,8.578,13.859,2.611-.058,13.275-7.98,20.722-13.56C484.118,171.621,481.879,180.687,479.435,185.217Z" transform="translate(-432.091 -146.125)"/><path class="p" d="M433.22,163.713c1.459-4.734,2.6-5.726,1.721-10.387-.569-3.056,1.138-4.734,3.144-2.188,3.282,4.158,2.648,10.671,1.78,12.859Z" transform="translate(-432.237 -139.064)"/><path class="p" d="M432.914,178.418s-1.772-6.813-.693-12.013c.729-3.6,3.253-11.247,13.633-14.778,2.465-.839,6.565-.284,3.042,2.546-2.5,2.006-4.7,2.524-5.945,3.961,0,0,5.142,1.32,5.886,3.822a48.1,48.1,0,0,1,1.459,6.674,10.434,10.434,0,0,1-1.225.387s.627,2.363-1.276,5.558Z" transform="translate(-431.872 -139.436)"/><path class="p" d="M434.08,165.289a28.915,28.915,0,0,1,8.213-4.61c3.756-1.145,11.306-2.349,12.123.438.6,2.035-2.239,2.75-2.239,2.75s3.224.16,3.363,2.123c.124,1.787-2.108,2.188-2.108,2.188s1.94.438,1.729,2.188c-.248,2.1-4.267.846-6.36,2.75C448.332,173.553,434.08,165.289,434.08,165.289Z" transform="translate(-432.47 -141.638)"/><path class="c" d="M446.092,166.379a15.7,15.7,0,0,1,9.271-1.043c.08,0,.1.088,0,.088a38.636,38.636,0,0,0-9.293.992S446.07,166.386,446.092,166.379Z" transform="translate(-435.714 -143.166)"/><path class="c" d="M447.832,171.668a17.636,17.636,0,0,1,9.314-.489c.08,0,.1.095,0,.088a41.455,41.455,0,0,0-9.336.438S447.81,171.668,447.832,171.668Z" transform="translate(-436.185 -144.713)"/><path class="e" d="M432.17,187.874s8.417,19.139,13.778,21.6,8.665,2.188,10.722,1.962a5.623,5.623,0,0,0,2.188-.919c5.74-3.647,16.4-17.053,20.846-24.683,3.333-5.726,3.29-11.087-1.371-9.613a15.267,15.267,0,0,0-4.376,2.458c-8.753,6.565-18.9,12.75-19.351,12.48s-4.858-8.177-4.858-8.177Z" transform="translate(-431.953 -146.12)"/><path class="b" d="M461.788,202.29a5.112,5.112,0,0,1-.365,2.531,4.783,4.783,0,0,1,0-1.291A4.435,4.435,0,0,1,461.788,202.29Z" transform="translate(-439.857 -153.242)"/><path class="b" d="M446.734,208.78a4.785,4.785,0,0,1,0,1.291,4.5,4.5,0,0,1-.35,1.24,4.783,4.783,0,0,1,0-1.291A4.7,4.7,0,0,1,446.734,208.78Z" transform="translate(-435.787 -154.998)"/><path class="b" d="M473.287,215.11a4.778,4.778,0,0,1,0,1.291,4.445,4.445,0,0,1-.35,1.24,4.9,4.9,0,0,1,.365-2.531Z" transform="translate(-442.975 -156.711)"/><path class="b" d="M480.574,189.33a4.785,4.785,0,0,1,0,1.291,4.446,4.446,0,0,1-.35,1.24,4.783,4.783,0,0,1,0-1.291A4.5,4.5,0,0,1,480.574,189.33Z" transform="translate(-444.944 -149.735)"/><path class="b" d="M482.131,199.748a5.112,5.112,0,0,1-2.531-.365,4.783,4.783,0,0,1,1.291,0A4.516,4.516,0,0,1,482.131,199.748Z" transform="translate(-444.787 -152.443)"/><path class="b" d="M451.4,202.855a4.783,4.783,0,0,1-1.291,0,4.546,4.546,0,0,1-1.247-.343,4.257,4.257,0,0,1,1.291,0A4.545,4.545,0,0,1,451.4,202.855Z" transform="translate(-436.469 -153.288)"/><path class="b" d="M467.061,212.02a4.257,4.257,0,0,1-1.291,0,4.414,4.414,0,0,1-1.24-.343,5,5,0,0,1,2.531.357Z" transform="translate(-440.709 -155.772)"/><path class="b" d="M437.318,193.757a4.5,4.5,0,0,1-1.291,0,4.552,4.552,0,0,1-1.247-.343,4.783,4.783,0,0,1,1.291,0A4.579,4.579,0,0,1,437.318,193.757Z" transform="translate(-432.659 -150.828)"/><path class="b" d="M452.528,220.609a5.046,5.046,0,0,1-2.538-.357,4.257,4.257,0,0,1,1.291,0A4.567,4.567,0,0,1,452.528,220.609Z" transform="translate(-436.775 -158.089)"/><path class="b" d="M498.64,177.154a4.256,4.256,0,0,0,1.109.321,2.035,2.035,0,0,0-.2-.343A3.414,3.414,0,0,0,498.64,177.154Z" transform="translate(-449.939 -146.429)"/><path class="b" d="M469.43,195.84a4.674,4.674,0,0,1,.9.926,4.38,4.38,0,0,1,.635,1.123,4.306,4.306,0,0,1-.9-.926A4.139,4.139,0,0,1,469.43,195.84Z" transform="translate(-442.035 -151.496)"/><path class="b" d="M455,210.51a4.712,4.712,0,0,1,.9.926,4.589,4.589,0,0,1,.635,1.123,4.392,4.392,0,0,1-.9-.926A4.589,4.589,0,0,1,455,210.51Z" transform="translate(-438.13 -155.466)"/><path class="b" d="M446.77,191.07a4.694,4.694,0,0,1,.9.919,4.59,4.59,0,0,1,.635,1.123,4.391,4.391,0,0,1-.9-.926A4.655,4.655,0,0,1,446.77,191.07Z" transform="translate(-435.903 -150.206)"/><path class="b" d="M478.55,208.68a4.675,4.675,0,0,1,.9.926,4.38,4.38,0,0,1,.635,1.123A5.068,5.068,0,0,1,478.55,208.68Z" transform="translate(-444.503 -154.971)"/><path class="b" d="M489.42,184a4.5,4.5,0,0,1,.9.919,4.589,4.589,0,0,1,.635,1.123,4.7,4.7,0,0,1-.9-.919A4.847,4.847,0,0,1,489.42,184Z" transform="translate(-447.445 -148.292)"/><path class="b" d="M490.13,195.5a4.917,4.917,0,0,1,2.042-1.539,4.5,4.5,0,0,1-.919.9A4.849,4.849,0,0,1,490.13,195.5Z" transform="translate(-447.637 -150.988)"/><path class="b" d="M439.07,201.279a4.391,4.391,0,0,1,.926-.9,4.588,4.588,0,0,1,1.123-.635A4.994,4.994,0,0,1,439.07,201.279Z" transform="translate(-433.82 -152.552)"/><path class="b" d="M454.78,196.552a4.449,4.449,0,0,1,.919-.9,4.39,4.39,0,0,1,1.123-.635,4.658,4.658,0,0,1-.919.9A4.468,4.468,0,0,1,454.78,196.552Z" transform="translate(-438.071 -151.274)"/><path class="b" d="M472.08,206.242a4.446,4.446,0,0,1,.919-.9,4.391,4.391,0,0,1,1.123-.635,4.657,4.657,0,0,1-.919.9A4.713,4.713,0,0,1,472.08,206.242Z" transform="translate(-442.752 -153.897)"/><path class="b" d="M461.67,220.692a4.673,4.673,0,0,1,.926-.9,4.138,4.138,0,0,1,1.123-.635,4.5,4.5,0,0,1-.926.9A4.379,4.379,0,0,1,461.67,220.692Z" transform="translate(-439.935 -157.807)"/><path class="f" d="M468.8,210.515c5.74-3.647,16.4-17.053,20.846-24.683,3.333-5.726,3.29-11.087-1.371-9.613C485.722,180.719,474.387,200.427,468.8,210.515Z" transform="translate(-441.865 -146.12)"/><path class="c" d="M435.1,195.234c.642-.314,6.689-2.29,8.023-2.691s6.7-2.093,8.1-2.392a.051.051,0,0,1,.028.066.05.05,0,0,1-.028.028c-1.313.554-6.74,2.276-8.082,2.713s-7.352,2.261-8.023,2.371C435.063,195.336,435.056,195.256,435.1,195.234Z" transform="translate(-432.738 -149.957)"/><path class="b" d="M474.989,223.926c.583.729,41.736,3.3,41.962,3.049.62-.656-8.986-45.872-17.783-53.866-1.889-1.714-7.651-.372-9.241.89-1,.8-3.589,6.229-5.4,10.759C480.9,193.831,474.471,223.284,474.989,223.926Z" transform="translate(-443.532 -145.126)"/><path class="e" d="M496.134,171.935c-1.765,1.021-3.727,7.1-.117,8.366s7.732-4.187,8.454-6.025S499.934,169.74,496.134,171.935Z" transform="translate(-448.681 -144.805)"/><path class="p" d="M496.328,176.978c2.268.562,6.2-2.874,7.775-5.667.1-.2-.168-2.232-.387-4.719-.124-1.51-.233-3.195-.219-4.741L493.79,164.1a24.383,24.383,0,0,1,.868,5.945,2.931,2.931,0,0,1-.073.627.689.689,0,0,1,0,.109C494.366,171.989,494.14,176.431,496.328,176.978Z" transform="translate(-448.627 -142.299)"/><path class="c" d="M503.028,162c-.321,1.933-1.86,8.826-7.469,8.9a7.045,7.045,0,0,1-1-.066.391.391,0,0,1,0-.109,3.421,3.421,0,0,0,.073-.627,24.863,24.863,0,0,0-.883-5.945Z" transform="translate(-448.616 -142.339)"/><path class="p" d="M501.908,143.455c1.276,3.355.124,13.384-2.188,15.755-3.319,3.435-9.088,4.128-12.093.058-2.918-3.939-1.182-16.98,1.408-19.169C492.871,136.876,500.026,138.488,501.908,143.455Z" transform="translate(-446.548 -135.961)"/><path class="c" d="M495.3,154.49s.051,0,.044.066c-.095.671-.095,1.459.5,1.751v.036C495.094,156.16,495.1,155.117,495.3,154.49Z" transform="translate(-449.005 -140.307)"/><path class="c" d="M495.986,153.61c1.094.044.941,2.232-.073,2.188S495.059,153.581,495.986,153.61Z" transform="translate(-449.014 -140.069)"/><path class="c" d="M489.813,154.15a.061.061,0,0,0-.058.058c0,.678-.168,1.459-.8,1.634v.044C489.719,155.828,489.9,154.77,489.813,154.15Z" transform="translate(-447.32 -140.215)"/><path class="c" d="M489.015,153.117c-1.087-.153-1.32,2.028-.321,2.188S489.927,153.256,489.015,153.117Z" transform="translate(-447.076 -139.933)"/><path class="c" d="M496.94,151.736c-.292-.1-.547-.233-.824-.357a1.461,1.461,0,0,1-.773-.532.467.467,0,0,1,.109-.554,1.166,1.166,0,0,1,1.167,0,1.684,1.684,0,0,1,.919.8.5.5,0,0,1-.6.642Z" transform="translate(-449.034 -139.129)"/><path class="c" d="M488.087,151.678a8.808,8.808,0,0,0,.883-.16,1.5,1.5,0,0,0,.875-.343.466.466,0,0,0,0-.569,1.145,1.145,0,0,0-1.123-.292,1.693,1.693,0,0,0-1.08.569.5.5,0,0,0,.445.8Z" transform="translate(-446.936 -139.165)"/><path class="c" d="M495.788,163.236c-.175.146-.35.35-.6.357a1.94,1.94,0,0,1-.729-.219h0a.92.92,0,0,0,.832.43.729.729,0,0,0,.576-.562C495.868,163.229,495.817,163.214,495.788,163.236Z" transform="translate(-448.808 -142.671)"/><path class="c" d="M494.049,157.605a2.336,2.336,0,0,1-1.612.919,3.174,3.174,0,0,1-.832,0h-.16l-.146-.036a.16.16,0,0,1-.124-.16h0a.2.2,0,0,1,0-.066h0V158.2a10.138,10.138,0,0,1,.131-1.313c-.2.08-1.2.452-1.167.182a34.784,34.784,0,0,1,1.386-6.929.065.065,0,0,1,.084-.04.064.064,0,0,1,.04.04c-.2,2.188-.773,4.3-1.007,6.477a3.719,3.719,0,0,1,1.116-.255c.073,0-.233,1.524-.226,1.758h0a3.216,3.216,0,0,0,2.443-.569C494.042,157.5,494.093,157.554,494.049,157.605Z" transform="translate(-447.639 -139.119)"/><path class="c" d="M492.69,161.133a2.688,2.688,0,0,0,1.1.824,1.22,1.22,0,0,0,.729,0c.532-.146.54-.642.438-1.065a2.992,2.992,0,0,0-.255-.642A3.529,3.529,0,0,1,492.69,161.133Z" transform="translate(-448.329 -141.866)"/><path class="q" d="M494.2,162.195a1.231,1.231,0,0,0,.729,0c.532-.146.54-.642.438-1.065A1.269,1.269,0,0,0,494.2,162.195Z" transform="translate(-448.738 -142.104)"/><path class="p" d="M504.545,155.193s2.086-3.311,3.581-2.582,0,5.463-1.656,6.178a1.736,1.736,0,0,1-2.338-.75c-.012-.022-.023-.044-.033-.067Z" transform="translate(-451.417 -139.77)"/><path class="c" d="M508.026,154.5v.044a4.378,4.378,0,0,0-2.137,2.852.956.956,0,0,1,1.408-.343v.066a1.072,1.072,0,0,0-1.16.423,5.056,5.056,0,0,0-.518.977c-.051.117-.248.066-.212-.058h0C505.305,156.922,506.392,154.726,508.026,154.5Z" transform="translate(-451.769 -140.31)"/><path class="c" d="M487.769,143.561c3.275,2.079,7.527-1.393,7.527-1.393a3.487,3.487,0,0,0,3.647,2.079s.817,5.39,2.247,5.332c2.188-.088,2.582-7.5,1.845-8.921a3.881,3.881,0,0,0-2.6-1.736,3.575,3.575,0,0,0-1.554-2.1c-1.524-1.08-6.565.627-6.565.627a4.75,4.75,0,0,0-1.379-1.721,1.342,1.342,0,0,0-1.888.193l-.037.048a3.216,3.216,0,0,1,.569,1.32c.314,1.576-.985,1.619-1.021.182a2.268,2.268,0,0,1,.452-1.5c-.671-.912-1.729-1.182-2.341-.656C485.494,136.267,485.041,141.832,487.769,143.561Z" transform="translate(-446.45 -135.045)"/><path class="g" d="M512.117,177.947c12.327,12.83,30.3,45.318,32.517,49.979,1.51,3.166-15.026,11.5-15.726,9.2-.9-2.918-15.317-39.307-19.125-53.027C507.667,176.532,509.571,175.292,512.117,177.947Z" transform="translate(-452.708 -146.31)"/><path class="p" d="M535.27,253.277c.576,1.576,2.538,8.271,3.917,9.1s8.578.656,12.21.656,4.376-1.014,4.289-2.268-7.681-1.459-7.681-1.459,10.175,2.918,12.735,3.4,8.461,1.962,9.314-.16c.379-.956-1.233-1.926-1.233-1.926s2.473.729,2.867-.511c.452-1.4-1.517-2.188-1.517-2.188s1.546.306,1.583-.832c.08-2.553-9.6-3.807-9.6-3.807s7.411,3.611,7.644,1.532c.336-2.918-14.858-6.039-16.441-7.294a10.7,10.7,0,0,1-2.531-3.122Z" transform="translate(-459.852 -164.637)"/><path class="c" d="M560.328,266.516a1.109,1.109,0,0,0-.343-.97,3.222,3.222,0,0,0-.89-.576,12.081,12.081,0,0,0-2.079-.671c-1.459-.365-2.918-.62-4.376-1a17.9,17.9,0,0,1,4.486.5,8.217,8.217,0,0,1,2.144.817,2.823,2.823,0,0,1,.89.773A1.145,1.145,0,0,1,560.328,266.516Z" transform="translate(-464.552 -169.75)"/><path class="c" d="M576.694,265.236c-1.05-.255-2.079-.554-3.107-.846s-2.057-.62-3.085-.926l-3.064-.963c-1.021-.321-2.042-.635-3.078-.941a22.29,22.29,0,0,1,3.18.569c1.05.233,2.086.54,3.115.846s2.05.656,3.049,1.043S575.717,264.8,576.694,265.236Z" transform="translate(-467.723 -169.28)"/><path class="c" d="M567.73,258.07a19.972,19.972,0,0,1,2.918.408,28.234,28.234,0,0,1,2.874.729,25.465,25.465,0,0,1,2.779,1.043,20.4,20.4,0,0,1,2.633,1.357c-.934-.328-1.845-.686-2.779-.992s-1.853-.635-2.786-.919-1.875-.569-2.816-.846S568.656,258.333,567.73,258.07Z" transform="translate(-468.635 -168.336)"/><path class="c" d="M569.78,254.74a19.658,19.658,0,0,1,8.979,3.107c-1.51-.54-2.969-1.1-4.464-1.6S571.3,255.229,569.78,254.74Z" transform="translate(-469.19 -167.435)"/><path class="e" d="M509.842,187.463c2.918,12.575,16.9,46.973,16.9,46.973l12.56-6.054,6.331-3.056s-21.568-33.7-30.38-44.72c-.686-.846-1.306-1.576-1.875-2.188C507.916,172.584,507.581,177.762,509.842,187.463Z" transform="translate(-452.615 -146.118)"/><path class="c" d="M532.057,247.894a179.205,179.205,0,0,1,17.228-8.374c.066,0,.109.08.044.109-1.459.613-10.635,5.522-17.228,8.381C532.006,248.039,532.006,247.894,532.057,247.894Z" transform="translate(-458.973 -163.316)"/><path class="b" d="M528.285,201.86a4.783,4.783,0,0,1,0,1.291,4.414,4.414,0,0,1-.343,1.24,4.207,4.207,0,0,1,0-1.284A4.552,4.552,0,0,1,528.285,201.86Z" transform="translate(-457.855 -153.125)"/><path class="b" d="M520.325,217a4.783,4.783,0,0,1,0,1.291,4.5,4.5,0,0,1-.343,1.24,4.255,4.255,0,0,1,0-1.291A4.416,4.416,0,0,1,520.325,217Z" transform="translate(-455.701 -157.222)"/><path class="b" d="M540.384,240.91a4.734,4.734,0,0,1,0,1.284,4.55,4.55,0,0,1-.35,1.247,4.778,4.778,0,0,1,0-1.291A4.447,4.447,0,0,1,540.384,240.91Z" transform="translate(-461.129 -163.692)"/><path class="b" d="M539.776,214.69a4.211,4.211,0,0,1,0,1.284,4.552,4.552,0,0,1-.343,1.247,4.5,4.5,0,0,1,0-1.291A4.416,4.416,0,0,1,539.776,214.69Z" transform="translate(-460.965 -156.597)"/><path class="b" d="M545.855,225.74a4.778,4.778,0,0,1,0,1.291,4.543,4.543,0,0,1-.343,1.247,4.259,4.259,0,0,1,0-1.291A4.552,4.552,0,0,1,545.855,225.74Z" transform="translate(-462.61 -159.587)"/><path class="b" d="M518.061,185.207a4.5,4.5,0,0,1-1.291,0,4.414,4.414,0,0,1-1.24-.343,4.729,4.729,0,0,1,1.284,0A4.578,4.578,0,0,1,518.061,185.207Z" transform="translate(-454.51 -148.514)"/><path class="b" d="M517.891,202.378a5.112,5.112,0,0,1-2.531-.365,4.783,4.783,0,0,1,1.291,0A4.516,4.516,0,0,1,517.891,202.378Z" transform="translate(-454.464 -153.155)"/><path class="b" d="M533.5,211.593a4.729,4.729,0,0,1-1.284,0,4.551,4.551,0,0,1-1.247-.35,4.5,4.5,0,0,1,1.291,0A4.421,4.421,0,0,1,533.5,211.593Z" transform="translate(-458.688 -155.652)"/><path class="b" d="M549.061,246.385a4.729,4.729,0,0,1-1.284,0,4.8,4.8,0,0,1-1.247-.343,4.256,4.256,0,0,1,1.291,0A4.415,4.415,0,0,1,549.061,246.385Z" transform="translate(-462.898 -165.068)"/><path class="b" d="M532.811,246.965a4.729,4.729,0,0,1-1.284,0,4.552,4.552,0,0,1-1.247-.343,4.256,4.256,0,0,1,1.291,0A4.415,4.415,0,0,1,532.811,246.965Z" transform="translate(-458.501 -165.225)"/><path class="b" d="M528.061,229.764a4.783,4.783,0,0,1-1.291,0,4.5,4.5,0,0,1-1.24-.35,4.784,4.784,0,0,1,1.291,0A4.7,4.7,0,0,1,528.061,229.764Z" transform="translate(-457.216 -160.57)"/><path class="b" d="M544.44,234.6a4.655,4.655,0,0,1,.9.926,4.139,4.139,0,0,1,.635,1.123,4.5,4.5,0,0,1-.9-.926A4.357,4.357,0,0,1,544.44,234.6Z" transform="translate(-462.333 -161.985)"/><path class="b" d="M521.48,210.09a4.659,4.659,0,0,1,.9.919,4.588,4.588,0,0,1,.635,1.123,4.449,4.449,0,0,1-.9-.919A4.24,4.24,0,0,1,521.48,210.09Z" transform="translate(-456.12 -155.352)"/><path class="b" d="M513.27,190.64a4.5,4.5,0,0,1,.9.926,4.361,4.361,0,0,1,.635,1.123,4.5,4.5,0,0,1-.9-.926A4.138,4.138,0,0,1,513.27,190.64Z" transform="translate(-453.898 -150.089)"/><path class="b" d="M537,222.94a4.5,4.5,0,0,1,.9.919,4.847,4.847,0,0,1,.635,1.123,4.5,4.5,0,0,1-.9-.919A4.714,4.714,0,0,1,537,222.94Z" transform="translate(-460.32 -158.83)"/><path class="b" d="M529.94,238.1a4.71,4.71,0,0,1,.9.926,4.588,4.588,0,0,1,.635,1.123A5,5,0,0,1,529.94,238.1Z" transform="translate(-458.409 -162.932)"/><path class="b" d="M551.26,239.179a4.994,4.994,0,0,1,2.05-1.539A4.994,4.994,0,0,1,551.26,239.179Z" transform="translate(-464.178 -162.807)"/><path class="b" d="M537,251.642a4.5,4.5,0,0,1,.926-.9,4.138,4.138,0,0,1,1.123-.635,4.5,4.5,0,0,1-.926.9A4.392,4.392,0,0,1,537,251.642Z" transform="translate(-460.32 -166.182)"/><path class="b" d="M535.57,233.529a4.994,4.994,0,0,1,2.05-1.539,4.711,4.711,0,0,1-.926.9A4.587,4.587,0,0,1,535.57,233.529Z" transform="translate(-459.933 -161.278)"/><path class="b" d="M521.28,196.129a4.5,4.5,0,0,1,.919-.9,4.588,4.588,0,0,1,1.123-.635,4.376,4.376,0,0,1-.926.9A4.654,4.654,0,0,1,521.28,196.129Z" transform="translate(-456.066 -151.158)"/><path class="b" d="M509.4,181.779a4.5,4.5,0,0,1,.919-.9,4.714,4.714,0,0,1,1.123-.635,4.5,4.5,0,0,1-.919.9A4.846,4.846,0,0,1,509.4,181.779Z" transform="translate(-452.851 -147.275)"/><path class="b" d="M528.17,220.269a4.7,4.7,0,0,1,.919-.9,4.847,4.847,0,0,1,1.123-.635,4.5,4.5,0,0,1-.919.9A4.847,4.847,0,0,1,528.17,220.269Z" transform="translate(-457.93 -157.69)"/></g></g></svg>