<svg xmlns="http://www.w3.org/2000/svg" viewBox="0 0 78.76 82.2"><defs><style>.cls-1{fill:#2d83e8;}</style></defs><title>spinner</title><g id="Capa_2" data-name="Capa 2"><g id="Capa_1-2" data-name="Capa 1"><path class="cls-1" d="M62.44,14.25h0A4.52,4.52,0,0,0,63,19.57a31.91,31.91,0,0,1,6.85,11.86,4.54,4.54,0,0,0,4.33,3.13h0a4.58,4.58,0,0,0,4.37-6,41.11,41.11,0,0,0-8.79-15.19A4.56,4.56,0,0,0,62.44,14.25Z"/><path class="cls-1" d="M27.65,7.7a4.53,4.53,0,0,0,4.89,2.18,31.94,31.94,0,0,1,13.67,0,4.54,4.54,0,0,0,4.9-2.18h0A4.57,4.57,0,0,0,48.17,1,41.14,41.14,0,0,0,30.59,1,4.57,4.57,0,0,0,27.65,7.7Z"/><path class="cls-1" d="M69.84,50.77A32,32,0,0,1,63,62.62,4.54,4.54,0,0,0,62.44,68h0a4.56,4.56,0,0,0,7.31.83,41.08,41.08,0,0,0,8.79-15.2,4.57,4.57,0,0,0-4.37-5.94h0A4.53,4.53,0,0,0,69.84,50.77Z"/><path class="cls-1" d="M51.11,74.5a4.56,4.56,0,0,0-4.9-2.19,31.94,31.94,0,0,1-13.67,0,4.55,4.55,0,0,0-4.89,2.19h0a4.57,4.57,0,0,0,2.94,6.75,41.14,41.14,0,0,0,17.58,0,4.57,4.57,0,0,0,2.94-6.75Z"/><path class="cls-1" d="M4.58,47.64h0A4.57,4.57,0,0,0,.22,53.58,40.8,40.8,0,0,0,9,68.78,4.56,4.56,0,0,0,16.32,68h0a4.54,4.54,0,0,0-.55-5.33A31.81,31.81,0,0,1,8.92,50.77,4.54,4.54,0,0,0,4.58,47.64Z"/><path class="cls-1" d="M4.58,34.56h0a4.55,4.55,0,0,0,4.34-3.13,31.77,31.77,0,0,1,6.85-11.86,4.52,4.52,0,0,0,.55-5.32h0A4.56,4.56,0,0,0,9,13.42,40.84,40.84,0,0,0,.22,28.61,4.58,4.58,0,0,0,4.58,34.56Z"/></g></g></svg>